%MOIN*%
%OFA0B0*%
%FSLAX44Y44*%
%IPPOS*%
%LPD*%
%ADD10C,0*%
D10*
X00010629Y00005812D02*
X00010629Y00005812D01*
X00010629Y00002848D01*
X00010628Y00002815D01*
X00010624Y00002782D01*
X00010617Y00002749D01*
X00010607Y00002717D01*
X00010595Y00002686D01*
X00010580Y00002657D01*
X00010562Y00002628D01*
X00010542Y00002601D01*
X00010520Y00002576D01*
X00010496Y00002553D01*
X00010470Y00002532D01*
X00010443Y00002513D01*
X00010414Y00002497D01*
X00010383Y00002483D01*
X00010352Y00002472D01*
X00010319Y00002464D01*
X00010287Y00002458D01*
X00010253Y00002455D01*
X00010220Y00002455D01*
X00010187Y00002458D01*
X00009507Y00002543D01*
X00009479Y00002548D01*
X00009451Y00002554D01*
X00009424Y00002563D01*
X00009397Y00002573D01*
X00009372Y00002586D01*
X00009347Y00002600D01*
X00009323Y00002616D01*
X00009301Y00002633D01*
X00009280Y00002652D01*
X00009260Y00002673D01*
X00009242Y00002695D01*
X00009226Y00002718D01*
X00009211Y00002743D01*
X00009198Y00002768D01*
X00009187Y00002794D01*
X00009178Y00002821D01*
X00009171Y00002849D01*
X00009166Y00002877D01*
X00009163Y00002905D01*
X00009162Y00002934D01*
X00009162Y00005727D01*
X00009163Y00005755D01*
X00009166Y00005784D01*
X00009171Y00005812D01*
X00009178Y00005839D01*
X00009187Y00005866D01*
X00009198Y00005892D01*
X00009211Y00005918D01*
X00009226Y00005942D01*
X00009242Y00005965D01*
X00009260Y00005987D01*
X00009280Y00006008D01*
X00009301Y00006027D01*
X00009323Y00006045D01*
X00009347Y00006061D01*
X00009372Y00006075D01*
X00009397Y00006087D01*
X00009424Y00006098D01*
X00009451Y00006106D01*
X00009479Y00006113D01*
X00009507Y00006117D01*
X00010187Y00006203D01*
X00010220Y00006205D01*
X00010253Y00006205D01*
X00010287Y00006202D01*
X00010319Y00006197D01*
X00010352Y00006188D01*
X00010383Y00006177D01*
X00010414Y00006163D01*
X00010443Y00006147D01*
X00010470Y00006128D01*
X00010496Y00006107D01*
X00010520Y00006084D01*
X00010542Y00006059D01*
X00010562Y00006032D01*
X00010580Y00006004D01*
X00010595Y00005974D01*
X00010607Y00005943D01*
X00010617Y00005911D01*
X00010624Y00005878D01*
X00010628Y00005845D01*
X00010629Y00005812D01*
X00013085Y00010629D02*
X00013085Y00010629D01*
X00016836Y00010629D01*
X00016866Y00010628D01*
X00016896Y00010625D01*
X00016926Y00010619D01*
X00016956Y00010611D01*
X00016985Y00010600D01*
X00017012Y00010588D01*
X00017039Y00010573D01*
X00017065Y00010556D01*
X00017089Y00010537D01*
X00017111Y00010517D01*
X00017132Y00010495D01*
X00017151Y00010471D01*
X00017169Y00010446D01*
X00017184Y00010419D01*
X00017197Y00010392D01*
X00017208Y00010363D01*
X00017217Y00010334D01*
X00017223Y00010304D01*
X00017228Y00010274D01*
X00017229Y00010244D01*
X00017245Y00009439D01*
X00017245Y00009407D01*
X00017242Y00009376D01*
X00017236Y00009345D01*
X00017228Y00009315D01*
X00017218Y00009285D01*
X00017205Y00009257D01*
X00017190Y00009229D01*
X00017173Y00009203D01*
X00017154Y00009178D01*
X00017133Y00009155D01*
X00017110Y00009134D01*
X00017086Y00009114D01*
X00017060Y00009096D01*
X00017033Y00009081D01*
X00017004Y00009068D01*
X00016975Y00009057D01*
X00016945Y00009048D01*
X00016914Y00009042D01*
X00016883Y00009038D01*
X00016852Y00009037D01*
X00013068Y00009037D01*
X00013037Y00009038D01*
X00013006Y00009042D01*
X00012975Y00009048D01*
X00012945Y00009057D01*
X00012916Y00009068D01*
X00012888Y00009081D01*
X00012860Y00009096D01*
X00012834Y00009114D01*
X00012810Y00009134D01*
X00012787Y00009155D01*
X00012766Y00009178D01*
X00012747Y00009203D01*
X00012730Y00009229D01*
X00012715Y00009257D01*
X00012702Y00009285D01*
X00012692Y00009315D01*
X00012684Y00009345D01*
X00012678Y00009376D01*
X00012675Y00009407D01*
X00012675Y00009439D01*
X00012691Y00010244D01*
X00012693Y00010274D01*
X00012697Y00010304D01*
X00012703Y00010334D01*
X00012712Y00010363D01*
X00012723Y00010392D01*
X00012736Y00010419D01*
X00012752Y00010446D01*
X00012769Y00010471D01*
X00012788Y00010495D01*
X00012809Y00010517D01*
X00012832Y00010537D01*
X00012856Y00010556D01*
X00012881Y00010573D01*
X00012908Y00010588D01*
X00012936Y00010600D01*
X00012964Y00010611D01*
X00012994Y00010619D01*
X00013024Y00010625D01*
X00013054Y00010628D01*
X00013085Y00010629D01*
X00008344Y00009037D02*
X00008344Y00009037D01*
X00008313Y00009038D01*
X00008282Y00009042D01*
X00008251Y00009048D01*
X00008221Y00009057D01*
X00008191Y00009068D01*
X00008163Y00009081D01*
X00008136Y00009096D01*
X00008110Y00009114D01*
X00008086Y00009134D01*
X00008063Y00009155D01*
X00008042Y00009178D01*
X00008023Y00009203D01*
X00008006Y00009229D01*
X00007991Y00009257D01*
X00007978Y00009285D01*
X00007968Y00009315D01*
X00007960Y00009345D01*
X00007954Y00009376D01*
X00007951Y00009407D01*
X00007950Y00009439D01*
X00007967Y00010244D01*
X00007968Y00010274D01*
X00007972Y00010304D01*
X00007979Y00010334D01*
X00007988Y00010363D01*
X00007999Y00010392D01*
X00008012Y00010419D01*
X00008027Y00010446D01*
X00008044Y00010471D01*
X00008064Y00010495D01*
X00008085Y00010517D01*
X00008107Y00010537D01*
X00008131Y00010556D01*
X00008157Y00010573D01*
X00008184Y00010588D01*
X00008211Y00010600D01*
X00008240Y00010611D01*
X00008269Y00010619D01*
X00008299Y00010625D01*
X00008330Y00010628D01*
X00008360Y00010629D01*
X00009162Y00010629D01*
X00009162Y00011239D01*
X00009163Y00011267D01*
X00009166Y00011295D01*
X00009171Y00011323D01*
X00009178Y00011351D01*
X00009187Y00011378D01*
X00009198Y00011404D01*
X00009211Y00011429D01*
X00009226Y00011454D01*
X00009242Y00011477D01*
X00009260Y00011499D01*
X00009280Y00011520D01*
X00009301Y00011539D01*
X00009323Y00011557D01*
X00009347Y00011572D01*
X00009372Y00011587D01*
X00009397Y00011599D01*
X00009424Y00011610D01*
X00009451Y00011618D01*
X00009479Y00011625D01*
X00009507Y00011629D01*
X00010187Y00011715D01*
X00010220Y00011717D01*
X00010253Y00011717D01*
X00010287Y00011714D01*
X00010319Y00011709D01*
X00010352Y00011700D01*
X00010383Y00011689D01*
X00010414Y00011675D01*
X00010443Y00011659D01*
X00010470Y00011640D01*
X00010496Y00011619D01*
X00010520Y00011596D01*
X00010542Y00011571D01*
X00010562Y00011544D01*
X00010580Y00011516D01*
X00010595Y00011486D01*
X00010607Y00011455D01*
X00010617Y00011423D01*
X00010624Y00011390D01*
X00010628Y00011357D01*
X00010629Y00011324D01*
X00010629Y00010629D01*
X00011324Y00010629D01*
X00011354Y00010628D01*
X00011385Y00010625D01*
X00011415Y00010619D01*
X00011444Y00010611D01*
X00011473Y00010600D01*
X00011500Y00010588D01*
X00011527Y00010573D01*
X00011553Y00010556D01*
X00011577Y00010537D01*
X00011599Y00010517D01*
X00011620Y00010495D01*
X00011640Y00010471D01*
X00011657Y00010446D01*
X00011672Y00010419D01*
X00011685Y00010392D01*
X00011696Y00010363D01*
X00011705Y00010334D01*
X00011712Y00010304D01*
X00011716Y00010274D01*
X00011717Y00010244D01*
X00011734Y00009439D01*
X00011733Y00009407D01*
X00011730Y00009376D01*
X00011724Y00009345D01*
X00011716Y00009315D01*
X00011706Y00009285D01*
X00011693Y00009257D01*
X00011678Y00009229D01*
X00011661Y00009203D01*
X00011642Y00009178D01*
X00011621Y00009155D01*
X00011598Y00009134D01*
X00011574Y00009114D01*
X00011548Y00009096D01*
X00011521Y00009081D01*
X00011493Y00009068D01*
X00011463Y00009057D01*
X00011433Y00009048D01*
X00011402Y00009042D01*
X00011371Y00009038D01*
X00011340Y00009037D01*
X00010629Y00009037D01*
X00010629Y00007573D01*
X00010628Y00007539D01*
X00010624Y00007506D01*
X00010617Y00007474D01*
X00010607Y00007442D01*
X00010595Y00007411D01*
X00010580Y00007381D01*
X00010562Y00007353D01*
X00010542Y00007326D01*
X00010520Y00007301D01*
X00010496Y00007278D01*
X00010470Y00007257D01*
X00010443Y00007238D01*
X00010414Y00007222D01*
X00010383Y00007208D01*
X00010352Y00007197D01*
X00010319Y00007188D01*
X00010287Y00007182D01*
X00010253Y00007179D01*
X00010220Y00007179D01*
X00010187Y00007182D01*
X00009507Y00007267D01*
X00009479Y00007272D01*
X00009451Y00007279D01*
X00009424Y00007287D01*
X00009397Y00007298D01*
X00009372Y00007310D01*
X00009347Y00007324D01*
X00009323Y00007340D01*
X00009301Y00007358D01*
X00009280Y00007377D01*
X00009260Y00007398D01*
X00009242Y00007420D01*
X00009226Y00007443D01*
X00009211Y00007467D01*
X00009198Y00007493D01*
X00009187Y00007519D01*
X00009178Y00007546D01*
X00009171Y00007573D01*
X00009166Y00007601D01*
X00009163Y00007630D01*
X00009162Y00007658D01*
X00009162Y00009037D01*
X00008344Y00009037D01*
X00002832Y00009037D02*
X00002832Y00009037D01*
X00002801Y00009038D01*
X00002770Y00009042D01*
X00002739Y00009048D01*
X00002709Y00009057D01*
X00002680Y00009068D01*
X00002651Y00009081D01*
X00002624Y00009096D01*
X00002598Y00009114D01*
X00002574Y00009134D01*
X00002551Y00009155D01*
X00002530Y00009178D01*
X00002511Y00009203D01*
X00002494Y00009229D01*
X00002479Y00009257D01*
X00002466Y00009285D01*
X00002456Y00009315D01*
X00002448Y00009345D01*
X00002442Y00009376D01*
X00002439Y00009407D01*
X00002439Y00009439D01*
X00002455Y00010244D01*
X00002457Y00010274D01*
X00002461Y00010304D01*
X00002467Y00010334D01*
X00002476Y00010363D01*
X00002487Y00010392D01*
X00002500Y00010419D01*
X00002515Y00010446D01*
X00002533Y00010471D01*
X00002552Y00010495D01*
X00002573Y00010517D01*
X00002595Y00010537D01*
X00002620Y00010556D01*
X00002645Y00010573D01*
X00002672Y00010588D01*
X00002700Y00010600D01*
X00002728Y00010611D01*
X00002758Y00010619D01*
X00002788Y00010625D01*
X00002818Y00010628D01*
X00002848Y00010629D01*
X00006599Y00010629D01*
X00006630Y00010628D01*
X00006660Y00010625D01*
X00006690Y00010619D01*
X00006720Y00010611D01*
X00006748Y00010600D01*
X00006776Y00010588D01*
X00006803Y00010573D01*
X00006828Y00010556D01*
X00006852Y00010537D01*
X00006875Y00010517D01*
X00006896Y00010495D01*
X00006915Y00010471D01*
X00006932Y00010446D01*
X00006948Y00010419D01*
X00006961Y00010392D01*
X00006972Y00010363D01*
X00006981Y00010334D01*
X00006987Y00010304D01*
X00006991Y00010274D01*
X00006993Y00010244D01*
X00007009Y00009439D01*
X00007009Y00009407D01*
X00007006Y00009376D01*
X00007000Y00009345D01*
X00006992Y00009315D01*
X00006982Y00009285D01*
X00006969Y00009257D01*
X00006954Y00009229D01*
X00006937Y00009203D01*
X00006918Y00009178D01*
X00006897Y00009155D01*
X00006874Y00009134D01*
X00006850Y00009114D01*
X00006824Y00009096D01*
X00006797Y00009081D01*
X00006768Y00009068D01*
X00006739Y00009057D01*
X00006709Y00009048D01*
X00006678Y00009042D01*
X00006647Y00009038D01*
X00006616Y00009037D01*
X00002832Y00009037D01*
X00009162Y00016357D02*
X00009162Y00016357D01*
X00009163Y00016385D01*
X00009166Y00016413D01*
X00009171Y00016441D01*
X00009178Y00016469D01*
X00009187Y00016496D01*
X00009198Y00016522D01*
X00009211Y00016548D01*
X00009226Y00016572D01*
X00009242Y00016595D01*
X00009260Y00016617D01*
X00009280Y00016638D01*
X00009301Y00016657D01*
X00009323Y00016675D01*
X00009347Y00016691D01*
X00009372Y00016705D01*
X00009397Y00016717D01*
X00009424Y00016728D01*
X00009451Y00016736D01*
X00009479Y00016743D01*
X00009507Y00016747D01*
X00010187Y00016833D01*
X00010220Y00016835D01*
X00010253Y00016835D01*
X00010287Y00016832D01*
X00010319Y00016827D01*
X00010352Y00016818D01*
X00010383Y00016807D01*
X00010414Y00016793D01*
X00010443Y00016777D01*
X00010470Y00016758D01*
X00010496Y00016737D01*
X00010520Y00016714D01*
X00010542Y00016689D01*
X00010562Y00016662D01*
X00010580Y00016634D01*
X00010595Y00016604D01*
X00010607Y00016573D01*
X00010617Y00016541D01*
X00010624Y00016508D01*
X00010628Y00016475D01*
X00010629Y00016442D01*
X00010629Y00013085D01*
X00010628Y00013051D01*
X00010624Y00013018D01*
X00010617Y00012986D01*
X00010607Y00012954D01*
X00010595Y00012923D01*
X00010580Y00012893D01*
X00010562Y00012864D01*
X00010542Y00012838D01*
X00010520Y00012812D01*
X00010496Y00012789D01*
X00010470Y00012768D01*
X00010443Y00012750D01*
X00010414Y00012733D01*
X00010383Y00012720D01*
X00010352Y00012708D01*
X00010319Y00012700D01*
X00010287Y00012694D01*
X00010253Y00012691D01*
X00010220Y00012691D01*
X00010187Y00012694D01*
X00009507Y00012779D01*
X00009479Y00012784D01*
X00009451Y00012790D01*
X00009424Y00012799D01*
X00009397Y00012809D01*
X00009372Y00012822D01*
X00009347Y00012836D01*
X00009323Y00012852D01*
X00009301Y00012870D01*
X00009280Y00012889D01*
X00009260Y00012909D01*
X00009242Y00012931D01*
X00009226Y00012955D01*
X00009211Y00012979D01*
X00009198Y00013004D01*
X00009187Y00013031D01*
X00009178Y00013058D01*
X00009171Y00013085D01*
X00009166Y00013113D01*
X00009163Y00013141D01*
X00009162Y00013170D01*
X00009162Y00016357D01*
X00010629Y00018203D02*
X00010629Y00018203D01*
X00010628Y00018169D01*
X00010624Y00018136D01*
X00010617Y00018104D01*
X00010607Y00018072D01*
X00010595Y00018041D01*
X00010580Y00018011D01*
X00010562Y00017983D01*
X00010542Y00017956D01*
X00010520Y00017931D01*
X00010496Y00017907D01*
X00010470Y00017886D01*
X00010443Y00017868D01*
X00010414Y00017851D01*
X00010383Y00017838D01*
X00010352Y00017826D01*
X00010319Y00017818D01*
X00010287Y00017812D01*
X00010253Y00017809D01*
X00010220Y00017809D01*
X00010187Y00017812D01*
X00009507Y00017897D01*
X00009479Y00017902D01*
X00009451Y00017908D01*
X00009424Y00017917D01*
X00009397Y00017928D01*
X00009372Y00017940D01*
X00009347Y00017954D01*
X00009323Y00017970D01*
X00009301Y00017988D01*
X00009280Y00018007D01*
X00009260Y00018027D01*
X00009242Y00018049D01*
X00009226Y00018073D01*
X00009211Y00018097D01*
X00009198Y00018122D01*
X00009187Y00018149D01*
X00009178Y00018176D01*
X00009171Y00018203D01*
X00009166Y00018231D01*
X00009163Y00018260D01*
X00009162Y00018288D01*
X00009162Y00018879D01*
X00000787Y00018879D01*
X00000787Y00010629D01*
X00001088Y00010629D01*
X00001118Y00010628D01*
X00001148Y00010625D01*
X00001178Y00010619D01*
X00001208Y00010611D01*
X00001236Y00010600D01*
X00001264Y00010588D01*
X00001291Y00010573D01*
X00001316Y00010556D01*
X00001341Y00010537D01*
X00001363Y00010517D01*
X00001384Y00010495D01*
X00001403Y00010471D01*
X00001421Y00010446D01*
X00001436Y00010419D01*
X00001449Y00010392D01*
X00001460Y00010363D01*
X00001469Y00010334D01*
X00001475Y00010304D01*
X00001479Y00010274D01*
X00001481Y00010244D01*
X00001497Y00009439D01*
X00001497Y00009407D01*
X00001494Y00009376D01*
X00001488Y00009345D01*
X00001480Y00009315D01*
X00001470Y00009285D01*
X00001457Y00009257D01*
X00001442Y00009229D01*
X00001425Y00009203D01*
X00001406Y00009178D01*
X00001385Y00009155D01*
X00001362Y00009134D01*
X00001338Y00009114D01*
X00001312Y00009096D01*
X00001285Y00009081D01*
X00001256Y00009068D01*
X00001227Y00009057D01*
X00001197Y00009048D01*
X00001166Y00009042D01*
X00001135Y00009038D01*
X00001104Y00009037D01*
X00000787Y00009037D01*
X00000787Y00000787D01*
X00009162Y00000787D01*
X00009162Y00001002D01*
X00009163Y00001031D01*
X00009166Y00001059D01*
X00009171Y00001087D01*
X00009178Y00001115D01*
X00009187Y00001142D01*
X00009198Y00001168D01*
X00009211Y00001193D01*
X00009226Y00001218D01*
X00009242Y00001241D01*
X00009260Y00001263D01*
X00009280Y00001284D01*
X00009301Y00001303D01*
X00009323Y00001320D01*
X00009347Y00001336D01*
X00009372Y00001350D01*
X00009397Y00001363D01*
X00009424Y00001373D01*
X00009451Y00001382D01*
X00009479Y00001388D01*
X00009507Y00001393D01*
X00010187Y00001478D01*
X00010220Y00001481D01*
X00010253Y00001481D01*
X00010287Y00001478D01*
X00010319Y00001472D01*
X00010352Y00001464D01*
X00010383Y00001453D01*
X00010414Y00001439D01*
X00010443Y00001423D01*
X00010470Y00001404D01*
X00010496Y00001383D01*
X00010520Y00001360D01*
X00010542Y00001335D01*
X00010562Y00001308D01*
X00010580Y00001279D01*
X00010595Y00001250D01*
X00010607Y00001219D01*
X00010617Y00001187D01*
X00010624Y00001154D01*
X00010628Y00001121D01*
X00010629Y00001088D01*
X00010629Y00000787D01*
X00019004Y00000787D01*
X00019004Y00009037D01*
X00018580Y00009037D01*
X00018549Y00009038D01*
X00018518Y00009042D01*
X00018487Y00009048D01*
X00018457Y00009057D01*
X00018428Y00009068D01*
X00018399Y00009081D01*
X00018372Y00009096D01*
X00018346Y00009114D01*
X00018322Y00009134D01*
X00018299Y00009155D01*
X00018278Y00009178D01*
X00018259Y00009203D01*
X00018242Y00009229D01*
X00018227Y00009257D01*
X00018214Y00009285D01*
X00018204Y00009315D01*
X00018196Y00009345D01*
X00018190Y00009376D01*
X00018187Y00009407D01*
X00018187Y00009439D01*
X00018203Y00010244D01*
X00018205Y00010274D01*
X00018209Y00010304D01*
X00018215Y00010334D01*
X00018224Y00010363D01*
X00018235Y00010392D01*
X00018248Y00010419D01*
X00018263Y00010446D01*
X00018281Y00010471D01*
X00018300Y00010495D01*
X00018321Y00010517D01*
X00018343Y00010537D01*
X00018368Y00010556D01*
X00018393Y00010573D01*
X00018420Y00010588D01*
X00018448Y00010600D01*
X00018476Y00010611D01*
X00018506Y00010619D01*
X00018536Y00010625D01*
X00018566Y00010628D01*
X00018596Y00010629D01*
X00019004Y00010629D01*
X00019004Y00018879D01*
X00010629Y00018879D01*
X00010629Y00018203D01*
M02*