G04 DipTrace 3.3.1.1*
G04 TopSilk.gto*
%MOIN*%
G04 #@! TF.FileFunction,Legend,Top*
G04 #@! TF.Part,Single*
%ADD10C,0.009843*%
%ADD18C,0.004*%
%ADD25O,0.016422X0.016542*%
%ADD29C,0.005*%
%ADD54C,0.004632*%
%ADD55C,0.003281*%
%ADD56C,0.003088*%
%FSLAX26Y26*%
G04*
G70*
G90*
G75*
G01*
G04 TopSilk*
%LPD*%
X889429Y936258D2*
D10*
X661065D1*
Y707934D1*
X889429D1*
Y936258D1*
D25*
X920544Y987911D3*
G36*
X889429Y936258D2*
X857936D1*
X889429Y904765D1*
Y936258D1*
G37*
X912278Y1094148D2*
D29*
X1007062Y1206179D1*
X1012011Y1206168D1*
Y1190570D1*
X978713Y1150479D1*
X1011991D1*
Y1138288D1*
X968495D1*
X931592Y1094126D1*
X912278Y1094148D1*
X1060454Y1192932D2*
X1034770Y1192909D1*
X1060595Y1151108D2*
X1034910Y1150985D1*
X1034470Y1206179D2*
X1060975Y1206123D1*
X1034570Y1138513D2*
X1055887Y1138457D1*
X1055726Y1138446D2*
X1093171Y1094092D1*
X1112625D1*
X1070572Y1142393D1*
X1060214Y1206112D2*
G02X1070612Y1142494I1218J-32459D01*
G01*
X1060414Y1192932D2*
G02X1060254Y1151086I-2607J-20913D01*
G01*
X1019323Y1093811D2*
Y1206145D1*
X1019424D2*
X1036072D1*
X1034730Y1192909D2*
Y1150940D1*
Y1138524D2*
Y1093721D1*
X1034590D2*
X1019363D1*
X474951Y487450D2*
D18*
X493701Y468699D1*
X512451Y487450D1*
X474951D1*
Y593699D2*
X512451D1*
X493701Y574951D1*
X474951Y593699D1*
X512451Y1124951D2*
X474951D1*
X493702Y1143699D1*
X512451Y1124951D1*
X842197Y1175157D2*
D54*
X840771Y1178009D1*
X837885Y1180894D1*
X835034Y1182320D1*
X829297D1*
X826412Y1180894D1*
X823560Y1178009D1*
X822101Y1175157D1*
X820675Y1170846D1*
Y1163650D1*
X822101Y1159372D1*
X823560Y1156487D1*
X826412Y1153635D1*
X829297Y1152176D1*
X835034D1*
X837885Y1153635D1*
X840771Y1156487D1*
X842197Y1159372D1*
X851460Y1176550D2*
X854345Y1178009D1*
X858656Y1182287D1*
Y1152176D1*
X660747Y581406D2*
X659321Y584258D1*
X656436Y587143D1*
X653584Y588569D1*
X647847D1*
X644962Y587143D1*
X642110Y584258D1*
X640651Y581406D1*
X639225Y577095D1*
Y569899D1*
X640651Y565621D1*
X642110Y562736D1*
X644962Y559884D1*
X647847Y558425D1*
X653584D1*
X656436Y559884D1*
X659321Y562736D1*
X660747Y565621D1*
X671469Y581373D2*
Y582799D1*
X672895Y585684D1*
X674321Y587110D1*
X677206Y588536D1*
X682943D1*
X685795Y587110D1*
X687221Y585684D1*
X688680Y582799D1*
Y579947D1*
X687221Y577062D1*
X684369Y572784D1*
X670010Y558425D1*
X690106D1*
X1016958Y474482D2*
X1029858D1*
X1034169Y475941D1*
X1035628Y477367D1*
X1037054Y480218D1*
Y483104D1*
X1035628Y485955D1*
X1034169Y487415D1*
X1029858Y488841D1*
X1016958D1*
Y458697D1*
X1027006Y474482D2*
X1037054Y458697D1*
X1046318Y483070D2*
X1049203Y484530D1*
X1053514Y488807D1*
Y458697D1*
X864938Y474482D2*
X877837D1*
X882149Y475941D1*
X883608Y477367D1*
X885034Y480218D1*
Y483104D1*
X883608Y485955D1*
X882149Y487415D1*
X877837Y488841D1*
X864938D1*
Y458697D1*
X874986Y474482D2*
X885034Y458697D1*
X895756Y481644D2*
Y483070D1*
X897182Y485955D1*
X898608Y487381D1*
X901493Y488807D1*
X907230D1*
X910082Y487381D1*
X911508Y485955D1*
X912967Y483070D1*
Y480218D1*
X911508Y477333D1*
X908656Y473056D1*
X894297Y458697D1*
X914393D1*
X1031941Y659598D2*
Y672498D1*
X1030482Y676809D1*
X1029056Y678268D1*
X1026204Y679694D1*
X1023319D1*
X1020467Y678268D1*
X1019008Y676809D1*
X1017582Y672498D1*
Y659598D1*
X1047726D1*
X1031941Y669646D2*
X1047726Y679694D1*
X1017615Y691842D2*
Y707594D1*
X1029089Y699005D1*
Y703316D1*
X1030515Y706168D1*
X1031941Y707594D1*
X1036252Y709053D1*
X1039104D1*
X1043415Y707594D1*
X1046300Y704742D1*
X1047726Y700431D1*
Y696120D1*
X1046300Y691842D1*
X1044841Y690416D1*
X1041989Y688957D1*
X1031941Y822296D2*
Y835195D1*
X1030482Y839506D1*
X1029056Y840966D1*
X1026204Y842392D1*
X1023319D1*
X1020467Y840966D1*
X1019008Y839507D1*
X1017582Y835195D1*
Y822296D1*
X1047726D1*
X1031941Y832344D2*
X1047726Y842392D1*
Y866014D2*
X1017615D1*
X1037678Y851655D1*
Y873177D1*
X758937Y838975D2*
Y817453D1*
X760363Y813142D1*
X763248Y810290D1*
X767559Y808831D1*
X770411D1*
X774722Y810290D1*
X777607Y813142D1*
X779033Y817453D1*
Y838975D1*
X788297Y833205D2*
X791182Y834664D1*
X795493Y838942D1*
Y808831D1*
X651753Y1187536D2*
X663227Y1173177D1*
Y1157392D1*
X674701Y1187536D2*
X663227Y1173177D1*
X683964Y1181766D2*
X686849Y1183225D1*
X691160Y1187503D1*
Y1157392D1*
X423043Y573071D2*
D56*
Y593167D1*
X415394Y573071D1*
X407745Y593167D1*
Y573071D1*
X429219Y593167D2*
Y573071D1*
X448792Y590293D2*
X446891Y592216D1*
X444017Y593167D1*
X440192D1*
X437318Y592216D1*
X435395Y590293D1*
Y588391D1*
X436367Y586468D1*
X437318Y585517D1*
X439219Y584567D1*
X444967Y582643D1*
X446891Y581693D1*
X447841Y580720D1*
X448792Y578819D1*
Y575945D1*
X446891Y574043D1*
X444017Y573071D1*
X440192D1*
X437318Y574043D1*
X435395Y575945D1*
X460716Y593167D2*
X458792Y592216D1*
X456891Y590293D1*
X455918Y588391D1*
X454968Y585517D1*
Y580720D1*
X455918Y577868D1*
X456891Y575945D1*
X458792Y574043D1*
X460716Y573071D1*
X464540D1*
X466442Y574043D1*
X468365Y575945D1*
X469316Y577868D1*
X470266Y580720D1*
Y585517D1*
X469316Y588391D1*
X468365Y590293D1*
X466442Y592216D1*
X464540Y593167D1*
X460716D1*
X428342Y482142D2*
X427391Y484043D1*
X425468Y485967D1*
X423567Y486917D1*
X419742D1*
X417819Y485967D1*
X415917Y484043D1*
X414945Y482142D1*
X413994Y479268D1*
Y474471D1*
X414945Y471619D1*
X415917Y469695D1*
X417819Y467794D1*
X419742Y466821D1*
X423567D1*
X425468Y467794D1*
X427391Y469695D1*
X428342Y471619D1*
Y474471D1*
X423567D1*
X447915Y486917D2*
Y466821D1*
X434518Y486917D1*
Y466821D1*
X454091Y486917D2*
Y466821D1*
X460789D1*
X463663Y467794D1*
X465587Y469695D1*
X466537Y471619D1*
X467488Y474471D1*
Y479268D1*
X466537Y482142D1*
X465587Y484043D1*
X463663Y485967D1*
X460789Y486917D1*
X454091D1*
X416345Y1141719D2*
Y1124497D1*
X407745Y1133097D2*
X424967D1*
X442616Y1143145D2*
X433066D1*
X432115Y1134545D1*
X433066Y1135495D1*
X435940Y1136468D1*
X438792D1*
X441666Y1135495D1*
X443589Y1133594D1*
X444540Y1130720D1*
Y1128819D1*
X443589Y1125945D1*
X441666Y1124021D1*
X438792Y1123071D1*
X435940D1*
X433066Y1124021D1*
X432115Y1124994D1*
X431142Y1126895D1*
X450715Y1143167D2*
X458365Y1123071D1*
X466014Y1143167D1*
X694206Y860571D2*
X686534Y880667D1*
X678885Y860571D1*
X681759Y867269D2*
X691332D1*
X707080Y880667D2*
Y860571D1*
X700382Y880667D2*
X713779D1*
X735253Y860571D2*
Y880667D1*
X727604Y860571D1*
X719955Y880667D1*
Y860571D1*
X753853Y880667D2*
X741429D1*
Y860571D1*
X753853D1*
X741429Y871094D2*
X749078D1*
X774377Y875891D2*
X773427Y877793D1*
X771503Y879716D1*
X769602Y880667D1*
X765777D1*
X763854Y879716D1*
X761953Y877793D1*
X760980Y875891D1*
X760029Y873017D1*
Y868220D1*
X760980Y865368D1*
X761953Y863445D1*
X763854Y861543D1*
X765777Y860571D1*
X769602D1*
X771503Y861543D1*
X773427Y863445D1*
X774377Y865368D1*
Y868220D1*
X769602D1*
X795874Y860571D2*
X788202Y880667D1*
X780553Y860571D1*
X783427Y867269D2*
X793000D1*
X803973Y880645D2*
X814474D1*
X808748Y872995D1*
X811622D1*
X813523Y872045D1*
X814474Y871094D1*
X815447Y868220D1*
Y866319D1*
X814474Y863445D1*
X812573Y861521D1*
X809699Y860571D1*
X806825D1*
X803973Y861521D1*
X803022Y862494D1*
X802049Y864395D1*
X822595Y875869D2*
Y876820D1*
X823546Y878743D1*
X824496Y879694D1*
X826420Y880645D1*
X830244D1*
X832146Y879694D1*
X833096Y878743D1*
X834069Y876820D1*
Y874919D1*
X833096Y872995D1*
X831195Y870143D1*
X821622Y860571D1*
X835020D1*
X845971Y880645D2*
X843119Y879694D1*
X842146Y877793D1*
Y875869D1*
X843119Y873968D1*
X845020Y872995D1*
X848845Y872045D1*
X851719Y871094D1*
X853620Y869171D1*
X854571Y867269D1*
Y864395D1*
X853620Y862494D1*
X852669Y861521D1*
X849795Y860571D1*
X845971D1*
X843119Y861521D1*
X842146Y862494D1*
X841195Y864395D1*
Y867269D1*
X842146Y869171D1*
X844069Y871094D1*
X846921Y872045D1*
X850746Y872995D1*
X852669Y873968D1*
X853620Y875869D1*
Y877793D1*
X852669Y879694D1*
X849795Y880645D1*
X845971D1*
X860746Y870143D2*
X869368D1*
X872220Y871094D1*
X873193Y872067D1*
X874144Y873968D1*
Y876842D1*
X873193Y878743D1*
X872220Y879716D1*
X869368Y880667D1*
X860746D1*
Y860571D1*
X910565Y1060573D2*
X902894Y1080669D1*
X895245Y1060573D1*
X898119Y1067272D2*
X907691D1*
X916741Y1071097D2*
X925341D1*
X928215Y1072069D1*
X929188Y1073020D1*
X930138Y1074921D1*
Y1076845D1*
X929188Y1078746D1*
X928215Y1079719D1*
X925341Y1080669D1*
X916741D1*
Y1060573D1*
X923440Y1071097D2*
X930138Y1060573D1*
X943013Y1080669D2*
Y1060573D1*
X936314Y1080669D2*
X949711D1*
X955887D2*
Y1060573D1*
X969285Y1080669D2*
Y1060573D1*
X955887Y1071097D2*
X969285D1*
X975460D2*
X984060D1*
X986934Y1072069D1*
X987907Y1073020D1*
X988858Y1074921D1*
Y1076845D1*
X987907Y1078746D1*
X986934Y1079719D1*
X984060Y1080669D1*
X975460D1*
Y1060573D1*
X982159Y1071097D2*
X988858Y1060573D1*
X995033Y1080669D2*
Y1060573D1*
X1016508D2*
Y1080669D1*
X1008858Y1060573D1*
X1001209Y1080669D1*
Y1060573D1*
X1022683Y1080669D2*
Y1066321D1*
X1023634Y1063447D1*
X1025557Y1061546D1*
X1028431Y1060573D1*
X1030333D1*
X1033207Y1061546D1*
X1035130Y1063447D1*
X1036081Y1066321D1*
Y1080669D1*
X1055654Y1077795D2*
X1053752Y1079719D1*
X1050878Y1080669D1*
X1047054D1*
X1044180Y1079719D1*
X1042256Y1077795D1*
Y1075894D1*
X1043229Y1073971D1*
X1044180Y1073020D1*
X1046081Y1072069D1*
X1051829Y1070146D1*
X1053752Y1069195D1*
X1054703Y1068223D1*
X1055654Y1066321D1*
Y1063447D1*
X1053752Y1061546D1*
X1050878Y1060573D1*
X1047054D1*
X1044180Y1061546D1*
X1042256Y1063447D1*
X1062780Y1062497D2*
X1061829Y1061524D1*
X1062780Y1060573D1*
X1063753Y1061524D1*
X1062780Y1062497D1*
X1084276Y1075894D2*
X1083326Y1077795D1*
X1081402Y1079719D1*
X1079501Y1080669D1*
X1075676D1*
X1073753Y1079719D1*
X1071852Y1077795D1*
X1070879Y1075894D1*
X1069928Y1073020D1*
Y1068223D1*
X1070879Y1065371D1*
X1071852Y1063447D1*
X1073753Y1061546D1*
X1075676Y1060573D1*
X1079501D1*
X1081402Y1061546D1*
X1083326Y1063447D1*
X1084276Y1065371D1*
X1096200Y1080669D2*
X1094277Y1079719D1*
X1092375Y1077795D1*
X1091403Y1075894D1*
X1090452Y1073020D1*
Y1068223D1*
X1091403Y1065371D1*
X1092375Y1063447D1*
X1094277Y1061546D1*
X1096200Y1060573D1*
X1100025D1*
X1101926Y1061546D1*
X1103849Y1063447D1*
X1104800Y1065371D1*
X1105751Y1068223D1*
Y1073020D1*
X1104800Y1075894D1*
X1103849Y1077795D1*
X1101926Y1079719D1*
X1100025Y1080669D1*
X1096200D1*
X1127225Y1060573D2*
Y1080669D1*
X1119576Y1060573D1*
X1111926Y1080669D1*
Y1060573D1*
X549951Y436321D2*
D55*
X552837Y437780D1*
X557148Y442058D1*
Y411947D1*
X544614Y1198308D2*
X540337Y1196882D1*
X538877Y1194030D1*
Y1191145D1*
X540337Y1188293D1*
X543188Y1186834D1*
X548925Y1185408D1*
X553236Y1183982D1*
X556088Y1181097D1*
X557514Y1178245D1*
Y1173934D1*
X556088Y1171083D1*
X554662Y1169623D1*
X550351Y1168197D1*
X544614D1*
X540337Y1169623D1*
X538877Y1171083D1*
X537451Y1173934D1*
Y1178245D1*
X538877Y1181097D1*
X541762Y1183982D1*
X546040Y1185408D1*
X551777Y1186834D1*
X554662Y1188293D1*
X556088Y1191145D1*
Y1194030D1*
X554662Y1196882D1*
X550351Y1198308D1*
X544614D1*
M02*
