M48
INCH
T01C0.0191
%
T01
X+011437Y+008062
X+011437Y+007249
X+007437Y+010499
X+008625Y+010687
X+007187Y+011437
X+009562Y+008374
X+005687Y+004249
X+008500Y+004874
X+007658Y+009120
X+009500Y+010624
X+008625Y+005937
X+007658Y+008005
X+006518Y+010244
X+006518Y+005869
X+006893Y+005340
X+006893Y+006244
X+007625Y+007437
X+008033Y+008380
X+009562Y+009062
X+006518Y+010790
X+010178Y+010218
X+010187Y+005062
X+011562Y+005687
X+010545Y+006226
X+009535Y+007760
X+011500Y+010413
T00
M30
