G04 DipTrace 3.3.1.1*
G04 BottomSilk.gbo*
%MOIN*%
G04 #@! TF.FileFunction,Legend,Bot*
G04 #@! TF.Part,Single*
%ADD18C,0.004*%
%ADD19C,0.005118*%
%ADD54C,0.004632*%
%ADD55C,0.003281*%
%ADD56C,0.003088*%
%ADD57C,0.002187*%
%FSLAX26Y26*%
G04*
G70*
G90*
G75*
G01*
G04 BotSilk*
%LPD*%
X402703Y649950D2*
D18*
X440201D1*
X421453Y631201D1*
X402703Y649950D1*
X399953Y756199D2*
X437450D1*
X418702Y737451D1*
X399953Y756199D1*
X402703Y543701D2*
X440201D1*
X421453Y524951D1*
X402703Y543701D1*
X987451Y1156201D2*
D19*
X1031201D1*
Y456201D1*
X987451D1*
Y1156201D1*
X944751Y912436D2*
D54*
Y889489D1*
X946177Y885178D1*
X947636Y883752D1*
X950488Y882292D1*
X953373D1*
X956225Y883752D1*
X957651Y885178D1*
X959110Y889489D1*
Y892340D1*
X935488Y906666D2*
X932602Y908125D1*
X928291Y912403D1*
Y882292D1*
X803541Y988146D2*
X806393Y991032D1*
X810704Y992457D1*
X816441D1*
X820752Y991032D1*
X823637Y988146D1*
Y985295D1*
X822178Y982409D1*
X820752Y980984D1*
X817900Y979558D1*
X809278Y976672D1*
X806393Y975247D1*
X804967Y973787D1*
X803541Y970936D1*
Y966624D1*
X806393Y963773D1*
X810704Y962313D1*
X816441D1*
X820752Y963773D1*
X823637Y966624D1*
X794278Y992457D2*
X787082Y962313D1*
X779919Y992457D1*
X772756Y962313D1*
X765560Y992457D1*
X756296Y986687D2*
X753411Y988146D1*
X749100Y992424D1*
Y962313D1*
X936886Y1128380D2*
Y1158524D1*
X947213Y1128380D1*
X957539Y1158524D1*
Y1128380D1*
X928549Y1148476D2*
Y1134117D1*
X927266Y1129839D1*
X924669Y1128380D1*
X920789D1*
X918222Y1129839D1*
X914342Y1134117D1*
Y1148476D2*
Y1128380D1*
X906005Y1158524D2*
Y1128380D1*
X893788Y1158524D2*
Y1134117D1*
X892505Y1129839D1*
X889908Y1128380D1*
X887342D1*
X897668Y1148476D2*
X888625D1*
X879004Y1158524D2*
X877721Y1157098D1*
X876408Y1158524D1*
X877721Y1159983D1*
X879004Y1158524D1*
X877721Y1148476D2*
Y1128380D1*
X841826Y1142739D2*
X830186D1*
X826336Y1144165D1*
X825023Y1145624D1*
X823740Y1148476D1*
Y1152787D1*
X825023Y1155639D1*
X826336Y1157098D1*
X830186Y1158524D1*
X841826D1*
Y1128380D1*
X799913Y1148476D2*
Y1128380D1*
Y1144165D2*
X802479Y1147050D1*
X805076Y1148476D1*
X808926D1*
X811523Y1147050D1*
X814089Y1144165D1*
X815402Y1139854D1*
Y1137002D1*
X814089Y1132691D1*
X811523Y1129839D1*
X808926Y1128380D1*
X805076D1*
X802479Y1129839D1*
X799913Y1132691D1*
X776086Y1158524D2*
Y1128380D1*
Y1144165D2*
X778652Y1147050D1*
X781249Y1148476D1*
X785129D1*
X787696Y1147050D1*
X790292Y1144165D1*
X791575Y1139854D1*
Y1137002D1*
X790292Y1132691D1*
X787696Y1129839D1*
X785129Y1128380D1*
X781249D1*
X778652Y1129839D1*
X776086Y1132691D1*
X720821Y1128380D2*
X731177Y1158524D1*
X741504Y1128380D1*
X737624Y1138428D2*
X724701D1*
X696994Y1158524D2*
Y1128380D1*
Y1144165D2*
X699561Y1147050D1*
X702157Y1148476D1*
X706037D1*
X708604Y1147050D1*
X711200Y1144165D1*
X712484Y1139854D1*
Y1137002D1*
X711200Y1132691D1*
X708604Y1129839D1*
X706037Y1128380D1*
X702157D1*
X699561Y1129839D1*
X696994Y1132691D1*
X673167Y1148476D2*
Y1128380D1*
Y1144165D2*
X675734Y1147050D1*
X678330Y1148476D1*
X682180D1*
X684777Y1147050D1*
X687343Y1144165D1*
X688657Y1139854D1*
Y1137002D1*
X687343Y1132691D1*
X684777Y1129839D1*
X682180Y1128380D1*
X678330D1*
X675734Y1129839D1*
X673167Y1132691D1*
X664830Y1148476D2*
Y1118332D1*
Y1144165D2*
X662233Y1147017D1*
X659666Y1148476D1*
X655786D1*
X653190Y1147017D1*
X650623Y1144165D1*
X649310Y1139854D1*
Y1136969D1*
X650623Y1132691D1*
X653190Y1129806D1*
X655786Y1128380D1*
X659666D1*
X662233Y1129806D1*
X664830Y1132691D1*
X637093Y1158524D2*
Y1134117D1*
X635810Y1129839D1*
X633213Y1128380D1*
X630646D1*
X640973Y1148476D2*
X631930D1*
X622309Y1139854D2*
X606819D1*
Y1142739D1*
X608103Y1145624D1*
X609386Y1147050D1*
X611982Y1148476D1*
X615862D1*
X618429Y1147050D1*
X621026Y1144165D1*
X622309Y1139854D1*
Y1137002D1*
X621026Y1132691D1*
X618429Y1129839D1*
X615862Y1128380D1*
X611982D1*
X609386Y1129839D1*
X606819Y1132691D1*
X598482Y1148476D2*
Y1128380D1*
Y1139854D2*
X597169Y1144165D1*
X594602Y1147050D1*
X592006Y1148476D1*
X588126D1*
X1100898Y436321D2*
D55*
X1098013Y437780D1*
X1093702Y442058D1*
Y411947D1*
X839799Y1114775D2*
D54*
X828325Y1084631D1*
X816851Y1114775D1*
X798966Y1114742D2*
X803277Y1113316D1*
X806162Y1109005D1*
X807588Y1101842D1*
Y1097531D1*
X806162Y1090368D1*
X803277Y1086057D1*
X798966Y1084631D1*
X796114D1*
X791803Y1086057D1*
X788951Y1090368D1*
X787492Y1097531D1*
Y1101842D1*
X788951Y1109005D1*
X791803Y1113316D1*
X796114Y1114742D1*
X798966D1*
X788951Y1109005D2*
X806162Y1090368D1*
X776802Y1087516D2*
X778228Y1086057D1*
X776802Y1084631D1*
X775343Y1086057D1*
X776802Y1087516D1*
X758917Y1114742D2*
X763194Y1113316D1*
X764654Y1110464D1*
Y1107579D1*
X763194Y1104727D1*
X760343Y1103268D1*
X754606Y1101842D1*
X750295Y1100416D1*
X747443Y1097531D1*
X746017Y1094679D1*
Y1090368D1*
X747443Y1087516D1*
X748869Y1086057D1*
X753180Y1084631D1*
X758917D1*
X763194Y1086057D1*
X764654Y1087516D1*
X766080Y1090368D1*
Y1094679D1*
X764654Y1097531D1*
X761768Y1100416D1*
X757491Y1101842D1*
X751754Y1103268D1*
X748869Y1104727D1*
X747443Y1107579D1*
Y1110464D1*
X748869Y1113316D1*
X753180Y1114742D1*
X758917D1*
X943729Y422131D2*
X955236Y452275D1*
X966710Y422131D1*
X962399Y432179D2*
X948040D1*
X934466Y442227D2*
Y422131D1*
Y433605D2*
X933007Y437916D1*
X930155Y440801D1*
X927270Y442227D1*
X922959D1*
X909384Y452275D2*
Y427868D1*
X907958Y423590D1*
X905073Y422131D1*
X902221D1*
X913695Y442227D2*
X903647D1*
X892958Y452275D2*
Y422131D1*
Y436490D2*
X888647Y440801D1*
X885761Y442227D1*
X881450D1*
X878599Y440801D1*
X877173Y436490D1*
Y422131D1*
X867909Y442227D2*
Y422131D1*
Y433605D2*
X866450Y437916D1*
X863598Y440801D1*
X860713Y442227D1*
X856402D1*
X847138Y452275D2*
X845712Y450849D1*
X844253Y452275D1*
X845712Y453734D1*
X847138Y452275D1*
X845712Y442227D2*
Y422131D1*
X834990Y442227D2*
Y422131D1*
Y436490D2*
X830679Y440801D1*
X827794Y442227D1*
X823516D1*
X820631Y440801D1*
X819205Y436490D1*
Y422131D1*
Y436490D2*
X814894Y440801D1*
X812009Y442227D1*
X807731D1*
X804846Y440801D1*
X803387Y436490D1*
Y422131D1*
X794123Y442227D2*
Y427868D1*
X792697Y423590D1*
X789812Y422131D1*
X785501D1*
X782649Y423590D1*
X778338Y427868D1*
Y442227D2*
Y422131D1*
X753290Y437916D2*
X754716Y440801D1*
X759027Y442227D1*
X763338D1*
X767649Y440801D1*
X769075Y437916D1*
X767649Y435064D1*
X764764Y433605D1*
X757601Y432179D1*
X754716Y430753D1*
X753290Y427868D1*
Y426442D1*
X754716Y423590D1*
X759027Y422131D1*
X763338D1*
X767649Y423590D1*
X769075Y426442D1*
X713406Y445079D2*
Y446505D1*
X711980Y449390D1*
X710554Y450816D1*
X707669Y452242D1*
X701932D1*
X699080Y450816D1*
X697655Y449390D1*
X696195Y446505D1*
Y443653D1*
X697655Y440768D1*
X700506Y436490D1*
X714865Y422131D1*
X694769D1*
X676884Y452242D2*
X681195Y450816D1*
X684080Y446505D1*
X685506Y439342D1*
Y435031D1*
X684080Y427868D1*
X681195Y423557D1*
X676884Y422131D1*
X674032D1*
X669721Y423557D1*
X666869Y427868D1*
X665410Y435031D1*
Y439342D1*
X666869Y446505D1*
X669721Y450816D1*
X674032Y452242D1*
X676884D1*
X666869Y446505D2*
X684080Y427868D1*
X656146Y446505D2*
X653261Y447964D1*
X648950Y452242D1*
Y422131D1*
X621017Y442227D2*
X622476Y437916D1*
X625328Y435031D1*
X629639Y433605D1*
X631065D1*
X635376Y435031D1*
X638228Y437916D1*
X639687Y442227D1*
Y443653D1*
X638228Y447964D1*
X635376Y450816D1*
X631065Y452242D1*
X629639D1*
X625328Y450816D1*
X622476Y447964D1*
X621017Y442227D1*
Y435031D1*
X622476Y427868D1*
X625328Y423557D1*
X629639Y422131D1*
X632491D1*
X636802Y423557D1*
X638228Y426442D1*
X492468Y735571D2*
D56*
Y755667D1*
X500117Y735571D1*
X507766Y755667D1*
Y735571D1*
X480544Y755667D2*
X482467Y754716D1*
X484369Y752793D1*
X485341Y750891D1*
X486292Y748017D1*
Y743220D1*
X485341Y740368D1*
X484369Y738445D1*
X482467Y736543D1*
X480544Y735571D1*
X476719D1*
X474818Y736543D1*
X472895Y738445D1*
X471944Y740368D1*
X470993Y743220D1*
Y748017D1*
X471944Y750891D1*
X472895Y752793D1*
X474818Y754716D1*
X476719Y755667D1*
X480544D1*
X451420Y752793D2*
X453322Y754716D1*
X456196Y755667D1*
X460020D1*
X462894Y754716D1*
X464818Y752793D1*
Y750891D1*
X463845Y748968D1*
X462894Y748017D1*
X460993Y747067D1*
X455245Y745143D1*
X453322Y744193D1*
X452371Y743220D1*
X451420Y741319D1*
Y738445D1*
X453322Y736543D1*
X456196Y735571D1*
X460020D1*
X462894Y736543D1*
X464818Y738445D1*
X445245Y755667D2*
Y735571D1*
X490481Y646543D2*
X492382Y648467D1*
X495256Y649417D1*
X499080D1*
X501954Y648467D1*
X503878Y646543D1*
Y644642D1*
X502905Y642719D1*
X501954Y641768D1*
X500053Y640817D1*
X494305Y638894D1*
X492382Y637943D1*
X491431Y636971D1*
X490481Y635069D1*
Y632195D1*
X492382Y630294D1*
X495256Y629321D1*
X499080D1*
X501954Y630294D1*
X503878Y632195D1*
X469957Y644642D2*
X470907Y646543D1*
X472831Y648467D1*
X474732Y649417D1*
X478557D1*
X480480Y648467D1*
X482381Y646543D1*
X483354Y644642D1*
X484305Y641768D1*
Y636971D1*
X483354Y634119D1*
X482381Y632195D1*
X480480Y630294D1*
X478557Y629321D1*
X474732D1*
X472831Y630294D1*
X470907Y632195D1*
X469957Y634119D1*
X463781Y649417D2*
Y629321D1*
X450384Y649417D2*
X463781Y636020D1*
X459006Y640817D2*
X450384Y629321D1*
X1081202Y1188292D2*
D55*
X1082661Y1183981D1*
X1085513Y1181096D1*
X1089824Y1179670D1*
X1091250D1*
X1095561Y1181096D1*
X1098413Y1183981D1*
X1099872Y1188292D1*
Y1189718D1*
X1098413Y1194029D1*
X1095561Y1196881D1*
X1091250Y1198307D1*
X1089824D1*
X1085513Y1196881D1*
X1082661Y1194029D1*
X1081202Y1188292D1*
Y1181096D1*
X1082661Y1173933D1*
X1085513Y1169622D1*
X1089824Y1168196D1*
X1092676D1*
X1096987Y1169622D1*
X1098413Y1172507D1*
X524951Y488292D2*
X526411Y483981D1*
X529262Y481096D1*
X533573Y479670D1*
X534999D1*
X539310Y481096D1*
X542162Y483981D1*
X543621Y488292D1*
Y489718D1*
X542162Y494029D1*
X539310Y496881D1*
X534999Y498307D1*
X533573D1*
X529262Y496881D1*
X526411Y494029D1*
X524951Y488292D1*
Y481096D1*
X526411Y473933D1*
X529262Y469622D1*
X533573Y468196D1*
X536425D1*
X540736Y469622D1*
X542162Y472507D1*
X552555Y1142571D2*
X549669Y1144030D1*
X545358Y1148308D1*
Y1118197D1*
X521586Y1148308D2*
X535912D1*
X537338Y1135408D1*
X535912Y1136834D1*
X531601Y1138293D1*
X527323D1*
X523012Y1136834D1*
X520127Y1133982D1*
X518701Y1129671D1*
Y1126820D1*
X520127Y1122508D1*
X523012Y1119623D1*
X527323Y1118197D1*
X531601D1*
X535912Y1119623D1*
X537338Y1121083D1*
X538797Y1123934D1*
X504039Y533594D2*
D56*
X495439D1*
X492565Y534567D1*
X491592Y535517D1*
X490641Y537419D1*
Y539342D1*
X491592Y541243D1*
X492565Y542216D1*
X495439Y543167D1*
X504039D1*
Y523071D1*
X497340Y533594D2*
X490641Y523071D1*
X471068Y540293D2*
X472970Y542216D1*
X475844Y543167D1*
X479668D1*
X482542Y542216D1*
X484466Y540293D1*
Y538391D1*
X483493Y536468D1*
X482542Y535517D1*
X480641Y534567D1*
X474893Y532643D1*
X472970Y531693D1*
X472019Y530720D1*
X471068Y528819D1*
Y525945D1*
X472970Y524043D1*
X475844Y523071D1*
X479668D1*
X482542Y524043D1*
X484466Y525945D1*
X458194Y543167D2*
Y523071D1*
X464893Y543167D2*
X451495D1*
X999951Y1047428D2*
D54*
X1001377Y1050280D1*
X1004262Y1053165D1*
X1007114Y1054591D1*
X1012851D1*
X1015736Y1053165D1*
X1018588Y1050280D1*
X1020047Y1047428D1*
X1021473Y1043117D1*
Y1035921D1*
X1020047Y1031643D1*
X1018588Y1028758D1*
X1015736Y1025906D1*
X1012851Y1024447D1*
X1007114D1*
X1004262Y1025906D1*
X1001377Y1028758D1*
X999951Y1031643D1*
Y979591D2*
X1018621D1*
Y949447D1*
Y965232D2*
X1007147D1*
X999951Y823342D2*
X1018588D1*
Y793198D1*
X999951D1*
X1018588Y808983D2*
X1007114D1*
X1020047Y742091D2*
Y711947D1*
X1009999D1*
X1005688Y713406D1*
X1002803Y716258D1*
X1001377Y719143D1*
X999951Y723421D1*
Y730617D1*
X1001377Y734928D1*
X1002803Y737780D1*
X1005688Y740665D1*
X1009999Y742091D1*
X1020047D1*
X999951Y630698D2*
X1011458Y660842D1*
X1022932Y630698D1*
X1018621Y640746D2*
X1004262D1*
X1020047Y579591D2*
Y549447D1*
X1007114D1*
X1002803Y550906D1*
X1001377Y552332D1*
X999951Y555184D1*
Y559495D1*
X1001377Y562380D1*
X1002803Y563806D1*
X1007114Y565232D1*
X1002803Y566691D1*
X1001377Y568117D1*
X999951Y570969D1*
Y573854D1*
X1001377Y576706D1*
X1002803Y578165D1*
X1007114Y579591D1*
X1020047D1*
Y565232D2*
X1007114D1*
X999951Y1134928D2*
X1001377Y1137780D1*
X1004262Y1140665D1*
X1007114Y1142091D1*
X1012851D1*
X1015736Y1140665D1*
X1018588Y1137780D1*
X1020047Y1134928D1*
X1021473Y1130617D1*
Y1123421D1*
X1020047Y1119143D1*
X1018588Y1116258D1*
X1015736Y1113406D1*
X1012851Y1111947D1*
X1007114D1*
X1004262Y1113406D1*
X1001377Y1116258D1*
X999951Y1119143D1*
Y1123421D1*
X1007114D1*
X1022899Y498342D2*
X1011425Y468198D1*
X999951Y498342D1*
X1011645Y899868D2*
D57*
Y879772D1*
X1023702Y899868D1*
Y879772D1*
X994794Y895092D2*
X995650Y896994D1*
X997381Y898917D1*
X999092Y899868D1*
X1002534D1*
X1004265Y898917D1*
X1005977Y896994D1*
X1006852Y895092D1*
X1007708Y892218D1*
Y887421D1*
X1006852Y884569D1*
X1005977Y882646D1*
X1004265Y880744D1*
X1002534Y879772D1*
X999092D1*
X997381Y880744D1*
X995650Y882646D1*
X994794Y884569D1*
M02*
