G04 DipTrace 3.3.1.1*
G04 Bottom.gbl*
%MOIN*%
G04 #@! TF.FileFunction,Copper,L2,Bot*
G04 #@! TF.Part,Single*
G04 #@! TA.AperFunction,Conductor*
%ADD13C,0.008*%
%ADD14C,0.017*%
G04 #@! TA.AperFunction,CopperBalancing*
%ADD16C,0.025*%
%ADD17C,0.012992*%
%ADD21R,0.05X0.05*%
%ADD22R,0.11811X0.0545*%
%ADD24R,0.055118X0.109646*%
%ADD28R,0.07874X0.055*%
G04 #@! TA.AperFunction,ViaPad*
%ADD31C,0.04*%
%FSLAX26Y26*%
G04*
G70*
G90*
G75*
G01*
G04 Bottom*
%LPD*%
X531201Y424950D2*
D14*
X556202D1*
X558702Y427450D1*
X584201D1*
X750451Y593701D1*
X774951D1*
X799951Y743701D2*
Y756201D1*
X674951Y1056201D2*
X687451D1*
X806201Y1174950D1*
X697786Y716535D2*
Y739615D1*
X687451Y749950D1*
X1093701Y1124950D2*
X1024950D1*
X531201Y806201D2*
D13*
Y806396D1*
X456345D1*
Y1024396D2*
X531201D1*
Y1024950D1*
X616701Y586701D2*
X615005Y588396D1*
X456345D1*
X531201Y699950D2*
Y697396D1*
X489951D1*
X531201Y699950D2*
X458899D1*
X456345Y697396D1*
X531201Y912450D2*
Y915396D1*
X456345D1*
X531201Y912450D2*
X459291D1*
X456345Y915396D1*
X531201Y1081201D2*
X543701D1*
X643701Y981201D1*
X812451D1*
X843701Y1012450D1*
X931201D1*
X456345Y1133396D2*
X529005D1*
X656201Y1006201D1*
X793701D1*
X837451Y1049950D1*
X956201D1*
X974951Y1031201D1*
Y974950D1*
X1093701Y484950D2*
D14*
Y481201D1*
X987450D1*
X968701Y499950D1*
X962451D1*
Y506201D1*
X1093701Y564950D2*
D13*
Y568701D1*
X899951D1*
X949951Y606201D2*
X987451Y643701D1*
X1093701D1*
Y644950D1*
X1043701Y962450D2*
X1093701D1*
Y964950D1*
Y1044950D2*
Y1043701D1*
X1043701D1*
Y724950D2*
X1093701D1*
X1043701Y806201D2*
X1093701D1*
Y804950D1*
X868701Y912450D2*
Y899951D1*
X874951Y893701D1*
X856201Y899950D2*
X868701Y912450D1*
X874951Y716535D2*
Y731199D1*
X824951Y781201D1*
Y806201D1*
Y831201D1*
X887451Y893701D1*
X874951D1*
X574951Y643701D2*
Y668702D1*
X612450Y706201D1*
Y781199D1*
X637451Y806201D1*
X824951D1*
X874951D2*
X899950D1*
X918701Y787450D1*
X943701D1*
Y781201D1*
X456345Y479396D2*
X604399D1*
X649951Y524949D1*
Y606199D1*
X631201Y624950D1*
X606201D1*
X587451Y606201D1*
X556201D1*
X537450Y624951D1*
Y656199D1*
X593701Y712450D1*
Y918699D1*
X637451Y962450D1*
X912451D1*
X943701Y931201D1*
Y843503D1*
D31*
X799951Y743701D3*
X1043701Y806201D3*
Y724950D3*
X687451Y749950D3*
X806201Y1174950D3*
X874951Y806201D3*
X531201Y424950D3*
X987451Y1106201D3*
X931201Y1174950D3*
X868701Y912450D3*
X574951Y643701D3*
X531201Y912450D3*
Y806201D3*
Y699950D3*
X674951Y1056201D3*
X681201Y468701D3*
X793701D3*
X774951Y593701D3*
X531201Y1024950D3*
X616701Y586701D3*
X931201Y1012450D3*
X531201Y1081201D3*
X974951Y974950D3*
X962451Y506201D3*
X899951Y568701D3*
X949951Y606201D3*
X1043701Y962450D3*
Y1043701D3*
X787451Y887450D3*
X541404Y1162581D2*
D16*
X1028341D1*
X566093Y1137713D2*
X1028341D1*
X590961Y1112844D2*
X1028341D1*
X615828Y1087975D2*
X1028341D1*
X640697Y1063106D2*
X809232D1*
X984430D2*
X1002253D1*
X665564Y1038238D2*
X784365D1*
X630290Y913894D2*
X644236D1*
X751364D2*
X821396D1*
X973702D2*
X1028341D1*
X623688Y889025D2*
X644236D1*
X751364D2*
X821396D1*
X994694D2*
X1028341D1*
X623688Y864156D2*
X644236D1*
X751364D2*
X816517D1*
X994694D2*
X1028341D1*
X623688Y839287D2*
X644236D1*
X751364D2*
X796171D1*
X994694D2*
X1012946D1*
X751364Y764681D2*
X800476D1*
X994694D2*
X1023496D1*
X751364Y739812D2*
X821396D1*
X751364Y714944D2*
X821396D1*
X928524D2*
X998881D1*
X751364Y690075D2*
X821396D1*
X928524D2*
X1015207D1*
X615255Y665206D2*
X644236D1*
X751364D2*
X821396D1*
X928524D2*
X967804D1*
X751364Y640337D2*
X821396D1*
X678339Y615469D2*
X904936D1*
X679954Y590600D2*
X859865D1*
X679954Y565731D2*
X854051D1*
X679954Y540862D2*
X864028D1*
X678446Y515993D2*
X917567D1*
X657526Y491125D2*
X919146D1*
X632659Y466256D2*
X942722D1*
X541404Y441387D2*
X1028341D1*
X992201Y795001D2*
Y732701D1*
X925995D1*
X926010Y642530D1*
X930203Y644959D1*
X936509Y647572D1*
X943147Y649165D1*
X949951Y649701D1*
X954306Y649455D1*
X969592Y664612D1*
X973083Y667148D1*
X976928Y669108D1*
X981031Y670441D1*
X985294Y671115D1*
X1030836Y671201D1*
X1030831Y683387D1*
X1023953Y686192D1*
X1018133Y689759D1*
X1012942Y694192D1*
X1008509Y699382D1*
X1004942Y705202D1*
X1002329Y711508D1*
X1000736Y718146D1*
X1000201Y724950D1*
X1000736Y731755D1*
X1002329Y738392D1*
X1004942Y744698D1*
X1008509Y750518D1*
X1012942Y755709D1*
X1018133Y760142D1*
X1023953Y763709D1*
X1028193Y765559D1*
X1023953Y767442D1*
X1018133Y771009D1*
X1012942Y775442D1*
X1008509Y780633D1*
X1004942Y786453D1*
X1002329Y792759D1*
X1000736Y799396D1*
X1000201Y806201D1*
X1000736Y813005D1*
X1002329Y819643D1*
X1004942Y825949D1*
X1008509Y831769D1*
X1012942Y836959D1*
X1018133Y841392D1*
X1023953Y844959D1*
X1030836Y847735D1*
X1030831Y920875D1*
X1023953Y923692D1*
X1018133Y927259D1*
X1012942Y931692D1*
X1008509Y936882D1*
X1004702Y943223D1*
X1000520Y939759D1*
X994699Y936192D1*
X988394Y933579D1*
X981756Y931986D1*
X974951Y931450D1*
X971207Y931623D1*
X971201Y891979D1*
X992201Y892003D1*
X992165Y795003D1*
X538900Y451883D2*
Y428646D1*
X537429D1*
X537451Y424959D1*
X1118727Y424950D1*
X1118701Y433945D1*
X1030831Y433950D1*
Y449201D1*
X984940Y449299D1*
X979980Y450085D1*
X975205Y451636D1*
X970730Y453916D1*
X966668Y456867D1*
X960636Y462760D1*
X955647Y463236D1*
X949009Y464829D1*
X942703Y467442D1*
X936883Y471009D1*
X931693Y475442D1*
X927260Y480633D1*
X923693Y486453D1*
X921080Y492759D1*
X919487Y499396D1*
X918951Y506201D1*
X919487Y513005D1*
X921080Y519643D1*
X923693Y525949D1*
X927260Y531769D1*
X931693Y536959D1*
X936642Y541203D1*
X933029Y540450D1*
X928202Y535623D1*
X922680Y531612D1*
X916598Y528512D1*
X910106Y526403D1*
X903365Y525335D1*
X896538D1*
X889797Y526403D1*
X883304Y528512D1*
X877223Y531612D1*
X871701Y535623D1*
X866874Y540450D1*
X862862Y545972D1*
X859762Y552054D1*
X857654Y558546D1*
X856585Y565287D1*
Y572114D1*
X857654Y578856D1*
X859762Y585348D1*
X862862Y591429D1*
X866874Y596951D1*
X871701Y601778D1*
X877223Y605790D1*
X883304Y608890D1*
X889797Y610999D1*
X896538Y612067D1*
X903365D1*
X906795Y611657D1*
X907654Y616356D1*
X909762Y622848D1*
X912862Y628929D1*
X916874Y634451D1*
X920554Y638219D1*
X823892Y638213D1*
Y743388D1*
X804039Y763340D1*
X801503Y766832D1*
X799545Y770676D1*
X798210Y774781D1*
X797392Y778701D1*
X748840D1*
X748845Y638213D1*
X656831D1*
X670862Y624059D1*
X673399Y620568D1*
X675358Y616723D1*
X676692Y612619D1*
X677366Y608357D1*
X677451Y524949D1*
X677113Y520647D1*
X676105Y516451D1*
X674454Y512465D1*
X672199Y508785D1*
X669391Y505497D1*
X622259Y458486D1*
X618768Y455949D1*
X614923Y453990D1*
X610819Y452656D1*
X606556Y451980D1*
X538911Y451896D1*
X537469Y1184146D2*
X538900D1*
Y1159063D1*
X543374Y1156844D1*
X546865Y1154307D1*
X619904Y1081388D1*
X667581Y1033711D1*
X782333Y1033701D1*
X819592Y1070861D1*
X823083Y1073398D1*
X826928Y1075357D1*
X831031Y1076690D1*
X835294Y1077365D1*
X938501Y1077450D1*
X958357Y1077365D1*
X962619Y1076690D1*
X966723Y1075357D1*
X970568Y1073398D1*
X974060Y1070862D1*
X995862Y1049060D1*
X998399Y1045570D1*
X999458Y1043678D1*
X1000201Y1043701D1*
X1000736Y1050505D1*
X1002329Y1057143D1*
X1004942Y1063449D1*
X1008509Y1069269D1*
X1012942Y1074459D1*
X1018133Y1078892D1*
X1023953Y1082459D1*
X1030836Y1085235D1*
X1030831Y1175950D1*
X1118697D1*
X1118701Y1187441D1*
X537425Y1187450D1*
X611856Y666707D2*
X615140Y660348D1*
X617249Y653856D1*
X617528Y652455D1*
X633358Y652365D1*
X637621Y651690D1*
X641724Y650357D1*
X645576Y648394D1*
X646727Y649236D1*
Y776589D1*
X639972Y769831D1*
X639865Y704043D1*
X639190Y699781D1*
X637857Y695677D1*
X635898Y691832D1*
X633361Y688341D1*
X611875Y666735D1*
X823892Y869025D2*
Y934980D1*
X748856Y934950D1*
X748845Y833705D1*
X797530Y833701D1*
X798797Y839698D1*
X800448Y843685D1*
X802703Y847365D1*
X805505Y850646D1*
X823902Y869042D1*
X646727Y833701D2*
Y932841D1*
X621196Y907303D1*
X621286Y828449D1*
X624966Y830703D1*
X628953Y832354D1*
X633148Y833362D1*
X637451Y833701D1*
X646745D1*
X1002458Y1008614D2*
X1005710Y1005709D1*
X1010143Y1000518D1*
X1013950Y994177D1*
X1018133Y997642D1*
X1023953Y1001209D1*
X1028193Y1003059D1*
X1023953Y1004942D1*
X1018133Y1008509D1*
X1012942Y1012942D1*
X1008509Y1018133D1*
X1004942Y1023953D1*
X1002454Y1029920D1*
X1002451Y1008630D1*
X697786Y716535D2*
D17*
Y638248D1*
X646762Y716535D2*
X748810D1*
X646762Y893701D2*
X748810D1*
X1093701Y1175913D2*
Y1124950D1*
X1030867D2*
X1093701D1*
D21*
X943701Y781201D3*
Y843503D3*
D22*
X456345Y479396D3*
Y588396D3*
Y697396D3*
Y806396D3*
Y915396D3*
Y1024396D3*
Y1133396D3*
D24*
X874951Y893701D3*
Y716535D3*
X697786D3*
Y893701D3*
D28*
X1093701Y1124950D3*
Y1044950D3*
Y964950D3*
Y884950D3*
Y804950D3*
Y724950D3*
Y644950D3*
Y564950D3*
Y484950D3*
M02*
