M48
INCH
T01C0.0191
%
T01
X+010437Y+008062
X+010437Y+007250
X+006875Y+007500
X+008062Y+011750
X+008750Y+008062
X+005312Y+004250
X+009875Y+011062
X+009312Y+011750
X+008687Y+009125
X+005750Y+006437
X+005312Y+009125
X+005312Y+008062
X+005312Y+007000
X+006750Y+010562
X+006812Y+004687
X+007937Y+004687
X+007750Y+005937
X+005312Y+010250
X+006167Y+005867
X+009312Y+010125
X+005312Y+010812
X+009750Y+009750
X+009625Y+005062
X+009000Y+005687
X+009500Y+006062
X+010437Y+009625
X+010437Y+010437
X+007875Y+008875
X+008000Y+007437
T00
M30
