G04 DipTrace 3.3.1.1*
G04 Bottom.gbl*
%MOIN*%
G04 #@! TF.FileFunction,Copper,L2,Bot*
G04 #@! TF.Part,Single*
G04 #@! TA.AperFunction,Conductor*
%ADD13C,0.008*%
%ADD14C,0.017*%
G04 #@! TA.AperFunction,CopperBalancing*
%ADD15C,0.025*%
%ADD16C,0.013*%
%ADD17R,0.2X0.0545*%
%ADD23R,0.125X0.055*%
G04 #@! TA.AperFunction,ViaPad*
%ADD25C,0.04*%
%FSLAX26Y26*%
G04*
G70*
G90*
G75*
G01*
G04 Bottom*
%LPD*%
X949950Y1062450D2*
D13*
Y1049950D1*
X887450Y987450D1*
X837450D1*
X761960Y911960D1*
X765818D1*
X743700Y1049949D2*
Y1137449D1*
X718700Y1162449D1*
X896527Y553629D2*
D14*
X816594Y473696D1*
X720302D1*
X1162451Y1118700D2*
Y1124950D1*
X899950D1*
X862450Y1087450D1*
X765818Y800503D2*
D13*
X759926Y806396D1*
X500095D1*
Y1024396D2*
X651838D1*
Y1024397D1*
Y586944D2*
X650386Y588396D1*
X500095D1*
X689310Y624417D2*
Y533952D1*
X762451Y743700D2*
X716146Y697396D1*
X500095D1*
X803291Y837976D2*
X656830D1*
X635838Y858968D1*
Y915396D1*
X500095D1*
X651838Y1078952D2*
X645948D1*
X687450Y1037450D1*
Y931200D1*
X743682Y874968D1*
X953452D1*
X1017787Y1021798D2*
Y1018700D1*
X500095Y1133396D2*
X660254D1*
X706200Y1087450D1*
Y1031200D1*
X718700Y1018700D1*
X881200D1*
X912450Y1049950D1*
Y1081200D1*
X931200Y1099950D1*
X968700D1*
X1017787Y1050863D1*
Y1021798D1*
X1162451Y499144D2*
X1149951D1*
X1162451Y576588D2*
X1149951D1*
X1054456Y622645D2*
Y634033D1*
X1074456Y654033D1*
X1162451D1*
X953452Y775972D2*
X1033791Y856310D1*
Y942818D1*
X1054783Y963810D1*
X1162451D1*
Y1041255D2*
Y1041256D1*
X1149951D1*
X1187451Y737449D2*
X1168423D1*
X1162451Y731477D1*
X1124951Y806200D2*
X1159729D1*
X1162451Y808922D1*
D25*
X1124951Y806200D3*
X1187451Y737449D3*
X743700Y1049949D3*
X718700Y1162449D3*
X765818Y911960D3*
X949950Y1062450D3*
X720302Y473696D3*
X896527Y553629D3*
X765818Y800503D3*
X651838Y1024397D3*
Y586944D3*
X689310Y533952D3*
Y624417D3*
X762451Y743700D3*
X803291Y837976D3*
X953452Y874968D3*
X651838Y1078952D3*
X1017787Y1021798D3*
X1149951Y499144D3*
Y576588D3*
X1054456Y622645D3*
X953452Y775972D3*
X1149951Y1041256D3*
X862450Y1087450D3*
X770168Y1156331D2*
D15*
X1070937D1*
X776699Y1131462D2*
X1070937D1*
X776699Y1106594D2*
X892198D1*
X1007685D2*
X1070937D1*
X780144Y1081725D2*
X879459D1*
X1032553D2*
X1070937D1*
X792201Y1056856D2*
X873717D1*
X1050818D2*
X1070937D1*
X952746Y1007119D2*
X971179D1*
X720432Y982250D2*
X786626D1*
X927879D2*
X990843D1*
X629107Y957381D2*
X654465D1*
X720432D2*
X753362D1*
X895045D2*
X1004479D1*
X828157Y932512D2*
X1000783D1*
X814628Y907644D2*
X917855D1*
X989025D2*
X1000783D1*
X668831Y882775D2*
X690242D1*
X852020Y833037D2*
X930845D1*
X1056165D2*
X1070937D1*
X841470Y808169D2*
X917388D1*
X1031297D2*
X1070937D1*
X811506Y783300D2*
X905044D1*
X1006429D2*
X1070937D1*
X629107Y758431D2*
X715863D1*
X809066D2*
X907879D1*
X999001D2*
X1070937D1*
X629107Y733562D2*
X706676D1*
X810322D2*
X931886D1*
X975031D2*
X1070937D1*
X795574Y708693D2*
X1070937D1*
X748207Y683825D2*
X1065411D1*
X629107Y658956D2*
X655685D1*
X722944D2*
X1022924D1*
X629107Y634087D2*
X641331D1*
X737298D2*
X1006884D1*
X735755Y609218D2*
X1007422D1*
X722298Y584350D2*
X1025579D1*
X730659Y559481D2*
X1070937D1*
X614969Y534612D2*
X640327D1*
X738303D2*
X1070937D1*
X629107Y509743D2*
X647109D1*
X731520D2*
X1070937D1*
X629107Y484875D2*
X1070937D1*
X629107Y460006D2*
X1070937D1*
X629107Y435137D2*
X1197464D1*
X612476Y533146D2*
X626595D1*
Y431214D1*
X1199970Y431200D1*
X1199951Y445147D1*
X1073451Y445143D1*
Y580182D1*
X1065311Y577430D1*
X1058104Y576288D1*
X1050808D1*
X1043601Y577430D1*
X1036661Y579684D1*
X1030160Y582997D1*
X1024257Y587286D1*
X1019097Y592446D1*
X1014808Y598349D1*
X1011496Y604850D1*
X1009241Y611790D1*
X1008099Y618997D1*
Y626293D1*
X1009241Y633500D1*
X1011496Y640440D1*
X1014808Y646941D1*
X1019097Y652844D1*
X1024257Y658004D1*
X1030160Y662293D1*
X1036661Y665605D1*
X1043601Y667860D1*
X1045881Y668592D1*
X1054648Y677226D1*
X1058520Y680039D1*
X1062784Y682212D1*
X1067336Y683691D1*
X1072072Y684440D1*
X1073451Y686663D1*
Y933314D1*
X1067393Y933310D1*
X1064291Y924445D1*
X1064197Y853917D1*
X1063448Y849190D1*
X1061969Y844638D1*
X1059796Y840374D1*
X1056983Y836502D1*
X1003392Y782778D1*
X999814Y779200D1*
X999809Y772323D1*
X998667Y765116D1*
X996412Y758177D1*
X993100Y751675D1*
X988811Y745772D1*
X983651Y740613D1*
X977748Y736324D1*
X971247Y733011D1*
X964307Y730756D1*
X957100Y729615D1*
X949804D1*
X942597Y730756D1*
X935657Y733011D1*
X929156Y736324D1*
X923253Y740613D1*
X918093Y745772D1*
X913804Y751675D1*
X910492Y758177D1*
X908237Y765116D1*
X907095Y772323D1*
Y779620D1*
X908237Y786827D1*
X910492Y793766D1*
X913804Y800268D1*
X918093Y806171D1*
X923253Y811331D1*
X929156Y815619D1*
X935657Y818932D1*
X942597Y821187D1*
X949804Y822328D1*
X956687Y822345D1*
X964034Y829687D1*
X957100Y828611D1*
X949804D1*
X942597Y829753D1*
X935657Y832007D1*
X929156Y835320D1*
X923253Y839609D1*
X918374Y844465D1*
X849352Y844468D1*
X849791Y837976D1*
X849218Y830701D1*
X847515Y823606D1*
X844722Y816865D1*
X840910Y810644D1*
X836171Y805095D1*
X830623Y800356D1*
X824401Y796544D1*
X817660Y793751D1*
X811586Y792251D1*
X810042Y786134D1*
X807250Y779393D1*
X803437Y773171D1*
X800838Y769937D1*
X803882Y764811D1*
X806675Y758069D1*
X808378Y750974D1*
X808951Y743700D1*
X808378Y736426D1*
X806675Y729331D1*
X803882Y722589D1*
X800070Y716368D1*
X795331Y710820D1*
X789783Y706081D1*
X783561Y702268D1*
X776820Y699476D1*
X769725Y697772D1*
X762451Y697200D1*
X759216Y697327D1*
X735954Y674203D1*
X732082Y671390D1*
X727818Y669217D1*
X723266Y667738D1*
X718539Y666989D1*
X708216Y666895D1*
X713606Y664064D1*
X719510Y659775D1*
X724669Y654616D1*
X728958Y648713D1*
X732271Y642211D1*
X734525Y635272D1*
X735667Y628065D1*
Y620768D1*
X734525Y613561D1*
X732271Y606622D1*
X728958Y600120D1*
X724669Y594217D1*
X719813Y589338D1*
X719810Y569047D1*
X724669Y564151D1*
X728958Y558248D1*
X732271Y551747D1*
X734525Y544807D1*
X735667Y537600D1*
Y530304D1*
X734525Y523097D1*
X732271Y516157D1*
X728958Y509656D1*
X724669Y503753D1*
X719510Y498593D1*
X713606Y494304D1*
X707105Y490992D1*
X700165Y488737D1*
X692959Y487595D1*
X685662D1*
X678455Y488737D1*
X671515Y490992D1*
X665014Y494304D1*
X659111Y498593D1*
X653951Y503753D1*
X649662Y509656D1*
X646350Y516157D1*
X644095Y523097D1*
X642954Y530304D1*
Y537600D1*
X643381Y541212D1*
X637469Y542720D1*
X630727Y545512D1*
X626605Y547922D1*
X626595Y534646D1*
X612421D1*
X612476Y642146D2*
X626595D1*
Y625962D1*
X630727Y628376D1*
X637469Y631168D1*
X643542Y632668D1*
X645086Y638786D1*
X647878Y645527D1*
X651691Y651749D1*
X656430Y657297D1*
X661978Y662036D1*
X668200Y665848D1*
X670214Y666895D1*
X626615D1*
X626595Y643645D1*
X612421D1*
X612451Y642124D1*
X612476Y751145D2*
X626595D1*
Y727928D1*
X703522Y727896D1*
X716071Y740454D1*
X716094Y747348D1*
X717235Y754555D1*
X719490Y761495D1*
X722803Y767996D1*
X727431Y774266D1*
X723180Y775896D1*
X626616D1*
X626595Y752645D1*
X612421D1*
X612476Y969145D2*
X626595D1*
Y945928D1*
X638231Y945802D1*
X642958Y945053D1*
X647510Y943574D1*
X651774Y941401D1*
X655653Y938582D1*
X656950Y940386D1*
Y978172D1*
X651838Y977897D1*
X644564Y978469D1*
X637469Y980173D1*
X630727Y982965D1*
X626605Y985375D1*
X626595Y970645D1*
X612421D1*
X626595Y1181225D2*
Y1163928D1*
X662647Y1163802D1*
X667375Y1163053D1*
X671935Y1161570D1*
X672343Y1166098D1*
X673485Y1173305D1*
X675740Y1180244D1*
X676175Y1181190D1*
X626570Y1181200D1*
X774203Y1085027D2*
X779059Y1080149D1*
X783348Y1074246D1*
X786660Y1067744D1*
X788915Y1060805D1*
X790057Y1053598D1*
X790170Y1049194D1*
X868588Y1049200D1*
X881937Y1062570D1*
X882044Y1083593D1*
X882793Y1088320D1*
X884272Y1092872D1*
X886444Y1097136D1*
X889258Y1101008D1*
X909633Y1121517D1*
X913273Y1124625D1*
X917353Y1127126D1*
X921775Y1128957D1*
X926429Y1130075D1*
X931200Y1130450D1*
X971093Y1130356D1*
X975820Y1129607D1*
X980372Y1128128D1*
X984636Y1125956D1*
X988508Y1123142D1*
X1039353Y1072430D1*
X1042462Y1068791D1*
X1044962Y1064710D1*
X1046794Y1060288D1*
X1047986Y1057157D1*
X1053145Y1051998D1*
X1057434Y1046095D1*
X1060747Y1039593D1*
X1063002Y1032654D1*
X1064143Y1025447D1*
Y1018150D1*
X1063002Y1010943D1*
X1060747Y1004004D1*
X1057434Y997502D1*
X1055291Y994321D1*
X1073478Y994310D1*
X1073451Y1172700D1*
X1199957D1*
X1199951Y1181203D1*
X761279Y1181200D1*
X763915Y1173305D1*
X765057Y1166098D1*
X765073Y1159214D1*
X768375Y1155377D1*
X770876Y1151296D1*
X772707Y1146874D1*
X773825Y1142221D1*
X774200Y1137440D1*
Y1085023D1*
X812175Y908311D2*
X811838Y905465D1*
X918331Y905468D1*
X923253Y910327D1*
X929156Y914615D1*
X935657Y917928D1*
X942597Y920183D1*
X949804Y921324D1*
X957100D1*
X964307Y920183D1*
X971247Y917928D1*
X977748Y914615D1*
X983651Y910327D1*
X988811Y905167D1*
X993100Y899264D1*
X996412Y892762D1*
X998667Y885823D1*
X999809Y878616D1*
Y871319D1*
X998720Y864378D1*
X1003290Y883869D1*
X1003384Y945211D1*
X1004133Y949938D1*
X1005612Y954490D1*
X1007785Y958754D1*
X1010598Y962626D1*
X1023464Y975626D1*
X1017787Y975298D1*
X1010512Y975871D1*
X1003417Y977574D1*
X996676Y980367D1*
X990455Y984179D1*
X984906Y988918D1*
X980167Y994466D1*
X976355Y1000688D1*
X973562Y1007429D1*
X971859Y1014524D1*
X971312Y1021157D1*
X964319Y1018226D1*
X960260Y1017126D1*
X907258Y964258D1*
X903386Y961444D1*
X899122Y959272D1*
X894570Y957793D1*
X889843Y957044D1*
X850095Y956950D1*
X811847Y918713D1*
X812318Y911960D1*
X812175Y908311D1*
X725940Y935845D2*
X730459Y942159D1*
X735619Y947319D1*
X741522Y951608D1*
X748023Y954920D1*
X754963Y957175D1*
X762170Y958316D1*
X765319Y958440D1*
X795074Y988208D1*
X718691Y988200D1*
X717950Y982332D1*
Y943828D1*
X725941Y935842D1*
X669497Y868476D2*
X707032D1*
X666333Y909183D1*
X666338Y871581D1*
X1003290Y868977D2*
Y883869D1*
X1162451Y1172664D2*
D16*
Y1118700D1*
X1073487D2*
X1162451D1*
D17*
X500095Y479396D3*
Y588396D3*
Y697396D3*
Y806396D3*
Y915396D3*
Y1024396D3*
Y1133396D3*
D23*
X1162451Y1118700D3*
Y1041255D3*
Y963810D3*
Y886367D3*
Y808922D3*
Y731477D3*
Y654033D3*
Y576588D3*
Y499144D3*
M02*
