G04 DipTrace 3.3.1.1*
G04 Top.gtl*
%MOIN*%
G04 #@! TF.FileFunction,Copper,L1,Top*
G04 #@! TF.Part,Single*
G04 #@! TA.AperFunction,Conductor*
%ADD13C,0.008*%
%ADD14C,0.017*%
G04 #@! TA.AperFunction,CopperBalancing*
%ADD15C,0.025*%
%ADD16C,0.013*%
%ADD17R,0.2X0.0545*%
%ADD18R,0.043307X0.03937*%
%ADD19R,0.03937X0.043307*%
%ADD21R,0.019685X0.066929*%
%ADD22R,0.066929X0.019685*%
%ADD24R,0.015748X0.074803*%
G04 #@! TA.AperFunction,ViaPad*
%ADD25C,0.04*%
%FSLAX26Y26*%
G04*
G70*
G90*
G75*
G01*
G04 Top*
%LPD*%
X765818Y911960D2*
D13*
X785974Y932116D1*
Y987449D1*
X949950Y1062450D2*
X887450Y1124950D1*
X849949D1*
Y1156200D1*
X718700Y1162449D2*
X749212D1*
X755461Y1156200D1*
X743700Y1049949D2*
Y1037451D1*
X756200Y1024951D1*
Y987449D1*
X754478D1*
X720302Y473696D2*
D14*
Y468700D1*
X880462Y656741D2*
Y569693D1*
X896527Y553629D1*
X911959Y987449D2*
Y799735D1*
X880462Y768239D1*
Y656741D1*
X499951Y424951D2*
X671557D1*
X720302Y473696D1*
X911959Y987449D2*
Y1050288D1*
X903456Y1058791D1*
X858791D1*
X848966Y1048966D1*
Y987449D1*
X862450Y1087450D2*
X858791Y1058791D1*
X802705Y1156200D2*
D13*
Y1122195D1*
X837450Y1087450D1*
X862450D1*
X880462Y987449D2*
D14*
Y874535D1*
X848964D1*
X817470Y906028D1*
Y987449D1*
X1006200Y449949D2*
Y518700D1*
X817470Y987449D2*
Y1044930D1*
X768700Y1093700D1*
X724949D1*
X630659Y1187990D1*
X500001D1*
X1006200Y518700D2*
X785974D1*
Y656741D1*
Y698474D1*
X848964Y761464D1*
Y874535D1*
X765818Y800503D2*
D13*
X759974Y806347D1*
X699360D1*
X651838Y1024397D2*
X656684Y1019550D1*
Y949465D1*
X673818Y932331D1*
X699360D1*
X651838Y586944D2*
X736944D1*
X754478Y604478D1*
Y656741D1*
X499951Y533951D2*
X689310D1*
Y533952D1*
Y624417D2*
X650483D1*
X635692Y639208D1*
Y691941D1*
X655609Y711859D1*
X699360D1*
X762451Y743700D2*
X762106Y743355D1*
X699360D1*
X499951Y751951D2*
X620701D1*
X643602Y774851D1*
X699360D1*
Y837843D2*
X637057D1*
X613949Y860951D1*
X499951D1*
Y969951D2*
X604949D1*
X635692Y939208D1*
Y914208D1*
X649065Y900835D1*
X699360D1*
X803291Y837976D2*
X771927Y869339D1*
X699360D1*
X499951Y1078951D2*
X651838D1*
Y1078952D1*
X953452Y874968D2*
X943455Y884965D1*
Y987449D1*
X1017787Y1021798D2*
X1080527Y959058D1*
Y911777D1*
X1069585Y900835D1*
X1030069D1*
X1073129Y449949D2*
D14*
Y518700D1*
X1130394D1*
X1149951Y499144D1*
Y576588D2*
D13*
X964448D1*
X943455Y597582D1*
Y656741D1*
X1054456Y622645D2*
X1029393Y597582D1*
X983569D1*
X974951Y606200D1*
Y656741D1*
X1030069Y711859D2*
X1080527D1*
X1123686Y668700D1*
X1187451D1*
X1030069Y743355D2*
X1080527D1*
X1086432Y737449D1*
X1124951D1*
X953452Y775972D2*
X954573Y774851D1*
X1030069D1*
X1149951Y1041256D2*
Y912616D1*
X1080527Y843192D1*
Y818027D1*
X1068847Y806347D1*
X1030069D1*
X1187451Y735629D2*
Y737449D1*
X1124951Y806200D2*
Y804378D1*
D25*
Y806200D3*
X1187451Y737449D3*
X743700Y1049949D3*
X718700Y1162449D3*
X765818Y911960D3*
X949950Y1062450D3*
X720302Y473696D3*
X896527Y553629D3*
X765818Y800503D3*
X651838Y1024397D3*
Y586944D3*
X689310Y533952D3*
Y624417D3*
X762451Y743700D3*
X803291Y837976D3*
X953452Y874968D3*
X651838Y1078952D3*
X1017787Y1021798D3*
X1149951Y499144D3*
Y576588D3*
X1054456Y622645D3*
X953452Y775972D3*
X1149951Y1041256D3*
X862450Y1087450D3*
X628999Y1175081D2*
D15*
X671438D1*
X886827D2*
X1209952D1*
X628999Y1150212D2*
X671331D1*
X907030D2*
X1209952D1*
X628963Y1125343D2*
X646140D1*
X657514D2*
X688160D1*
X932687D2*
X1209952D1*
X695564Y1100474D2*
X718590D1*
X979229D2*
X1209952D1*
X784988Y1075606D2*
X803671D1*
X997063D2*
X1116115D1*
X1183805D2*
X1209952D1*
X792703Y1050737D2*
X811494D1*
X1056667D2*
X1101941D1*
X1197979D2*
X1209952D1*
X1066607Y1025868D2*
X1103556D1*
X1196328D2*
X1209952D1*
X694524Y1000999D2*
X715648D1*
X1084226D2*
X1116940D1*
X1182943D2*
X1209952D1*
X689679Y976130D2*
X715648D1*
X1108304D2*
X1116940D1*
X1182943D2*
X1209952D1*
X1182943Y951262D2*
X1209952D1*
X818432Y926393D2*
X874471D1*
X1182943D2*
X1209952D1*
X813623Y901524D2*
X874471D1*
X1180862D2*
X1209952D1*
X831601Y876655D2*
X874471D1*
X1159619D2*
X1209952D1*
X850189Y851787D2*
X874471D1*
X1173649D2*
X1209952D1*
X850943Y826918D2*
X874471D1*
X1173649D2*
X1209952D1*
X835298Y802049D2*
X862270D1*
X1173757D2*
X1209952D1*
X808564Y777180D2*
X844113D1*
X810645Y752312D2*
X842965D1*
X808528Y727443D2*
X842965D1*
X917975D2*
X967590D1*
X1103137Y627968D2*
X1138758D1*
X1190659Y603099D2*
X1209952D1*
X773864Y578230D2*
X842965D1*
X1198912D2*
X1209952D1*
X734068Y553361D2*
X847020D1*
X1192740D2*
X1209952D1*
X737980Y528493D2*
X854914D1*
X938142D2*
X955533D1*
X1188506D2*
X1209952D1*
X758398Y503624D2*
X955533D1*
X1198733D2*
X1209952D1*
X614951Y478755D2*
X671582D1*
X769019D2*
X955533D1*
X1194247D2*
X1209952D1*
X764857Y453886D2*
X955533D1*
X1123770D2*
X1136784D1*
X1163135D2*
X1209952D1*
X735683Y429018D2*
X955533D1*
X1123770D2*
X1209952D1*
X612475Y478701D2*
X626451D1*
Y459933D1*
X657088Y459951D1*
X673882Y476773D1*
X675087Y484551D1*
X676518Y489256D1*
X671515Y490992D1*
X665014Y494304D1*
X659111Y498593D1*
X654232Y503449D1*
X626477Y503451D1*
X626451Y480201D1*
X612420D1*
X612451Y478715D1*
X612475Y1132701D2*
X626451D1*
Y1117880D1*
X630727Y1120384D1*
X637469Y1123176D1*
X644564Y1124879D1*
X651838Y1125452D1*
X659112Y1124879D1*
X666207Y1123176D1*
X672948Y1120384D1*
X679170Y1116571D1*
X684718Y1111832D1*
X689457Y1106284D1*
X693270Y1100063D1*
X696062Y1093321D1*
X697765Y1086226D1*
X698338Y1078952D1*
X697765Y1071678D1*
X696062Y1064583D1*
X693270Y1057841D1*
X689497Y1051679D1*
X693270Y1045507D1*
X696062Y1038766D1*
X697765Y1031671D1*
X698338Y1024397D1*
X697765Y1017123D1*
X696062Y1010028D1*
X693270Y1003286D1*
X689457Y997065D1*
X687187Y994187D1*
X687184Y968703D1*
X718161Y968674D1*
X718136Y1011131D1*
X713501Y1014590D1*
X708341Y1019750D1*
X704052Y1025653D1*
X700740Y1032155D1*
X698485Y1039094D1*
X697343Y1046301D1*
Y1053598D1*
X698485Y1060805D1*
X700740Y1067744D1*
X704052Y1074246D1*
X708341Y1080149D1*
X713501Y1085308D1*
X719404Y1089597D1*
X724571Y1092295D1*
X721087Y1092298D1*
Y1116018D1*
X715052Y1116093D1*
X707845Y1117234D1*
X700905Y1119489D1*
X694404Y1122802D1*
X688501Y1127090D1*
X683341Y1132250D1*
X679052Y1138153D1*
X675740Y1144655D1*
X673485Y1151594D1*
X672343Y1158801D1*
Y1166098D1*
X673485Y1173305D1*
X675740Y1180244D1*
X679052Y1186746D1*
X683341Y1192649D1*
X688501Y1197808D1*
X691222Y1199954D1*
X626510Y1199949D1*
X626501Y1134240D1*
X612470D1*
X958047Y412455D2*
Y546774D1*
X952776Y548410D1*
X948512Y550583D1*
X944633Y553402D1*
X943027Y553629D1*
X942454Y546355D1*
X940751Y539260D1*
X937959Y532519D1*
X934146Y526297D1*
X929407Y520749D1*
X923859Y516010D1*
X917637Y512197D1*
X910896Y509405D1*
X903801Y507702D1*
X896527Y507129D1*
X889253Y507702D1*
X882157Y509405D1*
X875416Y512197D1*
X869195Y516010D1*
X863646Y520749D1*
X858907Y526297D1*
X855095Y532519D1*
X852303Y539260D1*
X850599Y546355D1*
X850078Y552332D1*
X848127Y556300D1*
X846430Y561523D1*
X845570Y566947D1*
X845462Y596786D1*
X783976Y596776D1*
X782657Y592806D1*
X780484Y588542D1*
X777671Y584670D1*
X758511Y565377D1*
X754872Y562269D1*
X750791Y559768D1*
X746369Y557937D1*
X741715Y556820D1*
X736935Y556444D1*
X730742Y555063D1*
X733534Y548321D1*
X735238Y541226D1*
X735810Y533952D1*
X735238Y526678D1*
X733534Y519583D1*
X733095Y518392D1*
X738097Y516656D1*
X744599Y513344D1*
X750502Y509055D1*
X755661Y503895D1*
X759950Y497992D1*
X763263Y491491D1*
X765518Y484551D1*
X766659Y477344D1*
Y470048D1*
X765518Y462841D1*
X763263Y455901D1*
X759950Y449400D1*
X755661Y443497D1*
X750502Y438337D1*
X744599Y434048D1*
X738097Y430736D1*
X731158Y428481D1*
X723423Y427319D1*
X708538Y412434D1*
X958039Y412450D1*
X1121283Y462511D2*
Y412416D1*
X1212458Y412450D1*
X1212451Y620529D1*
X1165133Y620546D1*
X1171061Y618020D1*
X1177283Y614208D1*
X1182831Y609469D1*
X1187570Y603920D1*
X1191382Y597699D1*
X1194175Y590958D1*
X1195878Y583863D1*
X1196451Y576588D1*
X1195878Y569314D1*
X1194175Y562219D1*
X1191382Y555478D1*
X1187570Y549256D1*
X1182831Y543708D1*
X1177283Y538969D1*
X1175658Y537884D1*
X1180150Y534502D1*
X1185310Y529343D1*
X1189598Y523440D1*
X1192911Y516938D1*
X1195166Y509999D1*
X1196307Y502792D1*
Y495495D1*
X1195166Y488288D1*
X1192911Y481349D1*
X1189598Y474847D1*
X1185310Y468944D1*
X1180150Y463785D1*
X1174247Y459496D1*
X1167745Y456183D1*
X1160806Y453928D1*
X1153599Y452787D1*
X1146302D1*
X1139095Y453928D1*
X1132156Y456183D1*
X1125654Y459496D1*
X1121286Y462575D1*
X1141266Y622305D2*
Y638165D1*
X1121293Y638294D1*
X1116565Y639043D1*
X1112014Y640522D1*
X1107749Y642694D1*
X1103877Y645508D1*
X1073725Y675527D1*
X1011268Y675516D1*
X1011293Y639949D1*
X1014808Y646941D1*
X1019097Y652844D1*
X1024257Y658004D1*
X1030160Y662293D1*
X1036661Y665605D1*
X1043601Y667860D1*
X1050808Y669002D1*
X1058104D1*
X1065311Y667860D1*
X1072251Y665605D1*
X1078752Y662293D1*
X1084655Y658004D1*
X1089815Y652844D1*
X1094104Y646941D1*
X1097416Y640440D1*
X1099671Y633500D1*
X1100813Y626293D1*
Y618997D1*
X1099671Y611790D1*
X1098241Y607085D1*
X1114839Y607089D1*
X1119751Y611947D1*
X1125654Y616236D1*
X1132156Y619549D1*
X1139095Y621804D1*
X1141264Y622235D1*
X1171157Y783782D2*
X1187451Y783949D1*
X1205570Y783782D1*
X1212424D1*
X1212451Y1199916D1*
X884302Y1199949D1*
X884323Y1155474D1*
X892221Y1155075D1*
X896875Y1153957D1*
X901297Y1152126D1*
X905378Y1149625D1*
X909023Y1146510D1*
X946697Y1108837D1*
X953598Y1108807D1*
X960805Y1107665D1*
X967745Y1105410D1*
X974246Y1102098D1*
X980149Y1097809D1*
X985309Y1092649D1*
X989598Y1086746D1*
X992910Y1080245D1*
X995165Y1073305D1*
X996307Y1066098D1*
X996425Y1063091D1*
X1003417Y1066023D1*
X1010512Y1067726D1*
X1017787Y1068298D1*
X1025061Y1067726D1*
X1032156Y1066023D1*
X1038897Y1063230D1*
X1045119Y1059418D1*
X1050667Y1054679D1*
X1055406Y1049130D1*
X1059218Y1042909D1*
X1062011Y1036168D1*
X1063714Y1029073D1*
X1064287Y1021798D1*
X1064160Y1018563D1*
X1103719Y978866D1*
X1106532Y974995D1*
X1108705Y970730D1*
X1110184Y966178D1*
X1110933Y961451D1*
X1111027Y916823D1*
X1119426Y925225D1*
X1119451Y1006166D1*
X1114592Y1011057D1*
X1110303Y1016960D1*
X1106990Y1023462D1*
X1104735Y1030401D1*
X1103594Y1037608D1*
Y1044905D1*
X1104735Y1052112D1*
X1106990Y1059051D1*
X1110303Y1065553D1*
X1114592Y1071456D1*
X1119751Y1076615D1*
X1125654Y1080904D1*
X1132156Y1084217D1*
X1139095Y1086472D1*
X1146302Y1087613D1*
X1153599D1*
X1160806Y1086472D1*
X1167745Y1084217D1*
X1174247Y1080904D1*
X1180150Y1076615D1*
X1185310Y1071456D1*
X1189598Y1065553D1*
X1192911Y1059051D1*
X1195166Y1052112D1*
X1196307Y1044905D1*
Y1037608D1*
X1195166Y1030401D1*
X1192911Y1023462D1*
X1189598Y1016960D1*
X1185310Y1011057D1*
X1180454Y1006178D1*
X1180357Y910223D1*
X1179608Y905496D1*
X1178129Y900944D1*
X1175956Y896680D1*
X1173143Y892808D1*
X1133025Y852557D1*
X1171136Y852532D1*
X1171307Y809848D1*
Y802552D1*
X1171136Y797414D1*
Y783814D1*
X762829Y1092295D2*
X767996Y1089597D1*
X773899Y1085308D1*
X779059Y1080149D1*
X783348Y1074246D1*
X786660Y1067744D1*
X788915Y1060805D1*
X790057Y1053598D1*
X790101Y1047427D1*
X813952Y1047414D1*
X814397Y1054442D1*
X815679Y1059782D1*
X816635Y1062370D1*
X815877Y1065890D1*
X789469Y1092297D1*
X762886Y1092298D1*
X876952Y927484D2*
X816099Y927345D1*
X814982Y922691D1*
X812175Y915608D1*
Y908311D1*
X811033Y901105D1*
X808779Y894165D1*
X805466Y887664D1*
X803323Y884482D1*
X810565Y883903D1*
X817660Y882200D1*
X824401Y879407D1*
X830623Y875595D1*
X836171Y870856D1*
X840910Y865308D1*
X844722Y859086D1*
X847515Y852345D1*
X849218Y845250D1*
X849791Y837976D1*
X849218Y830701D1*
X847515Y823606D1*
X844722Y816865D1*
X840910Y810644D1*
X836171Y805095D1*
X830623Y800356D1*
X824401Y796544D1*
X817660Y793751D1*
X811586Y792251D1*
X810042Y786134D1*
X807250Y779393D1*
X803437Y773171D1*
X800838Y769937D1*
X803882Y764811D1*
X806675Y758069D1*
X808378Y750974D1*
X808951Y743700D1*
X808378Y736426D1*
X806675Y729331D1*
X803882Y722589D1*
X800300Y716712D1*
X845465Y716705D1*
X845570Y770985D1*
X846429Y776410D1*
X848127Y781633D1*
X850620Y786527D1*
X853848Y790970D1*
X876952Y814226D1*
X876959Y927519D1*
X718166Y675516D2*
X666205D1*
X666192Y664777D1*
X671515Y667377D1*
X678455Y669632D1*
X685662Y670773D1*
X692959D1*
X700165Y669632D1*
X707105Y667377D1*
X713606Y664064D1*
X718132Y660861D1*
X718136Y675542D1*
X915463Y716705D2*
X970089D1*
X970104Y732526D1*
X964307Y730756D1*
X957100Y729615D1*
X949804D1*
X942597Y730756D1*
X935657Y733011D1*
X929156Y736324D1*
X923253Y740613D1*
X918093Y745772D1*
X915460Y749197D1*
X915463Y716674D1*
X958082Y449949D2*
D16*
X1006200D1*
X958083Y518700D2*
X1006200D1*
X880462Y987449D2*
Y927520D1*
X817470Y1047378D2*
Y927521D1*
D17*
X499951Y424951D3*
Y533951D3*
Y642951D3*
Y751951D3*
Y860951D3*
Y969951D3*
Y1078951D3*
X500001Y1187990D3*
D18*
X1006200Y449949D3*
X1073129D3*
X1006200Y518700D3*
X1073129D3*
D19*
X1187451Y668700D3*
Y735629D3*
X1124951Y737449D3*
Y804378D3*
D21*
X974951Y987449D3*
X943455D3*
X911959D3*
X880462D3*
X848966D3*
X817470D3*
X785974D3*
X754478D3*
D22*
X699360Y932331D3*
Y900835D3*
Y869339D3*
Y837843D3*
Y806347D3*
Y774851D3*
Y743355D3*
Y711859D3*
D21*
X754478Y656741D3*
X785974D3*
X817470D3*
X848966D3*
X880462D3*
X911959D3*
X943455D3*
X974951D3*
D22*
X1030069Y711859D3*
Y743355D3*
Y774851D3*
Y806347D3*
Y837843D3*
Y869339D3*
Y900835D3*
Y932331D3*
D24*
X849949Y1156200D3*
X802705D3*
X755461D3*
M02*
