G04 DipTrace 3.3.1.1*
G04 TopSilk.gto*
%MOIN*%
G04 #@! TF.FileFunction,Legend,Top*
G04 #@! TF.Part,Single*
%ADD10C,0.009843*%
%ADD20O,0.016422X0.016542*%
%ADD44C,0.00772*%
%FSLAX26Y26*%
G04*
G70*
G90*
G75*
G01*
G04 TopSilk*
%LPD*%
X976928Y936257D2*
D10*
X748564D1*
Y707933D1*
X976928D1*
Y936257D1*
D20*
X1008043Y987910D3*
G36*
X976928Y936257D2*
X945435D1*
X976928Y904764D1*
Y936257D1*
G37*
X1135673Y419486D2*
D44*
Y440986D1*
X1133241Y448171D1*
X1130865Y450603D1*
X1126112Y452980D1*
X1121303D1*
X1116550Y450603D1*
X1114118Y448171D1*
X1111741Y440986D1*
Y419486D1*
X1161981D1*
X1135673Y436233D2*
X1161981Y452980D1*
X1121358Y468419D2*
X1118926Y473227D1*
X1111797Y480412D1*
X1161981D1*
X935255Y477487D2*
Y498987D1*
X932823Y506172D1*
X930447Y508604D1*
X925694Y510980D1*
X920885D1*
X916132Y508604D1*
X913700Y506172D1*
X911323Y498987D1*
Y477487D1*
X961563D1*
X935255Y494234D2*
X961563Y510980D1*
X923317Y528852D2*
X920940D1*
X916132Y531228D1*
X913755Y533605D1*
X911379Y538413D1*
Y547975D1*
X913755Y552728D1*
X916132Y555105D1*
X920940Y557536D1*
X925694D1*
X930502Y555105D1*
X937632Y550351D1*
X961563Y526420D1*
Y559913D1*
X1146238Y606156D2*
X1167738D1*
X1174923Y608588D1*
X1177354Y610965D1*
X1179731Y615718D1*
Y620526D1*
X1177354Y625279D1*
X1174923Y627711D1*
X1167738Y630088D1*
X1146238D1*
Y579848D1*
X1162984Y606156D2*
X1179731Y579848D1*
X1199979Y630032D2*
X1226232D1*
X1211917Y610909D1*
X1219102D1*
X1223855Y608533D1*
X1226232Y606156D1*
X1228664Y598971D1*
Y594218D1*
X1226232Y587033D1*
X1221479Y582224D1*
X1214294Y579848D1*
X1207108D1*
X1199979Y582224D1*
X1197602Y584656D1*
X1195170Y589409D1*
X1082549Y875323D2*
X1104049D1*
X1111234Y877755D1*
X1113666Y880132D1*
X1116043Y884885D1*
Y889693D1*
X1113666Y894447D1*
X1111234Y896879D1*
X1104049Y899255D1*
X1082549D1*
Y849015D1*
X1099296Y875323D2*
X1116043Y849015D1*
X1155414D2*
Y899200D1*
X1131482Y865762D1*
X1167352D1*
X834251Y850227D2*
Y814357D1*
X836628Y807172D1*
X841436Y802419D1*
X848621Y799987D1*
X853375D1*
X860560Y802419D1*
X865368Y807172D1*
X867745Y814357D1*
Y850227D1*
X883184Y840610D2*
X887992Y843042D1*
X895177Y850172D1*
Y799987D1*
X769866Y1101840D2*
X788989Y1077908D1*
Y1051600D1*
X808112Y1101840D2*
X788989Y1077908D1*
X823551Y1092223D2*
X828360Y1094655D1*
X835545Y1101784D1*
Y1051600D1*
M02*
