%MOIN*%
%OFA0B0*%
%FSLAX26Y26*%
%IPPOS*%
%LPD*%
%ADD31R,0.007868X0.066923*%
%ADD35R,0.059049X0.011805*%
%ADD37R,0.011805X0.059049*%
%ADD39R,0.03149X0.035427*%
%ADD41R,0.035427X0.03149*%
%ADD43R,0.19212X0.04662*%
%ADD75R,0.007868X0.066923*%
%ADD79R,0.059049X0.011805*%
%ADD81R,0.011805X0.059049*%
%ADD83R,0.03149X0.035427*%
%ADD85R,0.035427X0.03149*%
%ADD87R,0.19212X0.04662*%
%ADD119R,0.007868X0.066923*%
%ADD123R,0.059049X0.011805*%
%ADD125R,0.011805X0.059049*%
%ADD127R,0.03149X0.035427*%
%ADD129R,0.035427X0.03149*%
%ADD131R,0.19212X0.04662*%
%ADD163R,0.007868X0.066923*%
%ADD167R,0.059049X0.011805*%
%ADD169R,0.011805X0.059049*%
%ADD171R,0.03149X0.035427*%
%ADD173R,0.035427X0.03149*%
%ADD175R,0.19212X0.04662*%
%LPD*%
G90*
G75*
G01*
D43*
X-00314960Y-00314960D02*
X00184990Y00109990D03*
X00184990Y00218990D03*
X00184990Y00327990D03*
X00184990Y00436989D03*
X00184990Y00545990D03*
X00184990Y00654990D03*
X00184990Y00763990D03*
X00185040Y00873029D03*
D41*
X00691238Y00134988D03*
X00758168Y00134988D03*
X00691238Y00203739D03*
X00758168Y00203739D03*
D39*
X00872490Y00353739D03*
X00872490Y00420668D03*
X00809990Y00422488D03*
X00809990Y00489417D03*
D37*
X00659990Y00672488D03*
X00628494Y00672488D03*
X00596998Y00672488D03*
X00565501Y00672488D03*
X00534005Y00672488D03*
X00502509Y00672488D03*
X00471013Y00672488D03*
X00439517Y00672488D03*
D35*
X00384399Y00617370D03*
X00384399Y00585874D03*
X00384399Y00554378D03*
X00384399Y00522881D03*
X00384399Y00491386D03*
X00384399Y00459890D03*
X00384399Y00428394D03*
X00384399Y00396898D03*
D37*
X00439517Y00341780D03*
X00471013Y00341780D03*
X00502509Y00341780D03*
X00534005Y00341780D03*
X00565501Y00341780D03*
X00596998Y00341780D03*
X00628494Y00341780D03*
X00659990Y00341780D03*
D35*
X00715108Y00396898D03*
X00715108Y00428394D03*
X00715108Y00459890D03*
X00715108Y00491386D03*
X00715108Y00522881D03*
X00715108Y00554378D03*
X00715108Y00585874D03*
X00715108Y00617370D03*
D31*
X00534988Y00841239D03*
X00487744Y00841239D03*
X00440500Y00841239D03*
G90*
G75*
G01*
D87*
X-00314960Y00669291D02*
X00184990Y01094242D03*
X00184990Y01203242D03*
X00184990Y01312241D03*
X00184990Y01421242D03*
X00184990Y01530242D03*
X00184990Y01639242D03*
X00184990Y01748242D03*
X00185040Y01857281D03*
D85*
X00691238Y01119240D03*
X00758168Y01119240D03*
X00691238Y01187991D03*
X00758168Y01187991D03*
D83*
X00872490Y01337991D03*
X00872490Y01404920D03*
X00809990Y01406739D03*
X00809990Y01473669D03*
D81*
X00659990Y01656740D03*
X00628494Y01656740D03*
X00596998Y01656740D03*
X00565501Y01656740D03*
X00534005Y01656740D03*
X00502509Y01656740D03*
X00471013Y01656740D03*
X00439517Y01656740D03*
D79*
X00384399Y01601621D03*
X00384399Y01570126D03*
X00384399Y01538630D03*
X00384399Y01507134D03*
X00384399Y01475638D03*
X00384399Y01444142D03*
X00384399Y01412646D03*
X00384399Y01381150D03*
D81*
X00439517Y01326031D03*
X00471013Y01326031D03*
X00502509Y01326031D03*
X00534005Y01326031D03*
X00565501Y01326031D03*
X00596998Y01326031D03*
X00628494Y01326031D03*
X00659990Y01326031D03*
D79*
X00715108Y01381150D03*
X00715108Y01412646D03*
X00715108Y01444142D03*
X00715108Y01475638D03*
X00715108Y01507134D03*
X00715108Y01538630D03*
X00715108Y01570126D03*
X00715108Y01601621D03*
D75*
X00534988Y01825491D03*
X00487744Y01825491D03*
X00440500Y01825491D03*
G04 next file*
%LPD*%
G90*
G75*
G01*
D131*
X00669291Y00669291D02*
X01169242Y01094242D03*
X01169242Y01203242D03*
X01169242Y01312241D03*
X01169242Y01421242D03*
X01169242Y01530242D03*
X01169242Y01639242D03*
X01169242Y01748242D03*
X01169292Y01857281D03*
D129*
X01675491Y01119240D03*
X01742420Y01119240D03*
X01675491Y01187991D03*
X01742420Y01187991D03*
D127*
X01856742Y01337991D03*
X01856742Y01404920D03*
X01794242Y01406739D03*
X01794242Y01473669D03*
D125*
X01644242Y01656740D03*
X01612746Y01656740D03*
X01581250Y01656740D03*
X01549753Y01656740D03*
X01518257Y01656740D03*
X01486761Y01656740D03*
X01455264Y01656740D03*
X01423769Y01656740D03*
D123*
X01368651Y01601621D03*
X01368651Y01570126D03*
X01368651Y01538630D03*
X01368651Y01507134D03*
X01368651Y01475638D03*
X01368651Y01444142D03*
X01368651Y01412646D03*
X01368651Y01381150D03*
D125*
X01423769Y01326031D03*
X01455264Y01326031D03*
X01486761Y01326031D03*
X01518257Y01326031D03*
X01549753Y01326031D03*
X01581250Y01326031D03*
X01612746Y01326031D03*
X01644242Y01326031D03*
D123*
X01699358Y01381150D03*
X01699358Y01412646D03*
X01699358Y01444142D03*
X01699358Y01475638D03*
X01699358Y01507134D03*
X01699358Y01538630D03*
X01699358Y01570126D03*
X01699358Y01601621D03*
D119*
X01519240Y01825491D03*
X01471996Y01825491D03*
X01424752Y01825491D03*
G04 next file*
G04 DipTrace 3.3.1.1*
G04 TopPaste.gtp*
G04 #@! TF.FileFunction,Paste,Top*
G04 #@! TF.Part,Single*
G04*
G04 skipping 70
G90*
G75*
G01*
G04 TopPaste*
D175*
X00669291Y-00314960D02*
X01169242Y00109990D03*
X01169242Y00218990D03*
X01169242Y00327990D03*
X01169242Y00436989D03*
X01169242Y00545990D03*
X01169242Y00654990D03*
X01169242Y00763990D03*
X01169292Y00873029D03*
D173*
X01675491Y00134988D03*
X01742420Y00134988D03*
X01675491Y00203739D03*
X01742420Y00203739D03*
D171*
X01856742Y00353739D03*
X01856742Y00420668D03*
X01794242Y00422488D03*
X01794242Y00489417D03*
D169*
X01644242Y00672488D03*
X01612746Y00672488D03*
X01581250Y00672488D03*
X01549753Y00672488D03*
X01518257Y00672488D03*
X01486761Y00672488D03*
X01455264Y00672488D03*
X01423769Y00672488D03*
D167*
X01368651Y00617370D03*
X01368651Y00585874D03*
X01368651Y00554378D03*
X01368651Y00522881D03*
X01368651Y00491386D03*
X01368651Y00459890D03*
X01368651Y00428394D03*
X01368651Y00396898D03*
D169*
X01423769Y00341780D03*
X01455264Y00341780D03*
X01486761Y00341780D03*
X01518257Y00341780D03*
X01549753Y00341780D03*
X01581250Y00341780D03*
X01612746Y00341780D03*
X01644242Y00341780D03*
D167*
X01699358Y00396898D03*
X01699358Y00428394D03*
X01699358Y00459890D03*
X01699358Y00491386D03*
X01699358Y00522881D03*
X01699358Y00554378D03*
X01699358Y00585874D03*
X01699358Y00617370D03*
D163*
X01519240Y00841239D03*
X01471996Y00841239D03*
X01424752Y00841239D03*
M02*