%MOIN*%
%OFA0B0*%
%FSLAX26Y26*%
%IPPOS*%
%LPD*%
%ADD32R,0.13288X0.06288*%
%ADD42R,0.20788X0.062379999999999991*%
%ADD75R,0.13288X0.06288*%
%ADD85R,0.20788X0.062379999999999991*%
%ADD118R,0.13288X0.06288*%
%ADD128R,0.20788X0.062379999999999991*%
%ADD161R,0.13288X0.06288*%
%ADD171R,0.20788X0.062379999999999991*%
%LPD*%
G90*
G75*
G01*
D42*
X-00314960Y-00314960D02*
X00185134Y00164435D03*
X00185134Y00273435D03*
X00185134Y00382435D03*
X00185134Y00491435D03*
X00185134Y00600435D03*
X00185134Y00709435D03*
X00185134Y00818435D03*
D32*
X00847490Y00803738D03*
X00847490Y00726294D03*
X00847490Y00648849D03*
X00847490Y00571406D03*
X00847490Y00493961D03*
X00847490Y00416516D03*
X00847490Y00339072D03*
X00847490Y00261627D03*
X00847490Y00184183D03*
G90*
G75*
G01*
D85*
X-00314960Y00669291D02*
X00185134Y01148687D03*
X00185134Y01257687D03*
X00185134Y01366687D03*
X00185134Y01475687D03*
X00185134Y01584687D03*
X00185134Y01693687D03*
X00185134Y01802687D03*
D75*
X00847490Y01787991D03*
X00847490Y01710546D03*
X00847490Y01633101D03*
X00847490Y01555658D03*
X00847490Y01478213D03*
X00847490Y01400768D03*
X00847490Y01323324D03*
X00847490Y01245879D03*
X00847490Y01168435D03*
G04 next file*
%LPD*%
G90*
G75*
G01*
D128*
X00669291Y00669291D02*
X01169386Y01148687D03*
X01169386Y01257687D03*
X01169386Y01366687D03*
X01169386Y01475687D03*
X01169386Y01584687D03*
X01169386Y01693687D03*
X01169386Y01802687D03*
D118*
X01831742Y01787991D03*
X01831742Y01710546D03*
X01831742Y01633101D03*
X01831742Y01555658D03*
X01831742Y01478213D03*
X01831742Y01400768D03*
X01831742Y01323324D03*
X01831742Y01245879D03*
X01831742Y01168435D03*
G04 next file*
G04 DipTrace 3.3.1.1*
G04 BottomMask.gbs*
G04 #@! TF.FileFunction,Soldermask,Bot*
G04 #@! TF.Part,Single*
G04*
G04 skipping 70
G90*
G75*
G01*
G04 BotMask*
D171*
X00669291Y-00314960D02*
X01169386Y00164435D03*
X01169386Y00273435D03*
X01169386Y00382435D03*
X01169386Y00491435D03*
X01169386Y00600435D03*
X01169386Y00709435D03*
X01169386Y00818435D03*
D161*
X01831742Y00803738D03*
X01831742Y00726294D03*
X01831742Y00648849D03*
X01831742Y00571406D03*
X01831742Y00493961D03*
X01831742Y00416516D03*
X01831742Y00339072D03*
X01831742Y00261627D03*
X01831742Y00184183D03*
M02*