%MOIN*%
%OFA0B0*%
%FSLAX26Y26*%
%IPPOS*%
%LPD*%
%ADD10C,0.009843*%
%ADD20O,0.016422X0.016542*%
%ADD44C,0.0077199999999999994*%
%ADD55C,0.009843*%
%ADD65O,0.016422X0.016542*%
%ADD89C,0.0077199999999999994*%
%ADD100C,0.009843*%
%ADD110O,0.016422X0.016542*%
%ADD134C,0.0077199999999999994*%
%ADD145C,0.009843*%
%ADD155O,0.016422X0.016542*%
%ADD179C,0.0077199999999999994*%
%LPD*%
G90*
G75*
G01*
X00661967Y00621296D02*
D10*
X00433603Y00621296D01*
X00433603Y00392972D01*
X00661967Y00392972D01*
X00661967Y00621296D01*
D20*
X00693082Y00672949D03*
G36*
X00661967Y00621296D02*
X00630474Y00621296D01*
X00661967Y00589803D01*
X00661967Y00621296D01*
G37*
X00820712Y00104525D02*
D44*
X00820712Y00126025D01*
X00818280Y00133210D01*
X00815904Y00135642D01*
X00811151Y00138019D01*
X00806342Y00138019D01*
X00801589Y00135642D01*
X00799157Y00133210D01*
X00796780Y00126025D01*
X00796780Y00104525D01*
X00847020Y00104525D01*
X00820712Y00121272D02*
X00847020Y00138019D01*
X00806397Y00153458D02*
X00803965Y00158266D01*
X00796836Y00165451D01*
X00847020Y00165451D01*
X00620294Y00162526D02*
X00620294Y00184026D01*
X00617862Y00191211D01*
X00615486Y00193642D01*
X00610733Y00196019D01*
X00605924Y00196019D01*
X00601171Y00193642D01*
X00598739Y00191211D01*
X00596362Y00184026D01*
X00596362Y00162526D01*
X00646602Y00162526D01*
X00620294Y00179273D02*
X00646602Y00196019D01*
X00608356Y00213891D02*
X00605979Y00213891D01*
X00601171Y00216267D01*
X00598794Y00218644D01*
X00596418Y00223452D01*
X00596418Y00233014D01*
X00598794Y00237767D01*
X00601171Y00240144D01*
X00605979Y00242575D01*
X00610733Y00242575D01*
X00615541Y00240144D01*
X00622671Y00235390D01*
X00646602Y00211459D01*
X00646602Y00244952D01*
X00831277Y00291195D02*
X00852777Y00291195D01*
X00859962Y00293627D01*
X00862393Y00296004D01*
X00864770Y00300757D01*
X00864770Y00305565D01*
X00862393Y00310318D01*
X00859962Y00312750D01*
X00852777Y00315127D01*
X00831277Y00315127D01*
X00831277Y00264887D01*
X00848023Y00291195D02*
X00864770Y00264887D01*
X00885018Y00315071D02*
X00911271Y00315071D01*
X00896956Y00295948D01*
X00904141Y00295948D01*
X00908894Y00293572D01*
X00911271Y00291195D01*
X00913703Y00284010D01*
X00913703Y00279257D01*
X00911271Y00272072D01*
X00906518Y00267263D01*
X00899333Y00264887D01*
X00892147Y00264887D01*
X00885018Y00267263D01*
X00882641Y00269695D01*
X00880209Y00274448D01*
X00767588Y00560362D02*
X00789088Y00560362D01*
X00796273Y00562794D01*
X00798705Y00565171D01*
X00801082Y00569924D01*
X00801082Y00574732D01*
X00798705Y00579486D01*
X00796273Y00581918D01*
X00789088Y00584294D01*
X00767588Y00584294D01*
X00767588Y00534054D01*
X00784335Y00560362D02*
X00801082Y00534054D01*
X00840453Y00534054D02*
X00840453Y00584239D01*
X00816521Y00550801D01*
X00852391Y00550801D01*
X00519290Y00535266D02*
X00519290Y00499396D01*
X00521667Y00492211D01*
X00526475Y00487458D01*
X00533660Y00485026D01*
X00538414Y00485026D01*
X00545599Y00487458D01*
X00550407Y00492211D01*
X00552784Y00499396D01*
X00552784Y00535266D01*
X00568223Y00525649D02*
X00573031Y00528081D01*
X00580216Y00535211D01*
X00580216Y00485026D01*
X00454905Y00786878D02*
X00474028Y00762947D01*
X00474028Y00736639D01*
X00493151Y00786878D02*
X00474028Y00762947D01*
X00508590Y00777262D02*
X00513399Y00779693D01*
X00520584Y00786823D01*
X00520584Y00736639D01*
G90*
G75*
G01*
X00661967Y01605548D02*
D55*
X00433603Y01605548D01*
X00433603Y01377224D01*
X00661967Y01377224D01*
X00661967Y01605548D01*
D65*
X00693082Y01657200D03*
G36*
X00661967Y01605548D02*
X00630474Y01605548D01*
X00661967Y01574055D01*
X00661967Y01605548D01*
G37*
X00820712Y01088777D02*
D89*
X00820712Y01110277D01*
X00818280Y01117462D01*
X00815904Y01119894D01*
X00811151Y01122271D01*
X00806342Y01122271D01*
X00801589Y01119894D01*
X00799157Y01117462D01*
X00796780Y01110277D01*
X00796780Y01088777D01*
X00847020Y01088777D01*
X00820712Y01105524D02*
X00847020Y01122271D01*
X00806397Y01137710D02*
X00803965Y01142518D01*
X00796836Y01149703D01*
X00847020Y01149703D01*
X00620294Y01146778D02*
X00620294Y01168278D01*
X00617862Y01175463D01*
X00615486Y01177895D01*
X00610733Y01180271D01*
X00605924Y01180271D01*
X00601171Y01177895D01*
X00598739Y01175463D01*
X00596362Y01168278D01*
X00596362Y01146778D01*
X00646602Y01146778D01*
X00620294Y01163525D02*
X00646602Y01180271D01*
X00608356Y01198143D02*
X00605979Y01198143D01*
X00601171Y01200519D01*
X00598794Y01202896D01*
X00596418Y01207704D01*
X00596418Y01217266D01*
X00598794Y01222019D01*
X00601171Y01224396D01*
X00605979Y01226827D01*
X00610733Y01226827D01*
X00615541Y01224396D01*
X00622671Y01219642D01*
X00646602Y01195711D01*
X00646602Y01229204D01*
X00831277Y01275447D02*
X00852777Y01275447D01*
X00859962Y01277879D01*
X00862393Y01280256D01*
X00864770Y01285009D01*
X00864770Y01289817D01*
X00862393Y01294570D01*
X00859962Y01297002D01*
X00852777Y01299379D01*
X00831277Y01299379D01*
X00831277Y01249139D01*
X00848023Y01275447D02*
X00864770Y01249139D01*
X00885018Y01299323D02*
X00911271Y01299323D01*
X00896956Y01280200D01*
X00904141Y01280200D01*
X00908894Y01277824D01*
X00911271Y01275447D01*
X00913703Y01268262D01*
X00913703Y01263509D01*
X00911271Y01256324D01*
X00906518Y01251515D01*
X00899333Y01249139D01*
X00892147Y01249139D01*
X00885018Y01251515D01*
X00882641Y01253947D01*
X00880209Y01258700D01*
X00767588Y01544614D02*
X00789088Y01544614D01*
X00796273Y01547046D01*
X00798705Y01549423D01*
X00801082Y01554176D01*
X00801082Y01558984D01*
X00798705Y01563738D01*
X00796273Y01566170D01*
X00789088Y01568546D01*
X00767588Y01568546D01*
X00767588Y01518306D01*
X00784335Y01544614D02*
X00801082Y01518306D01*
X00840453Y01518306D02*
X00840453Y01568491D01*
X00816521Y01535053D01*
X00852391Y01535053D01*
X00519290Y01519518D02*
X00519290Y01483648D01*
X00521667Y01476463D01*
X00526475Y01471710D01*
X00533660Y01469278D01*
X00538414Y01469278D01*
X00545599Y01471710D01*
X00550407Y01476463D01*
X00552784Y01483648D01*
X00552784Y01519518D01*
X00568223Y01509901D02*
X00573031Y01512333D01*
X00580216Y01519463D01*
X00580216Y01469278D01*
X00454905Y01771131D02*
X00474028Y01747199D01*
X00474028Y01720891D01*
X00493151Y01771131D02*
X00474028Y01747199D01*
X00508590Y01761514D02*
X00513399Y01763946D01*
X00520584Y01771075D01*
X00520584Y01720891D01*
G04 next file*
%LPD*%
G90*
G75*
G01*
X01646219Y01605548D02*
D100*
X01417855Y01605548D01*
X01417855Y01377224D01*
X01646219Y01377224D01*
X01646219Y01605548D01*
D110*
X01677334Y01657200D03*
G36*
X01646219Y01605548D02*
X01614726Y01605548D01*
X01646219Y01574055D01*
X01646219Y01605548D01*
G37*
X01804964Y01088777D02*
D134*
X01804964Y01110277D01*
X01802530Y01117462D01*
X01800156Y01119894D01*
X01795403Y01122271D01*
X01790592Y01122271D01*
X01785841Y01119894D01*
X01783407Y01117462D01*
X01781032Y01110277D01*
X01781032Y01088777D01*
X01831272Y01088777D01*
X01804964Y01105524D02*
X01831272Y01122271D01*
X01790648Y01137710D02*
X01788217Y01142518D01*
X01781088Y01149703D01*
X01831272Y01149703D01*
X01604546Y01146778D02*
X01604546Y01168278D01*
X01602114Y01175463D01*
X01599738Y01177895D01*
X01594985Y01180271D01*
X01590176Y01180271D01*
X01585423Y01177895D01*
X01582991Y01175463D01*
X01580614Y01168278D01*
X01580614Y01146778D01*
X01630854Y01146778D01*
X01604546Y01163525D02*
X01630854Y01180271D01*
X01592608Y01198143D02*
X01590231Y01198143D01*
X01585423Y01200519D01*
X01583046Y01202896D01*
X01580670Y01207704D01*
X01580670Y01217266D01*
X01583046Y01222019D01*
X01585423Y01224396D01*
X01590231Y01226827D01*
X01594985Y01226827D01*
X01599793Y01224396D01*
X01606923Y01219642D01*
X01630854Y01195711D01*
X01630854Y01229204D01*
X01815529Y01275447D02*
X01837029Y01275447D01*
X01844214Y01277879D01*
X01846645Y01280256D01*
X01849022Y01285009D01*
X01849022Y01289817D01*
X01846645Y01294570D01*
X01844214Y01297002D01*
X01837029Y01299379D01*
X01815529Y01299379D01*
X01815529Y01249139D01*
X01832275Y01275447D02*
X01849022Y01249139D01*
X01869269Y01299323D02*
X01895523Y01299323D01*
X01881207Y01280200D01*
X01888392Y01280200D01*
X01893145Y01277824D01*
X01895523Y01275447D01*
X01897955Y01268262D01*
X01897955Y01263509D01*
X01895523Y01256324D01*
X01890770Y01251515D01*
X01883585Y01249139D01*
X01876399Y01249139D01*
X01869269Y01251515D01*
X01866893Y01253947D01*
X01864461Y01258700D01*
X01751840Y01544614D02*
X01773340Y01544614D01*
X01780525Y01547046D01*
X01782957Y01549423D01*
X01785334Y01554176D01*
X01785334Y01558984D01*
X01782957Y01563738D01*
X01780525Y01566170D01*
X01773340Y01568546D01*
X01751840Y01568546D01*
X01751840Y01518306D01*
X01768587Y01544614D02*
X01785334Y01518306D01*
X01824705Y01518306D02*
X01824705Y01568491D01*
X01800773Y01535053D01*
X01836643Y01535053D01*
X01503542Y01519518D02*
X01503542Y01483648D01*
X01505919Y01476463D01*
X01510727Y01471710D01*
X01517912Y01469278D01*
X01522666Y01469278D01*
X01529851Y01471710D01*
X01534659Y01476463D01*
X01537036Y01483648D01*
X01537036Y01519518D01*
X01552475Y01509901D02*
X01557283Y01512333D01*
X01564468Y01519463D01*
X01564468Y01469278D01*
X01439157Y01771131D02*
X01458280Y01747199D01*
X01458280Y01720891D01*
X01477403Y01771131D02*
X01458280Y01747199D01*
X01492842Y01761514D02*
X01497650Y01763946D01*
X01504835Y01771075D01*
X01504835Y01720891D01*
G04 next file*
G04 DipTrace 3.3.1.1*
G04 TopSilk.gto*
G04 #@! TF.FileFunction,Legend,Top*
G04 #@! TF.Part,Single*
G04*
G04 skipping 70
G90*
G75*
G01*
G04 TopSilk*
X01646219Y00621296D02*
D145*
X01417855Y00621296D01*
X01417855Y00392972D01*
X01646219Y00392972D01*
X01646219Y00621296D01*
D155*
X01677334Y00672949D03*
G36*
X01646219Y00621296D02*
X01614726Y00621296D01*
X01646219Y00589803D01*
X01646219Y00621296D01*
G37*
X01804964Y00104525D02*
D179*
X01804964Y00126025D01*
X01802530Y00133210D01*
X01800156Y00135642D01*
X01795403Y00138019D01*
X01790592Y00138019D01*
X01785841Y00135642D01*
X01783407Y00133210D01*
X01781032Y00126025D01*
X01781032Y00104525D01*
X01831272Y00104525D01*
X01804964Y00121272D02*
X01831272Y00138019D01*
X01790648Y00153458D02*
X01788217Y00158266D01*
X01781088Y00165451D01*
X01831272Y00165451D01*
X01604546Y00162526D02*
X01604546Y00184026D01*
X01602114Y00191211D01*
X01599738Y00193642D01*
X01594985Y00196019D01*
X01590176Y00196019D01*
X01585423Y00193642D01*
X01582991Y00191211D01*
X01580614Y00184026D01*
X01580614Y00162526D01*
X01630854Y00162526D01*
X01604546Y00179273D02*
X01630854Y00196019D01*
X01592608Y00213891D02*
X01590231Y00213891D01*
X01585423Y00216267D01*
X01583046Y00218644D01*
X01580670Y00223452D01*
X01580670Y00233014D01*
X01583046Y00237767D01*
X01585423Y00240144D01*
X01590231Y00242575D01*
X01594985Y00242575D01*
X01599793Y00240144D01*
X01606923Y00235390D01*
X01630854Y00211459D01*
X01630854Y00244952D01*
X01815529Y00291195D02*
X01837029Y00291195D01*
X01844214Y00293627D01*
X01846645Y00296004D01*
X01849022Y00300757D01*
X01849022Y00305565D01*
X01846645Y00310318D01*
X01844214Y00312750D01*
X01837029Y00315127D01*
X01815529Y00315127D01*
X01815529Y00264887D01*
X01832275Y00291195D02*
X01849022Y00264887D01*
X01869269Y00315071D02*
X01895523Y00315071D01*
X01881207Y00295948D01*
X01888392Y00295948D01*
X01893145Y00293572D01*
X01895523Y00291195D01*
X01897955Y00284010D01*
X01897955Y00279257D01*
X01895523Y00272072D01*
X01890770Y00267263D01*
X01883585Y00264887D01*
X01876399Y00264887D01*
X01869269Y00267263D01*
X01866893Y00269695D01*
X01864461Y00274448D01*
X01751840Y00560362D02*
X01773340Y00560362D01*
X01780525Y00562794D01*
X01782957Y00565171D01*
X01785334Y00569924D01*
X01785334Y00574732D01*
X01782957Y00579486D01*
X01780525Y00581918D01*
X01773340Y00584294D01*
X01751840Y00584294D01*
X01751840Y00534054D01*
X01768587Y00560362D02*
X01785334Y00534054D01*
X01824705Y00534054D02*
X01824705Y00584239D01*
X01800773Y00550801D01*
X01836643Y00550801D01*
X01503542Y00535266D02*
X01503542Y00499396D01*
X01505919Y00492211D01*
X01510727Y00487458D01*
X01517912Y00485026D01*
X01522666Y00485026D01*
X01529851Y00487458D01*
X01534659Y00492211D01*
X01537036Y00499396D01*
X01537036Y00535266D01*
X01552475Y00525649D02*
X01557283Y00528081D01*
X01564468Y00535211D01*
X01564468Y00485026D01*
X01439157Y00786878D02*
X01458280Y00762947D01*
X01458280Y00736639D01*
X01477403Y00786878D02*
X01458280Y00762947D01*
X01492842Y00777262D02*
X01497650Y00779693D01*
X01504835Y00786823D01*
X01504835Y00736639D01*
M02*