%MOIN*%
%OFA0B0*%
%FSLAX26Y26*%
%IPPOS*%
%LPD*%
%ADD33R,0.11712X0.04712*%
%ADD43R,0.19212X0.04662*%
%ADD77R,0.11712X0.04712*%
%ADD87R,0.19212X0.04662*%
%ADD121R,0.11712X0.04712*%
%ADD131R,0.19212X0.04662*%
%ADD165R,0.11712X0.04712*%
%ADD175R,0.19212X0.04662*%
%LPD*%
G90*
G75*
G01*
D43*
X-00314960Y-00314960D02*
X00185134Y00164435D03*
X00185134Y00273435D03*
X00185134Y00382435D03*
X00185134Y00491435D03*
X00185134Y00600435D03*
X00185134Y00709435D03*
X00185134Y00818435D03*
D33*
X00847490Y00803738D03*
X00847490Y00726294D03*
X00847490Y00648849D03*
X00847490Y00571406D03*
X00847490Y00493961D03*
X00847490Y00416516D03*
X00847490Y00339072D03*
X00847490Y00261627D03*
X00847490Y00184183D03*
G90*
G75*
G01*
D87*
X-00314960Y00669291D02*
X00185134Y01148687D03*
X00185134Y01257687D03*
X00185134Y01366687D03*
X00185134Y01475687D03*
X00185134Y01584687D03*
X00185134Y01693687D03*
X00185134Y01802687D03*
D77*
X00847490Y01787991D03*
X00847490Y01710546D03*
X00847490Y01633101D03*
X00847490Y01555658D03*
X00847490Y01478213D03*
X00847490Y01400768D03*
X00847490Y01323324D03*
X00847490Y01245879D03*
X00847490Y01168435D03*
G04 next file*
%LPD*%
G90*
G75*
G01*
D131*
X00669291Y00669291D02*
X01169386Y01148687D03*
X01169386Y01257687D03*
X01169386Y01366687D03*
X01169386Y01475687D03*
X01169386Y01584687D03*
X01169386Y01693687D03*
X01169386Y01802687D03*
D121*
X01831742Y01787991D03*
X01831742Y01710546D03*
X01831742Y01633101D03*
X01831742Y01555658D03*
X01831742Y01478213D03*
X01831742Y01400768D03*
X01831742Y01323324D03*
X01831742Y01245879D03*
X01831742Y01168435D03*
G04 next file*
G04 DipTrace 3.3.1.1*
G04 BottomPaste.gbp*
G04 #@! TF.FileFunction,Paste,Bot*
G04 #@! TF.Part,Single*
G04*
G04 skipping 70
G90*
G75*
G01*
G04 BotPaste*
D175*
X00669291Y-00314960D02*
X01169386Y00164435D03*
X01169386Y00273435D03*
X01169386Y00382435D03*
X01169386Y00491435D03*
X01169386Y00600435D03*
X01169386Y00709435D03*
X01169386Y00818435D03*
D165*
X01831742Y00803738D03*
X01831742Y00726294D03*
X01831742Y00648849D03*
X01831742Y00571406D03*
X01831742Y00493961D03*
X01831742Y00416516D03*
X01831742Y00339072D03*
X01831742Y00261627D03*
X01831742Y00184183D03*
M02*