%
M48
METRIC,000.000
T01C0.49
T10C0.50
%
T01
X020575Y012477
X022162Y010729
X021209Y006645
X021209Y004677
X018784Y007814
X014771Y006061
X010295Y004030
X009508Y005563
X008555Y006907
X009508Y007859
X011367Y010889
X011451Y012332
X012403Y013285
X011451Y015164
X010889Y018667
X008555Y018019
X008555Y019406
X010254Y021524
X013907Y019619
X016129Y018984
X017852Y017953
X021209Y018449
X016218Y014224
X016218Y011710
X020575Y037477
X022162Y035729
X021209Y031645
X021209Y029677
X018784Y032814
X014771Y031061
X010295Y029031
X009508Y030563
X008555Y031907
X009508Y032859
X011367Y035889
X011451Y037332
X012403Y038285
X011451Y040164
X010889Y043667
X008555Y043019
X008555Y044406
X010254Y046524
X013907Y044619
X016129Y043984
X017852Y042953
X021209Y043449
X016218Y039224
X016218Y036710
X045575Y037477
X047162Y035729
X046209Y031645
X046209Y029677
X043784Y032814
X039771Y031061
X035295Y029031
X034508Y030563
X033555Y031907
X034508Y032859
X036367Y035889
X036451Y037332
X037403Y038285
X036451Y040164
X035889Y043667
X033555Y043019
X033555Y044406
X035254Y046524
X038907Y044619
X041129Y043984
X042852Y042953
X046209Y043449
X041218Y039224
X041218Y036710
X045575Y012477
X047162Y010729
X046209Y006645
X046209Y004677
X043784Y007814
X039771Y006061
X035295Y004030
X034508Y005563
X033555Y006907
X034508Y007859
X036367Y010889
X036451Y012332
X037403Y013285
X036451Y015164
X035889Y018667
X033555Y018019
X033555Y019406
X035254Y021524
X038907Y019619
X041129Y018984
X042852Y017953
X046209Y018449
X041218Y014224
X041218Y011710
T10
X023522Y041607
X023522Y042607
X023522Y043607
X023522Y044607
X023522Y045607
X023522Y046607
X026749Y046360
X026749Y045360
X026749Y044360
X026749Y043360
X026749Y042360
X023522Y028607
X023522Y029607
X023522Y030607
X023522Y031607
X023522Y032607
X023522Y033607
X026749Y033360
X026749Y032360
X026749Y031360
X026749Y030360
X026749Y029360
X023522Y014607
X023522Y015607
X023522Y016607
X023522Y017607
X023522Y018607
X023522Y019607
X026749Y019360
X026749Y018360
X026749Y017360
X026749Y016360
X026749Y015360
X023522Y002607
X023522Y003607
X023522Y004607
X023522Y005607
X023522Y006607
X023522Y007607
X026749Y007360
X026749Y006360
X026749Y005360
X026749Y004360
X026749Y003360
X007012Y023204
X006012Y023204
X005012Y023204
X004011Y023204
X003012Y023204
X003246Y026749
X004246Y026749
X005246Y026749
X006246Y026749
X007246Y026749
X021012Y023204
X020012Y023204
X019012Y023204
X018012Y023204
X017012Y023204
X017246Y026749
X018246Y026749
X019246Y026749
X020246Y026749
X021246Y026749
X029246Y026749
X030246Y026749
X031246Y026749
X032246Y026749
X033246Y026749
X033012Y023204
X032012Y023204
X031012Y023204
X030012Y023204
X029012Y023204
X043246Y026749
X044246Y026749
X045246Y026749
X046246Y026749
X047246Y026749
X047012Y023204
X046012Y023204
X045012Y023204
X044012Y023204
X043012Y023204
M30