%MOIN*%
%OFA0B0*%
%FSLAX26Y26*%
%IPPOS*%
%LPD*%
%ADD44C,0.0077199999999999994*%
%ADD89C,0.0077199999999999994*%
%ADD134C,0.0077199999999999994*%
%ADD179C,0.0077199999999999994*%
%LPD*%
G90*
G75*
G01*
X00344141Y00815363D02*
D44*
X00339331Y00820116D01*
X00336956Y00827301D01*
X00336956Y00836864D01*
X00339331Y00844049D01*
X00344141Y00848856D01*
X00348894Y00848856D01*
X00353702Y00846424D01*
X00356079Y00844049D01*
X00358454Y00839296D01*
X00363264Y00824926D01*
X00365639Y00820116D01*
X00368072Y00817741D01*
X00372826Y00815363D01*
X00380011Y00815363D01*
X00384764Y00820116D01*
X00387196Y00827301D01*
X00387196Y00836864D01*
X00384764Y00844049D01*
X00380011Y00848856D01*
X00368072Y00799925D02*
X00368072Y00771240D01*
X00363264Y00771240D01*
X00358454Y00773616D01*
X00356079Y00775993D01*
X00353702Y00780801D01*
X00353702Y00787987D01*
X00356079Y00792740D01*
X00360887Y00797548D01*
X00368072Y00799925D01*
X00372826Y00799925D01*
X00380011Y00797548D01*
X00384764Y00792740D01*
X00387196Y00787987D01*
X00387196Y00780801D01*
X00384764Y00775993D01*
X00380011Y00771240D01*
X00356079Y00727115D02*
X00394381Y00727115D01*
X00401510Y00729492D01*
X00403942Y00731868D01*
X00406319Y00736677D01*
X00406319Y00743862D01*
X00403942Y00748615D01*
X00363264Y00727115D02*
X00358511Y00731868D01*
X00356079Y00736677D01*
X00356079Y00743862D01*
X00358511Y00748615D01*
X00363264Y00753423D01*
X00370449Y00755800D01*
X00375257Y00755800D01*
X00382387Y00753423D01*
X00387196Y00748615D01*
X00389572Y00743862D01*
X00389572Y00736677D01*
X00387196Y00731868D01*
X00382387Y00727115D01*
X00353702Y00682992D02*
X00387196Y00682992D01*
X00360887Y00682992D02*
X00356079Y00687745D01*
X00353702Y00692553D01*
X00353702Y00699683D01*
X00356079Y00704491D01*
X00360887Y00709245D01*
X00368072Y00711676D01*
X00372826Y00711676D01*
X00380011Y00709245D01*
X00384764Y00704491D01*
X00387196Y00699683D01*
X00387196Y00692553D01*
X00384764Y00687745D01*
X00380011Y00682992D01*
X00344141Y00585458D02*
X00339331Y00590211D01*
X00336956Y00597396D01*
X00336956Y00606958D01*
X00339331Y00614143D01*
X00344141Y00618951D01*
X00348894Y00618951D01*
X00353702Y00616520D01*
X00356079Y00614143D01*
X00358454Y00609390D01*
X00363264Y00595020D01*
X00365639Y00590211D01*
X00368072Y00587835D01*
X00372826Y00585458D01*
X00380011Y00585458D01*
X00384764Y00590211D01*
X00387196Y00597396D01*
X00387196Y00606958D01*
X00384764Y00614143D01*
X00380011Y00618951D01*
X00353702Y00541334D02*
X00387196Y00541334D01*
X00360887Y00541334D02*
X00356079Y00546087D01*
X00353702Y00550896D01*
X00353702Y00558025D01*
X00356079Y00562834D01*
X00360887Y00567587D01*
X00368072Y00570019D01*
X00372826Y00570019D01*
X00380011Y00567587D01*
X00384764Y00562834D01*
X00387196Y00558025D01*
X00387196Y00550896D01*
X00384764Y00546087D01*
X00380011Y00541334D01*
X00336956Y00518710D02*
X00377634Y00518710D01*
X00384764Y00516333D01*
X00387196Y00511525D01*
X00387196Y00506771D01*
X00353702Y00525895D02*
X00353702Y00509148D01*
X00353702Y00491332D02*
X00377634Y00491332D01*
X00384764Y00488956D01*
X00387196Y00484147D01*
X00387196Y00476962D01*
X00384764Y00472209D01*
X00377634Y00465024D01*
X00353702Y00465024D02*
X00387196Y00465024D01*
X00353702Y00449585D02*
X00387196Y00449585D01*
X00368072Y00449585D02*
X00360887Y00447153D01*
X00356079Y00442400D01*
X00353702Y00437591D01*
X00353702Y00430405D01*
X00353702Y00414967D02*
X00387196Y00414967D01*
X00363264Y00414967D02*
X00356079Y00407782D01*
X00353702Y00402973D01*
X00353702Y00395844D01*
X00356079Y00391035D01*
X00363264Y00388659D01*
X00387196Y00388659D01*
X00448789Y00846880D02*
X00448789Y00825324D01*
X00446413Y00818194D01*
X00443981Y00815764D01*
X00439228Y00813386D01*
X00432043Y00813386D01*
X00427290Y00815764D01*
X00424858Y00818194D01*
X00422481Y00825324D01*
X00422481Y00846880D01*
X00472721Y00846880D01*
X00439228Y00769263D02*
X00472721Y00769263D01*
X00446413Y00769263D02*
X00441604Y00774016D01*
X00439228Y00778824D01*
X00439228Y00785954D01*
X00441604Y00790763D01*
X00446413Y00795516D01*
X00453598Y00797948D01*
X00458351Y00797948D01*
X00465536Y00795516D01*
X00470289Y00790763D01*
X00472721Y00785954D01*
X00472721Y00778824D01*
X00470289Y00774016D01*
X00465536Y00769263D01*
X00422481Y00725138D02*
X00472721Y00725138D01*
X00446413Y00725138D02*
X00441604Y00729891D01*
X00439228Y00734700D01*
X00439228Y00741884D01*
X00441604Y00746639D01*
X00446413Y00751446D01*
X00453598Y00753824D01*
X00458351Y00753824D01*
X00465536Y00751446D01*
X00470289Y00746639D01*
X00472721Y00741884D01*
X00472721Y00734700D01*
X00470289Y00729891D01*
X00465536Y00725138D01*
X00422481Y00661099D02*
X00472721Y00661099D01*
X00472721Y00644352D01*
X00470289Y00637167D01*
X00465536Y00632358D01*
X00460728Y00629982D01*
X00453598Y00627605D01*
X00441604Y00627605D01*
X00434419Y00629982D01*
X00429666Y00632358D01*
X00424858Y00637167D01*
X00422481Y00644352D01*
X00422481Y00661099D01*
X00453598Y00612166D02*
X00453598Y00583481D01*
X00448789Y00583481D01*
X00443981Y00585858D01*
X00441604Y00588234D01*
X00439228Y00593043D01*
X00439228Y00600228D01*
X00441604Y00604981D01*
X00446413Y00609789D01*
X00453598Y00612166D01*
X00458351Y00612166D01*
X00465536Y00609789D01*
X00470289Y00604981D01*
X00472721Y00600228D01*
X00472721Y00593043D01*
X00470289Y00588234D01*
X00465536Y00583481D01*
X00439228Y00568042D02*
X00472721Y00568042D01*
X00448789Y00568042D02*
X00441604Y00560857D01*
X00439228Y00556048D01*
X00439228Y00548919D01*
X00441604Y00544110D01*
X00448789Y00541734D01*
X00472721Y00541733D01*
X00448789Y00541734D02*
X00441604Y00534548D01*
X00439228Y00529740D01*
X00439228Y00522610D01*
X00441604Y00517802D01*
X00448789Y00515370D01*
X00472721Y00515370D01*
X00439228Y00499931D02*
X00463159Y00499931D01*
X00470289Y00497554D01*
X00472721Y00492746D01*
X00472721Y00485561D01*
X00470289Y00480807D01*
X00463159Y00473622D01*
X00439228Y00473622D02*
X00472721Y00473622D01*
X00439228Y00458182D02*
X00472721Y00431874D01*
X00439228Y00431874D02*
X00472721Y00458182D01*
X00453598Y00416436D02*
X00453598Y00387750D01*
X00448790Y00387750D01*
X00443981Y00390127D01*
X00441604Y00392504D01*
X00439228Y00397312D01*
X00439228Y00404497D01*
X00441604Y00409250D01*
X00446413Y00414058D01*
X00453598Y00416436D01*
X00458351Y00416436D01*
X00465536Y00414058D01*
X00470289Y00409250D01*
X00472721Y00404497D01*
X00472721Y00397312D01*
X00470289Y00392504D01*
X00465536Y00387750D01*
X00439228Y00372311D02*
X00472721Y00372311D01*
X00453598Y00372311D02*
X00446413Y00369880D01*
X00441604Y00365126D01*
X00439228Y00360318D01*
X00439228Y00353133D01*
X00428786Y00299314D02*
X00479026Y00280191D01*
X00428786Y00261067D01*
X00428841Y00231258D02*
X00431218Y00238442D01*
X00438403Y00243251D01*
X00450341Y00245628D01*
X00457526Y00245628D01*
X00469464Y00243251D01*
X00476649Y00238442D01*
X00479026Y00231258D01*
X00479026Y00226505D01*
X00476649Y00219320D01*
X00469464Y00214567D01*
X00457526Y00212134D01*
X00450341Y00212134D01*
X00438403Y00214567D01*
X00431218Y00219320D01*
X00428841Y00226505D01*
X00428841Y00231258D01*
X00438403Y00214567D02*
X00469464Y00243251D01*
X00474217Y00194319D02*
X00476649Y00196695D01*
X00479026Y00194319D01*
X00476649Y00191887D01*
X00474217Y00194319D01*
X00479026Y00152516D02*
X00428841Y00152516D01*
X00462279Y00176447D01*
X00462279Y00140578D01*
X00633835Y00804874D02*
X00583595Y00824053D01*
X00633835Y00843176D01*
X00617089Y00835991D02*
X00617089Y00812059D01*
X00600342Y00789435D02*
X00633835Y00789435D01*
X00614712Y00789435D02*
X00607527Y00787002D01*
X00602719Y00782250D01*
X00600342Y00777442D01*
X00600342Y00770257D01*
X00583595Y00747632D02*
X00624274Y00747632D01*
X00631403Y00745256D01*
X00633835Y00740447D01*
X00633835Y00735694D01*
X00600342Y00754817D02*
X00600342Y00738071D01*
X00583595Y00720254D02*
X00633835Y00720254D01*
X00609904Y00720254D02*
X00602719Y00713069D01*
X00600342Y00708261D01*
X00600342Y00701076D01*
X00602719Y00696322D01*
X00609904Y00693946D01*
X00633835Y00693946D01*
X00600342Y00678507D02*
X00633835Y00678507D01*
X00614712Y00678507D02*
X00607527Y00676076D01*
X00602719Y00671322D01*
X00600342Y00666514D01*
X00600342Y00659329D01*
X00583595Y00643889D02*
X00585972Y00641513D01*
X00583595Y00639081D01*
X00581163Y00641513D01*
X00583595Y00643889D01*
X00600342Y00641513D02*
X00633835Y00641513D01*
X00600342Y00623642D02*
X00633835Y00623642D01*
X00609904Y00623642D02*
X00602719Y00616457D01*
X00600342Y00611648D01*
X00600342Y00604519D01*
X00602719Y00599710D01*
X00609904Y00597334D01*
X00633835Y00597334D01*
X00609904Y00597334D02*
X00602719Y00590149D01*
X00600342Y00585340D01*
X00600342Y00578210D01*
X00602719Y00573402D01*
X00609904Y00570970D01*
X00633835Y00570970D01*
X00600342Y00555531D02*
X00624274Y00555531D01*
X00631403Y00553154D01*
X00633835Y00548346D01*
X00633835Y00541161D01*
X00631403Y00536408D01*
X00624274Y00529222D01*
X00600342Y00529222D02*
X00633835Y00529222D01*
X00607527Y00487475D02*
X00602719Y00489852D01*
X00600342Y00497036D01*
X00600342Y00504221D01*
X00602719Y00511406D01*
X00607527Y00513783D01*
X00612280Y00511406D01*
X00614712Y00506598D01*
X00617089Y00494660D01*
X00619465Y00489852D01*
X00624274Y00487475D01*
X00626650Y00487475D01*
X00631403Y00489852D01*
X00633835Y00497036D01*
X00633835Y00504221D01*
X00631403Y00511406D01*
X00626650Y00513783D01*
X00595589Y00421003D02*
X00593212Y00421003D01*
X00588404Y00418626D01*
X00586027Y00416250D01*
X00583651Y00411441D01*
X00583651Y00401880D01*
X00586027Y00397126D01*
X00588404Y00394750D01*
X00593212Y00392318D01*
X00597965Y00392318D01*
X00602774Y00394750D01*
X00609904Y00399503D01*
X00633835Y00423435D01*
X00633835Y00389941D01*
X00583651Y00360132D02*
X00586027Y00367317D01*
X00593212Y00372126D01*
X00605150Y00374502D01*
X00612336Y00374502D01*
X00624274Y00372126D01*
X00631459Y00367317D01*
X00633835Y00360132D01*
X00633835Y00355379D01*
X00631459Y00348194D01*
X00624274Y00343441D01*
X00612336Y00341009D01*
X00605151Y00341009D01*
X00593212Y00343441D01*
X00586027Y00348194D01*
X00583651Y00355379D01*
X00583651Y00360132D01*
X00593212Y00343441D02*
X00624274Y00372126D01*
X00593212Y00325569D02*
X00590780Y00320761D01*
X00583651Y00313576D01*
X00633835Y00313576D01*
X00600342Y00267020D02*
X00607527Y00269452D01*
X00612336Y00274205D01*
X00614712Y00281390D01*
X00614712Y00283767D01*
X00612336Y00290952D01*
X00607527Y00295705D01*
X00600342Y00298137D01*
X00597965Y00298137D01*
X00590780Y00295705D01*
X00586027Y00290952D01*
X00583651Y00283767D01*
X00583651Y00281390D01*
X00586027Y00274205D01*
X00590780Y00269452D01*
X00600342Y00267020D01*
X00612335Y00267020D01*
X00624274Y00269452D01*
X00631459Y00274205D01*
X00633835Y00281390D01*
X00633835Y00286143D01*
X00631459Y00293328D01*
X00626650Y00295705D01*
G90*
G75*
G01*
X00344141Y01799616D02*
D89*
X00339331Y01804369D01*
X00336956Y01811554D01*
X00336956Y01821116D01*
X00339331Y01828301D01*
X00344141Y01833109D01*
X00348894Y01833109D01*
X00353702Y01830677D01*
X00356079Y01828301D01*
X00358454Y01823548D01*
X00363264Y01809178D01*
X00365639Y01804369D01*
X00368072Y01801993D01*
X00372826Y01799616D01*
X00380011Y01799616D01*
X00384764Y01804369D01*
X00387196Y01811554D01*
X00387196Y01821116D01*
X00384764Y01828301D01*
X00380011Y01833109D01*
X00368072Y01784177D02*
X00368072Y01755492D01*
X00363264Y01755492D01*
X00358454Y01757868D01*
X00356079Y01760245D01*
X00353702Y01765053D01*
X00353702Y01772239D01*
X00356079Y01776992D01*
X00360887Y01781800D01*
X00368072Y01784177D01*
X00372826Y01784177D01*
X00380011Y01781800D01*
X00384764Y01776992D01*
X00387196Y01772239D01*
X00387196Y01765053D01*
X00384764Y01760245D01*
X00380011Y01755492D01*
X00356079Y01711368D02*
X00394381Y01711368D01*
X00401510Y01713742D01*
X00403942Y01716121D01*
X00406319Y01720927D01*
X00406319Y01728112D01*
X00403942Y01732868D01*
X00363264Y01711368D02*
X00358511Y01716121D01*
X00356079Y01720927D01*
X00356079Y01728112D01*
X00358511Y01732868D01*
X00363264Y01737676D01*
X00370449Y01740053D01*
X00375257Y01740053D01*
X00382387Y01737676D01*
X00387196Y01732868D01*
X00389572Y01728112D01*
X00389572Y01720927D01*
X00387196Y01716121D01*
X00382387Y01711368D01*
X00353702Y01667244D02*
X00387196Y01667244D01*
X00360887Y01667244D02*
X00356079Y01671997D01*
X00353702Y01676805D01*
X00353702Y01683935D01*
X00356079Y01688743D01*
X00360887Y01693496D01*
X00368072Y01695928D01*
X00372826Y01695928D01*
X00380011Y01693496D01*
X00384764Y01688743D01*
X00387196Y01683935D01*
X00387196Y01676805D01*
X00384764Y01671997D01*
X00380011Y01667244D01*
X00344141Y01569710D02*
X00339331Y01574463D01*
X00336956Y01581648D01*
X00336956Y01591210D01*
X00339331Y01598395D01*
X00344141Y01603203D01*
X00348894Y01603203D01*
X00353702Y01600772D01*
X00356079Y01598395D01*
X00358454Y01593642D01*
X00363264Y01579272D01*
X00365639Y01574463D01*
X00368072Y01572087D01*
X00372826Y01569710D01*
X00380011Y01569710D01*
X00384764Y01574463D01*
X00387196Y01581648D01*
X00387196Y01591210D01*
X00384764Y01598395D01*
X00380011Y01603203D01*
X00353702Y01525586D02*
X00387196Y01525586D01*
X00360887Y01525586D02*
X00356079Y01530338D01*
X00353702Y01535148D01*
X00353702Y01542276D01*
X00356079Y01547086D01*
X00360887Y01551839D01*
X00368072Y01554271D01*
X00372826Y01554271D01*
X00380011Y01551839D01*
X00384764Y01547086D01*
X00387196Y01542276D01*
X00387196Y01535148D01*
X00384764Y01530338D01*
X00380011Y01525586D01*
X00336956Y01502962D02*
X00377634Y01502962D01*
X00384764Y01500585D01*
X00387196Y01495777D01*
X00387196Y01491023D01*
X00353702Y01510147D02*
X00353702Y01493400D01*
X00353702Y01475584D02*
X00377634Y01475584D01*
X00384764Y01473208D01*
X00387196Y01468399D01*
X00387196Y01461214D01*
X00384764Y01456461D01*
X00377634Y01449276D01*
X00353702Y01449276D02*
X00387196Y01449276D01*
X00353702Y01433837D02*
X00387196Y01433837D01*
X00368072Y01433837D02*
X00360887Y01431405D01*
X00356079Y01426652D01*
X00353702Y01421843D01*
X00353702Y01414658D01*
X00353702Y01399219D02*
X00387196Y01399219D01*
X00363264Y01399219D02*
X00356079Y01392034D01*
X00353702Y01387225D01*
X00353702Y01380096D01*
X00356079Y01375287D01*
X00363264Y01372911D01*
X00387196Y01372911D01*
X00448789Y01831132D02*
X00448789Y01809577D01*
X00446413Y01802447D01*
X00443981Y01800016D01*
X00439228Y01797639D01*
X00432043Y01797639D01*
X00427290Y01800016D01*
X00424858Y01802447D01*
X00422481Y01809577D01*
X00422481Y01831132D01*
X00472721Y01831132D01*
X00439228Y01753515D02*
X00472721Y01753515D01*
X00446413Y01753515D02*
X00441604Y01758268D01*
X00439228Y01763076D01*
X00439228Y01770206D01*
X00441604Y01775015D01*
X00446413Y01779768D01*
X00453598Y01782200D01*
X00458351Y01782200D01*
X00465536Y01779768D01*
X00470289Y01775015D01*
X00472721Y01770206D01*
X00472721Y01763076D01*
X00470289Y01758268D01*
X00465536Y01753515D01*
X00422481Y01709391D02*
X00472721Y01709391D01*
X00446413Y01709391D02*
X00441604Y01714144D01*
X00439228Y01718952D01*
X00439228Y01726137D01*
X00441604Y01730891D01*
X00446413Y01735699D01*
X00453598Y01738076D01*
X00458351Y01738076D01*
X00465536Y01735699D01*
X00470289Y01730891D01*
X00472721Y01726137D01*
X00472721Y01718952D01*
X00470289Y01714144D01*
X00465536Y01709391D01*
X00422481Y01645351D02*
X00472721Y01645351D01*
X00472721Y01628604D01*
X00470289Y01621419D01*
X00465536Y01616610D01*
X00460728Y01614234D01*
X00453598Y01611857D01*
X00441604Y01611857D01*
X00434419Y01614234D01*
X00429666Y01616610D01*
X00424858Y01621419D01*
X00422481Y01628604D01*
X00422481Y01645351D01*
X00453598Y01596418D02*
X00453598Y01567733D01*
X00448789Y01567733D01*
X00443981Y01570110D01*
X00441604Y01572486D01*
X00439228Y01577295D01*
X00439228Y01584480D01*
X00441604Y01589233D01*
X00446413Y01594041D01*
X00453598Y01596418D01*
X00458351Y01596418D01*
X00465536Y01594041D01*
X00470289Y01589233D01*
X00472721Y01584480D01*
X00472721Y01577295D01*
X00470289Y01572486D01*
X00465536Y01567733D01*
X00439228Y01552294D02*
X00472721Y01552294D01*
X00448789Y01552294D02*
X00441604Y01545109D01*
X00439228Y01540300D01*
X00439228Y01533171D01*
X00441604Y01528362D01*
X00448789Y01525986D01*
X00472721Y01525984D01*
X00448789Y01525986D02*
X00441604Y01518799D01*
X00439228Y01513992D01*
X00439228Y01506861D01*
X00441604Y01502054D01*
X00448789Y01499622D01*
X00472721Y01499622D01*
X00439228Y01484183D02*
X00463159Y01484183D01*
X00470289Y01481806D01*
X00472721Y01476998D01*
X00472721Y01469813D01*
X00470289Y01465059D01*
X00463159Y01457874D01*
X00439228Y01457874D02*
X00472721Y01457874D01*
X00439228Y01442435D02*
X00472721Y01416127D01*
X00439228Y01416127D02*
X00472721Y01442435D01*
X00453598Y01400688D02*
X00453598Y01372003D01*
X00448790Y01372003D01*
X00443981Y01374379D01*
X00441604Y01376756D01*
X00439228Y01381564D01*
X00439228Y01388749D01*
X00441604Y01393503D01*
X00446413Y01398311D01*
X00453598Y01400688D01*
X00458351Y01400688D01*
X00465536Y01398311D01*
X00470289Y01393503D01*
X00472721Y01388749D01*
X00472721Y01381564D01*
X00470289Y01376756D01*
X00465536Y01372003D01*
X00439228Y01356564D02*
X00472721Y01356564D01*
X00453598Y01356564D02*
X00446413Y01354132D01*
X00441604Y01349379D01*
X00439228Y01344569D01*
X00439228Y01337384D01*
X00428786Y01283566D02*
X00479026Y01264443D01*
X00428786Y01245319D01*
X00428841Y01215510D02*
X00431218Y01222695D01*
X00438403Y01227503D01*
X00450341Y01229880D01*
X00457526Y01229880D01*
X00469464Y01227503D01*
X00476649Y01222695D01*
X00479026Y01215510D01*
X00479026Y01210757D01*
X00476649Y01203572D01*
X00469464Y01198819D01*
X00457526Y01196387D01*
X00450341Y01196387D01*
X00438403Y01198819D01*
X00431218Y01203572D01*
X00428841Y01210757D01*
X00428841Y01215510D01*
X00438403Y01198819D02*
X00469464Y01227503D01*
X00474217Y01178571D02*
X00476649Y01180947D01*
X00479026Y01178571D01*
X00476649Y01176139D01*
X00474217Y01178571D01*
X00479026Y01136768D02*
X00428841Y01136768D01*
X00462279Y01160700D01*
X00462279Y01124830D01*
X00633835Y01789126D02*
X00583595Y01808305D01*
X00633835Y01827428D01*
X00617089Y01820243D02*
X00617089Y01796311D01*
X00600342Y01773687D02*
X00633835Y01773687D01*
X00614712Y01773687D02*
X00607527Y01771255D01*
X00602719Y01766502D01*
X00600342Y01761694D01*
X00600342Y01754509D01*
X00583595Y01731884D02*
X00624274Y01731884D01*
X00631403Y01729508D01*
X00633835Y01724699D01*
X00633835Y01719946D01*
X00600342Y01739069D02*
X00600342Y01722323D01*
X00583595Y01704507D02*
X00633835Y01704507D01*
X00609904Y01704507D02*
X00602719Y01697322D01*
X00600342Y01692511D01*
X00600342Y01685326D01*
X00602719Y01680575D01*
X00609904Y01678199D01*
X00633835Y01678199D01*
X00600342Y01662758D02*
X00633835Y01662758D01*
X00614712Y01662758D02*
X00607527Y01660327D01*
X00602719Y01655574D01*
X00600342Y01650766D01*
X00600342Y01643581D01*
X00583595Y01628142D02*
X00585972Y01625765D01*
X00583595Y01623333D01*
X00581163Y01625765D01*
X00583595Y01628142D01*
X00600342Y01625765D02*
X00633835Y01625765D01*
X00600342Y01607894D02*
X00633835Y01607894D01*
X00609904Y01607894D02*
X00602719Y01600709D01*
X00600342Y01595900D01*
X00600342Y01588771D01*
X00602719Y01583962D01*
X00609904Y01581586D01*
X00633835Y01581586D01*
X00609904Y01581586D02*
X00602719Y01574401D01*
X00600342Y01569592D01*
X00600342Y01562462D01*
X00602719Y01557654D01*
X00609904Y01555222D01*
X00633835Y01555222D01*
X00600342Y01539782D02*
X00624274Y01539782D01*
X00631403Y01537405D01*
X00633835Y01532597D01*
X00633835Y01525413D01*
X00631403Y01520659D01*
X00624274Y01513474D01*
X00600342Y01513474D02*
X00633835Y01513474D01*
X00607527Y01471727D02*
X00602719Y01474104D01*
X00600342Y01481289D01*
X00600342Y01488474D01*
X00602719Y01495659D01*
X00607527Y01498035D01*
X00612280Y01495659D01*
X00614712Y01490850D01*
X00617089Y01478912D01*
X00619465Y01474104D01*
X00624274Y01471727D01*
X00626650Y01471727D01*
X00631403Y01474104D01*
X00633835Y01481289D01*
X00633835Y01488474D01*
X00631403Y01495659D01*
X00626650Y01498035D01*
X00595589Y01405255D02*
X00593212Y01405255D01*
X00588404Y01402878D01*
X00586027Y01400502D01*
X00583651Y01395693D01*
X00583651Y01386132D01*
X00586027Y01381378D01*
X00588404Y01379002D01*
X00593212Y01376570D01*
X00597965Y01376570D01*
X00602774Y01379002D01*
X00609904Y01383755D01*
X00633835Y01407687D01*
X00633835Y01374193D01*
X00583651Y01344383D02*
X00586027Y01351568D01*
X00593212Y01356378D01*
X00605150Y01358753D01*
X00612336Y01358753D01*
X00624274Y01356378D01*
X00631459Y01351568D01*
X00633835Y01344383D01*
X00633835Y01339630D01*
X00631459Y01332445D01*
X00624274Y01327692D01*
X00612336Y01325260D01*
X00605151Y01325260D01*
X00593212Y01327692D01*
X00586027Y01332445D01*
X00583651Y01339630D01*
X00583651Y01344383D01*
X00593212Y01327692D02*
X00624274Y01356378D01*
X00593212Y01309822D02*
X00590780Y01305013D01*
X00583651Y01297828D01*
X00633835Y01297828D01*
X00600342Y01251272D02*
X00607527Y01253704D01*
X00612336Y01258457D01*
X00614712Y01265642D01*
X00614712Y01268019D01*
X00612336Y01275204D01*
X00607527Y01279957D01*
X00600342Y01282389D01*
X00597965Y01282389D01*
X00590780Y01279957D01*
X00586027Y01275204D01*
X00583651Y01268019D01*
X00583651Y01265642D01*
X00586027Y01258457D01*
X00590780Y01253704D01*
X00600342Y01251272D01*
X00612335Y01251272D01*
X00624274Y01253704D01*
X00631459Y01258457D01*
X00633835Y01265642D01*
X00633835Y01270395D01*
X00631459Y01277580D01*
X00626650Y01279957D01*
G04 next file*
%LPD*%
G90*
G75*
G01*
X01328393Y01799616D02*
D134*
X01323584Y01804369D01*
X01321208Y01811554D01*
X01321208Y01821116D01*
X01323584Y01828301D01*
X01328393Y01833109D01*
X01333146Y01833109D01*
X01337954Y01830677D01*
X01340331Y01828301D01*
X01342707Y01823548D01*
X01347516Y01809178D01*
X01349892Y01804369D01*
X01352324Y01801993D01*
X01357078Y01799616D01*
X01364263Y01799616D01*
X01369016Y01804369D01*
X01371448Y01811554D01*
X01371448Y01821116D01*
X01369016Y01828301D01*
X01364263Y01833109D01*
X01352324Y01784177D02*
X01352324Y01755492D01*
X01347516Y01755492D01*
X01342707Y01757868D01*
X01340331Y01760245D01*
X01337954Y01765053D01*
X01337954Y01772239D01*
X01340331Y01776992D01*
X01345139Y01781800D01*
X01352324Y01784177D01*
X01357078Y01784177D01*
X01364263Y01781800D01*
X01369016Y01776992D01*
X01371448Y01772239D01*
X01371448Y01765053D01*
X01369016Y01760245D01*
X01364263Y01755492D01*
X01340331Y01711368D02*
X01378633Y01711368D01*
X01385762Y01713742D01*
X01388194Y01716121D01*
X01390571Y01720927D01*
X01390571Y01728112D01*
X01388194Y01732868D01*
X01347516Y01711368D02*
X01342763Y01716121D01*
X01340331Y01720927D01*
X01340331Y01728112D01*
X01342763Y01732868D01*
X01347516Y01737676D01*
X01354701Y01740053D01*
X01359509Y01740053D01*
X01366639Y01737676D01*
X01371448Y01732868D01*
X01373824Y01728112D01*
X01373824Y01720927D01*
X01371448Y01716121D01*
X01366639Y01711368D01*
X01337954Y01667244D02*
X01371448Y01667244D01*
X01345139Y01667244D02*
X01340331Y01671997D01*
X01337954Y01676805D01*
X01337954Y01683935D01*
X01340331Y01688743D01*
X01345139Y01693496D01*
X01352324Y01695928D01*
X01357078Y01695928D01*
X01364263Y01693496D01*
X01369016Y01688743D01*
X01371448Y01683935D01*
X01371448Y01676805D01*
X01369016Y01671997D01*
X01364263Y01667244D01*
X01328393Y01569710D02*
X01323584Y01574463D01*
X01321208Y01581648D01*
X01321208Y01591210D01*
X01323584Y01598395D01*
X01328393Y01603203D01*
X01333146Y01603203D01*
X01337954Y01600772D01*
X01340331Y01598395D01*
X01342707Y01593642D01*
X01347516Y01579272D01*
X01349892Y01574463D01*
X01352324Y01572087D01*
X01357078Y01569710D01*
X01364263Y01569710D01*
X01369016Y01574463D01*
X01371448Y01581648D01*
X01371448Y01591210D01*
X01369016Y01598395D01*
X01364263Y01603203D01*
X01337954Y01525586D02*
X01371448Y01525586D01*
X01345139Y01525586D02*
X01340331Y01530338D01*
X01337954Y01535148D01*
X01337954Y01542276D01*
X01340331Y01547086D01*
X01345139Y01551839D01*
X01352324Y01554271D01*
X01357078Y01554271D01*
X01364263Y01551839D01*
X01369016Y01547086D01*
X01371448Y01542276D01*
X01371448Y01535148D01*
X01369016Y01530338D01*
X01364263Y01525586D01*
X01321208Y01502962D02*
X01361886Y01502962D01*
X01369016Y01500585D01*
X01371448Y01495777D01*
X01371448Y01491023D01*
X01337954Y01510147D02*
X01337954Y01493400D01*
X01337954Y01475584D02*
X01361886Y01475584D01*
X01369016Y01473208D01*
X01371448Y01468399D01*
X01371448Y01461214D01*
X01369016Y01456461D01*
X01361886Y01449276D01*
X01337954Y01449276D02*
X01371448Y01449276D01*
X01337954Y01433837D02*
X01371448Y01433837D01*
X01352324Y01433837D02*
X01345139Y01431405D01*
X01340331Y01426652D01*
X01337954Y01421843D01*
X01337954Y01414658D01*
X01337954Y01399219D02*
X01371448Y01399219D01*
X01347516Y01399219D02*
X01340331Y01392034D01*
X01337954Y01387225D01*
X01337954Y01380096D01*
X01340331Y01375287D01*
X01347516Y01372911D01*
X01371448Y01372911D01*
X01433041Y01831132D02*
X01433041Y01809577D01*
X01430664Y01802447D01*
X01428232Y01800016D01*
X01423479Y01797639D01*
X01416294Y01797639D01*
X01411541Y01800016D01*
X01409109Y01802447D01*
X01406733Y01809577D01*
X01406733Y01831132D01*
X01456972Y01831132D01*
X01423479Y01753515D02*
X01456972Y01753515D01*
X01430664Y01753515D02*
X01425856Y01758268D01*
X01423479Y01763076D01*
X01423479Y01770206D01*
X01425856Y01775015D01*
X01430664Y01779768D01*
X01437849Y01782200D01*
X01442602Y01782200D01*
X01449787Y01779768D01*
X01454540Y01775015D01*
X01456972Y01770206D01*
X01456972Y01763076D01*
X01454540Y01758268D01*
X01449787Y01753515D01*
X01406733Y01709391D02*
X01456972Y01709391D01*
X01430664Y01709391D02*
X01425856Y01714144D01*
X01423479Y01718952D01*
X01423479Y01726137D01*
X01425856Y01730891D01*
X01430664Y01735699D01*
X01437849Y01738076D01*
X01442602Y01738076D01*
X01449787Y01735699D01*
X01454540Y01730891D01*
X01456972Y01726137D01*
X01456972Y01718952D01*
X01454540Y01714144D01*
X01449787Y01709391D01*
X01406733Y01645351D02*
X01456972Y01645351D01*
X01456972Y01628604D01*
X01454540Y01621419D01*
X01449787Y01616610D01*
X01444980Y01614234D01*
X01437849Y01611857D01*
X01425856Y01611857D01*
X01418671Y01614234D01*
X01413918Y01616610D01*
X01409109Y01621419D01*
X01406733Y01628604D01*
X01406733Y01645351D01*
X01437849Y01596418D02*
X01437849Y01567733D01*
X01433041Y01567733D01*
X01428232Y01570110D01*
X01425856Y01572486D01*
X01423479Y01577295D01*
X01423479Y01584480D01*
X01425856Y01589233D01*
X01430664Y01594041D01*
X01437849Y01596418D01*
X01442602Y01596418D01*
X01449787Y01594041D01*
X01454540Y01589233D01*
X01456972Y01584480D01*
X01456972Y01577295D01*
X01454540Y01572486D01*
X01449787Y01567733D01*
X01423479Y01552294D02*
X01456972Y01552294D01*
X01433041Y01552294D02*
X01425856Y01545109D01*
X01423479Y01540300D01*
X01423479Y01533171D01*
X01425856Y01528362D01*
X01433041Y01525986D01*
X01456972Y01525984D01*
X01433041Y01525986D02*
X01425856Y01518799D01*
X01423479Y01513992D01*
X01423479Y01506861D01*
X01425856Y01502054D01*
X01433041Y01499622D01*
X01456972Y01499622D01*
X01423479Y01484183D02*
X01447412Y01484183D01*
X01454540Y01481806D01*
X01456972Y01476998D01*
X01456972Y01469813D01*
X01454540Y01465059D01*
X01447412Y01457874D01*
X01423479Y01457874D02*
X01456972Y01457874D01*
X01423479Y01442435D02*
X01456972Y01416127D01*
X01423479Y01416127D02*
X01456972Y01442435D01*
X01437849Y01400688D02*
X01437849Y01372003D01*
X01433042Y01372003D01*
X01428232Y01374379D01*
X01425856Y01376756D01*
X01423479Y01381564D01*
X01423479Y01388749D01*
X01425856Y01393503D01*
X01430664Y01398311D01*
X01437849Y01400688D01*
X01442602Y01400688D01*
X01449787Y01398311D01*
X01454540Y01393503D01*
X01456972Y01388749D01*
X01456972Y01381564D01*
X01454540Y01376756D01*
X01449787Y01372003D01*
X01423479Y01356564D02*
X01456972Y01356564D01*
X01437849Y01356564D02*
X01430664Y01354132D01*
X01425856Y01349379D01*
X01423479Y01344569D01*
X01423479Y01337384D01*
X01413038Y01283566D02*
X01463278Y01264443D01*
X01413038Y01245319D01*
X01413091Y01215510D02*
X01415470Y01222695D01*
X01422655Y01227503D01*
X01434593Y01229880D01*
X01441778Y01229880D01*
X01453716Y01227503D01*
X01460901Y01222695D01*
X01463278Y01215510D01*
X01463278Y01210757D01*
X01460901Y01203572D01*
X01453716Y01198819D01*
X01441778Y01196387D01*
X01434593Y01196387D01*
X01422655Y01198819D01*
X01415470Y01203572D01*
X01413091Y01210757D01*
X01413091Y01215510D01*
X01422655Y01198819D02*
X01453716Y01227503D01*
X01458469Y01178571D02*
X01460901Y01180947D01*
X01463278Y01178571D01*
X01460901Y01176139D01*
X01458469Y01178571D01*
X01463278Y01136768D02*
X01413091Y01136768D01*
X01446531Y01160700D01*
X01446531Y01124830D01*
X01618087Y01789126D02*
X01567846Y01808305D01*
X01618087Y01827428D01*
X01601339Y01820243D02*
X01601339Y01796311D01*
X01584594Y01773687D02*
X01618087Y01773687D01*
X01598964Y01773687D02*
X01591779Y01771255D01*
X01586970Y01766502D01*
X01584594Y01761694D01*
X01584594Y01754509D01*
X01567846Y01731884D02*
X01608524Y01731884D01*
X01615655Y01729508D01*
X01618087Y01724699D01*
X01618087Y01719946D01*
X01584594Y01739069D02*
X01584594Y01722323D01*
X01567846Y01704507D02*
X01618087Y01704507D01*
X01594154Y01704507D02*
X01586970Y01697322D01*
X01584594Y01692511D01*
X01584594Y01685326D01*
X01586970Y01680575D01*
X01594154Y01678199D01*
X01618087Y01678199D01*
X01584594Y01662758D02*
X01618087Y01662758D01*
X01598964Y01662758D02*
X01591779Y01660327D01*
X01586970Y01655574D01*
X01584594Y01650766D01*
X01584594Y01643581D01*
X01567846Y01628142D02*
X01570224Y01625765D01*
X01567846Y01623333D01*
X01565415Y01625765D01*
X01567846Y01628142D01*
X01584594Y01625765D02*
X01618087Y01625765D01*
X01584594Y01607894D02*
X01618087Y01607894D01*
X01594154Y01607894D02*
X01586970Y01600709D01*
X01584594Y01595900D01*
X01584594Y01588771D01*
X01586970Y01583962D01*
X01594154Y01581586D01*
X01618087Y01581586D01*
X01594154Y01581586D02*
X01586970Y01574401D01*
X01584594Y01569592D01*
X01584594Y01562462D01*
X01586970Y01557654D01*
X01594154Y01555222D01*
X01618087Y01555222D01*
X01584594Y01539782D02*
X01608524Y01539782D01*
X01615655Y01537405D01*
X01618087Y01532597D01*
X01618087Y01525413D01*
X01615655Y01520659D01*
X01608524Y01513474D01*
X01584594Y01513474D02*
X01618087Y01513474D01*
X01591779Y01471727D02*
X01586970Y01474104D01*
X01584594Y01481289D01*
X01584594Y01488474D01*
X01586970Y01495659D01*
X01591779Y01498035D01*
X01596532Y01495659D01*
X01598964Y01490850D01*
X01601339Y01478912D01*
X01603717Y01474104D01*
X01608524Y01471727D01*
X01610902Y01471727D01*
X01615655Y01474104D01*
X01618087Y01481289D01*
X01618087Y01488474D01*
X01615655Y01495659D01*
X01610902Y01498035D01*
X01579841Y01405255D02*
X01577463Y01405255D01*
X01572656Y01402878D01*
X01570278Y01400502D01*
X01567903Y01395693D01*
X01567903Y01386132D01*
X01570278Y01381378D01*
X01572656Y01379002D01*
X01577463Y01376570D01*
X01582216Y01376570D01*
X01587026Y01379002D01*
X01594154Y01383755D01*
X01618087Y01407687D01*
X01618087Y01374193D01*
X01567903Y01344383D02*
X01570278Y01351568D01*
X01577463Y01356378D01*
X01589401Y01358753D01*
X01596586Y01358753D01*
X01608524Y01356378D01*
X01615709Y01351568D01*
X01618087Y01344383D01*
X01618087Y01339630D01*
X01615709Y01332445D01*
X01608524Y01327692D01*
X01596586Y01325260D01*
X01589401Y01325260D01*
X01577463Y01327692D01*
X01570278Y01332445D01*
X01567903Y01339630D01*
X01567903Y01344383D01*
X01577463Y01327692D02*
X01608524Y01356378D01*
X01577463Y01309822D02*
X01575031Y01305013D01*
X01567903Y01297828D01*
X01618087Y01297828D01*
X01584594Y01251272D02*
X01591779Y01253704D01*
X01596586Y01258457D01*
X01598964Y01265642D01*
X01598964Y01268019D01*
X01596586Y01275204D01*
X01591779Y01279957D01*
X01584594Y01282389D01*
X01582216Y01282389D01*
X01575031Y01279957D01*
X01570278Y01275204D01*
X01567903Y01268019D01*
X01567903Y01265642D01*
X01570278Y01258457D01*
X01575031Y01253704D01*
X01584594Y01251272D01*
X01596586Y01251272D01*
X01608524Y01253704D01*
X01615709Y01258457D01*
X01618087Y01265642D01*
X01618087Y01270395D01*
X01615709Y01277580D01*
X01610902Y01279957D01*
G04 next file*
G04 DipTrace 3.3.1.1*
G04 BottomSilk.gbo*
G04 #@! TF.FileFunction,Legend,Bot*
G04 #@! TF.Part,Single*
G04*
G04 skipping 70
G90*
G75*
G01*
G04 BotSilk*
X01328393Y00815363D02*
D179*
X01323584Y00820116D01*
X01321208Y00827301D01*
X01321208Y00836864D01*
X01323584Y00844049D01*
X01328393Y00848856D01*
X01333146Y00848856D01*
X01337954Y00846424D01*
X01340331Y00844049D01*
X01342707Y00839296D01*
X01347516Y00824926D01*
X01349892Y00820116D01*
X01352324Y00817741D01*
X01357078Y00815363D01*
X01364263Y00815363D01*
X01369016Y00820116D01*
X01371448Y00827301D01*
X01371448Y00836864D01*
X01369016Y00844049D01*
X01364263Y00848856D01*
X01352324Y00799925D02*
X01352324Y00771240D01*
X01347516Y00771240D01*
X01342707Y00773616D01*
X01340331Y00775993D01*
X01337954Y00780801D01*
X01337954Y00787987D01*
X01340331Y00792740D01*
X01345139Y00797548D01*
X01352324Y00799925D01*
X01357078Y00799925D01*
X01364263Y00797548D01*
X01369016Y00792740D01*
X01371448Y00787987D01*
X01371448Y00780801D01*
X01369016Y00775993D01*
X01364263Y00771240D01*
X01340331Y00727115D02*
X01378633Y00727115D01*
X01385762Y00729492D01*
X01388194Y00731868D01*
X01390571Y00736677D01*
X01390571Y00743862D01*
X01388194Y00748615D01*
X01347516Y00727115D02*
X01342763Y00731868D01*
X01340331Y00736677D01*
X01340331Y00743862D01*
X01342763Y00748615D01*
X01347516Y00753423D01*
X01354701Y00755800D01*
X01359509Y00755800D01*
X01366639Y00753423D01*
X01371448Y00748615D01*
X01373824Y00743862D01*
X01373824Y00736677D01*
X01371448Y00731868D01*
X01366639Y00727115D01*
X01337954Y00682992D02*
X01371448Y00682992D01*
X01345139Y00682992D02*
X01340331Y00687745D01*
X01337954Y00692553D01*
X01337954Y00699683D01*
X01340331Y00704491D01*
X01345139Y00709245D01*
X01352324Y00711676D01*
X01357078Y00711676D01*
X01364263Y00709245D01*
X01369016Y00704491D01*
X01371448Y00699683D01*
X01371448Y00692553D01*
X01369016Y00687745D01*
X01364263Y00682992D01*
X01328393Y00585458D02*
X01323584Y00590211D01*
X01321208Y00597396D01*
X01321208Y00606958D01*
X01323584Y00614143D01*
X01328393Y00618951D01*
X01333146Y00618951D01*
X01337954Y00616520D01*
X01340331Y00614143D01*
X01342707Y00609390D01*
X01347516Y00595020D01*
X01349892Y00590211D01*
X01352324Y00587835D01*
X01357078Y00585458D01*
X01364263Y00585458D01*
X01369016Y00590211D01*
X01371448Y00597396D01*
X01371448Y00606958D01*
X01369016Y00614143D01*
X01364263Y00618951D01*
X01337954Y00541334D02*
X01371448Y00541334D01*
X01345139Y00541334D02*
X01340331Y00546087D01*
X01337954Y00550896D01*
X01337954Y00558025D01*
X01340331Y00562834D01*
X01345139Y00567587D01*
X01352324Y00570019D01*
X01357078Y00570019D01*
X01364263Y00567587D01*
X01369016Y00562834D01*
X01371448Y00558025D01*
X01371448Y00550896D01*
X01369016Y00546087D01*
X01364263Y00541334D01*
X01321208Y00518710D02*
X01361886Y00518710D01*
X01369016Y00516333D01*
X01371448Y00511525D01*
X01371448Y00506771D01*
X01337954Y00525895D02*
X01337954Y00509148D01*
X01337954Y00491332D02*
X01361886Y00491332D01*
X01369016Y00488956D01*
X01371448Y00484147D01*
X01371448Y00476962D01*
X01369016Y00472209D01*
X01361886Y00465024D01*
X01337954Y00465024D02*
X01371448Y00465024D01*
X01337954Y00449585D02*
X01371448Y00449585D01*
X01352324Y00449585D02*
X01345139Y00447153D01*
X01340331Y00442400D01*
X01337954Y00437591D01*
X01337954Y00430405D01*
X01337954Y00414967D02*
X01371448Y00414967D01*
X01347516Y00414967D02*
X01340331Y00407782D01*
X01337954Y00402973D01*
X01337954Y00395844D01*
X01340331Y00391035D01*
X01347516Y00388659D01*
X01371448Y00388659D01*
X01433041Y00846880D02*
X01433041Y00825324D01*
X01430664Y00818194D01*
X01428232Y00815764D01*
X01423479Y00813386D01*
X01416294Y00813386D01*
X01411541Y00815764D01*
X01409109Y00818194D01*
X01406733Y00825324D01*
X01406733Y00846880D01*
X01456972Y00846880D01*
X01423479Y00769263D02*
X01456972Y00769263D01*
X01430664Y00769263D02*
X01425856Y00774016D01*
X01423479Y00778824D01*
X01423479Y00785954D01*
X01425856Y00790763D01*
X01430664Y00795516D01*
X01437849Y00797948D01*
X01442602Y00797948D01*
X01449787Y00795516D01*
X01454540Y00790763D01*
X01456972Y00785954D01*
X01456972Y00778824D01*
X01454540Y00774016D01*
X01449787Y00769263D01*
X01406733Y00725138D02*
X01456972Y00725138D01*
X01430664Y00725138D02*
X01425856Y00729891D01*
X01423479Y00734700D01*
X01423479Y00741884D01*
X01425856Y00746639D01*
X01430664Y00751446D01*
X01437849Y00753824D01*
X01442602Y00753824D01*
X01449787Y00751446D01*
X01454540Y00746639D01*
X01456972Y00741884D01*
X01456972Y00734700D01*
X01454540Y00729891D01*
X01449787Y00725138D01*
X01406733Y00661099D02*
X01456972Y00661099D01*
X01456972Y00644352D01*
X01454540Y00637167D01*
X01449787Y00632358D01*
X01444980Y00629982D01*
X01437849Y00627605D01*
X01425856Y00627605D01*
X01418671Y00629982D01*
X01413918Y00632358D01*
X01409109Y00637167D01*
X01406733Y00644352D01*
X01406733Y00661099D01*
X01437849Y00612166D02*
X01437849Y00583481D01*
X01433041Y00583481D01*
X01428232Y00585858D01*
X01425856Y00588234D01*
X01423479Y00593043D01*
X01423479Y00600228D01*
X01425856Y00604981D01*
X01430664Y00609789D01*
X01437849Y00612166D01*
X01442602Y00612166D01*
X01449787Y00609789D01*
X01454540Y00604981D01*
X01456972Y00600228D01*
X01456972Y00593043D01*
X01454540Y00588234D01*
X01449787Y00583481D01*
X01423479Y00568042D02*
X01456972Y00568042D01*
X01433041Y00568042D02*
X01425856Y00560857D01*
X01423479Y00556048D01*
X01423479Y00548919D01*
X01425856Y00544110D01*
X01433041Y00541734D01*
X01456972Y00541733D01*
X01433041Y00541734D02*
X01425856Y00534548D01*
X01423479Y00529740D01*
X01423479Y00522610D01*
X01425856Y00517802D01*
X01433041Y00515370D01*
X01456972Y00515370D01*
X01423479Y00499931D02*
X01447412Y00499931D01*
X01454540Y00497554D01*
X01456972Y00492746D01*
X01456972Y00485561D01*
X01454540Y00480807D01*
X01447412Y00473622D01*
X01423479Y00473622D02*
X01456972Y00473622D01*
X01423479Y00458182D02*
X01456972Y00431874D01*
X01423479Y00431874D02*
X01456972Y00458182D01*
X01437849Y00416436D02*
X01437849Y00387750D01*
X01433042Y00387750D01*
X01428232Y00390127D01*
X01425856Y00392504D01*
X01423479Y00397312D01*
X01423479Y00404497D01*
X01425856Y00409250D01*
X01430664Y00414058D01*
X01437849Y00416436D01*
X01442602Y00416436D01*
X01449787Y00414058D01*
X01454540Y00409250D01*
X01456972Y00404497D01*
X01456972Y00397312D01*
X01454540Y00392504D01*
X01449787Y00387750D01*
X01423479Y00372311D02*
X01456972Y00372311D01*
X01437849Y00372311D02*
X01430664Y00369880D01*
X01425856Y00365126D01*
X01423479Y00360318D01*
X01423479Y00353133D01*
X01413038Y00299314D02*
X01463278Y00280191D01*
X01413038Y00261067D01*
X01413091Y00231258D02*
X01415470Y00238442D01*
X01422655Y00243251D01*
X01434593Y00245628D01*
X01441778Y00245628D01*
X01453716Y00243251D01*
X01460901Y00238442D01*
X01463278Y00231258D01*
X01463278Y00226505D01*
X01460901Y00219320D01*
X01453716Y00214567D01*
X01441778Y00212134D01*
X01434593Y00212134D01*
X01422655Y00214567D01*
X01415470Y00219320D01*
X01413091Y00226505D01*
X01413091Y00231258D01*
X01422655Y00214567D02*
X01453716Y00243251D01*
X01458469Y00194319D02*
X01460901Y00196695D01*
X01463278Y00194319D01*
X01460901Y00191887D01*
X01458469Y00194319D01*
X01463278Y00152516D02*
X01413091Y00152516D01*
X01446531Y00176447D01*
X01446531Y00140578D01*
X01618087Y00804874D02*
X01567846Y00824053D01*
X01618087Y00843176D01*
X01601339Y00835991D02*
X01601339Y00812059D01*
X01584594Y00789435D02*
X01618087Y00789435D01*
X01598964Y00789435D02*
X01591779Y00787002D01*
X01586970Y00782250D01*
X01584594Y00777442D01*
X01584594Y00770257D01*
X01567846Y00747632D02*
X01608524Y00747632D01*
X01615655Y00745256D01*
X01618087Y00740447D01*
X01618087Y00735694D01*
X01584594Y00754817D02*
X01584594Y00738071D01*
X01567846Y00720254D02*
X01618087Y00720254D01*
X01594154Y00720254D02*
X01586970Y00713069D01*
X01584594Y00708261D01*
X01584594Y00701076D01*
X01586970Y00696322D01*
X01594154Y00693946D01*
X01618087Y00693946D01*
X01584594Y00678507D02*
X01618087Y00678507D01*
X01598964Y00678507D02*
X01591779Y00676076D01*
X01586970Y00671322D01*
X01584594Y00666514D01*
X01584594Y00659329D01*
X01567846Y00643889D02*
X01570224Y00641513D01*
X01567846Y00639081D01*
X01565415Y00641513D01*
X01567846Y00643889D01*
X01584594Y00641513D02*
X01618087Y00641513D01*
X01584594Y00623642D02*
X01618087Y00623642D01*
X01594154Y00623642D02*
X01586970Y00616457D01*
X01584594Y00611648D01*
X01584594Y00604519D01*
X01586970Y00599710D01*
X01594154Y00597334D01*
X01618087Y00597334D01*
X01594154Y00597334D02*
X01586970Y00590149D01*
X01584594Y00585340D01*
X01584594Y00578210D01*
X01586970Y00573402D01*
X01594154Y00570970D01*
X01618087Y00570970D01*
X01584594Y00555531D02*
X01608524Y00555531D01*
X01615655Y00553154D01*
X01618087Y00548346D01*
X01618087Y00541161D01*
X01615655Y00536408D01*
X01608524Y00529222D01*
X01584594Y00529222D02*
X01618087Y00529222D01*
X01591779Y00487475D02*
X01586970Y00489852D01*
X01584594Y00497036D01*
X01584594Y00504221D01*
X01586970Y00511406D01*
X01591779Y00513783D01*
X01596532Y00511406D01*
X01598964Y00506598D01*
X01601339Y00494660D01*
X01603717Y00489852D01*
X01608524Y00487475D01*
X01610902Y00487475D01*
X01615655Y00489852D01*
X01618087Y00497036D01*
X01618087Y00504221D01*
X01615655Y00511406D01*
X01610902Y00513783D01*
X01579841Y00421003D02*
X01577463Y00421003D01*
X01572656Y00418626D01*
X01570278Y00416250D01*
X01567903Y00411441D01*
X01567903Y00401880D01*
X01570278Y00397126D01*
X01572656Y00394750D01*
X01577463Y00392318D01*
X01582216Y00392318D01*
X01587026Y00394750D01*
X01594154Y00399503D01*
X01618087Y00423435D01*
X01618087Y00389941D01*
X01567903Y00360132D02*
X01570278Y00367317D01*
X01577463Y00372126D01*
X01589401Y00374502D01*
X01596586Y00374502D01*
X01608524Y00372126D01*
X01615709Y00367317D01*
X01618087Y00360132D01*
X01618087Y00355379D01*
X01615709Y00348194D01*
X01608524Y00343441D01*
X01596586Y00341009D01*
X01589401Y00341009D01*
X01577463Y00343441D01*
X01570278Y00348194D01*
X01567903Y00355379D01*
X01567903Y00360132D01*
X01577463Y00343441D02*
X01608524Y00372126D01*
X01577463Y00325569D02*
X01575031Y00320761D01*
X01567903Y00313576D01*
X01618087Y00313576D01*
X01584594Y00267020D02*
X01591779Y00269452D01*
X01596586Y00274205D01*
X01598964Y00281390D01*
X01598964Y00283767D01*
X01596586Y00290952D01*
X01591779Y00295705D01*
X01584594Y00298137D01*
X01582216Y00298137D01*
X01575031Y00295705D01*
X01570278Y00290952D01*
X01567903Y00283767D01*
X01567903Y00281390D01*
X01570278Y00274205D01*
X01575031Y00269452D01*
X01584594Y00267020D01*
X01596586Y00267020D01*
X01608524Y00269452D01*
X01615709Y00274205D01*
X01618087Y00281390D01*
X01618087Y00286143D01*
X01615709Y00293328D01*
X01610902Y00295705D01*
M02*