M48
INCH
T01C0.0191
%
T01
X+011437Y+008062
X+011437Y+007249
X+010545Y+006226
X+011562Y+005687
X+010187Y+005062
X+008505Y+004859
X+008625Y+005937
X+007042Y+005867
X+005775Y+006419
X+005687Y+004249
X+007750Y+007374
X+007790Y+007882
X+007812Y+008374
X+007658Y+009120
X+007437Y+010499
X+006518Y+010244
X+006518Y+010790
X+007187Y+011437
X+008750Y+010874
X+009500Y+010624
X+010130Y+010287
X+010650Y+010384
X+010260Y+009702
X+009577Y+009182
X+009562Y+007937
X+009562Y+007374
X+011500Y+010413
T00
M30
