G04 DipTrace 3.3.1.1*
G04 Top.gtl*
%MOIN*%
G04 #@! TF.FileFunction,Copper,L1,Top*
G04 #@! TF.Part,Single*
G04 #@! TA.AperFunction,Conductor*
%ADD13C,0.008*%
%ADD14C,0.017*%
G04 #@! TA.AperFunction,CopperBalancing*
%ADD15C,0.025*%
%ADD16C,0.013*%
%ADD18R,0.2X0.0545*%
%ADD19R,0.059055X0.11811*%
%ADD20R,0.043307X0.03937*%
%ADD21R,0.03937X0.043307*%
%ADD23R,0.019685X0.066929*%
%ADD24R,0.066929X0.019685*%
%ADD26R,0.015748X0.074803*%
G04 #@! TA.AperFunction,ViaPad*
%ADD27C,0.04*%
%FSLAX26Y26*%
G04*
G70*
G90*
G75*
G01*
G04 Top*
%LPD*%
X765818Y911960D2*
D13*
X785974Y932116D1*
Y987449D1*
X949951Y1062449D2*
X953201D1*
X863450Y1152200D1*
X849949D1*
Y1156200D1*
X718700Y1143700D2*
X742961D1*
X755461Y1156200D1*
X743700Y1049949D2*
Y1037451D1*
X756200Y1024951D1*
Y987449D1*
X754478D1*
X880462Y656741D2*
D14*
Y611712D1*
X862451Y593700D1*
X911959Y987449D2*
Y921209D1*
X899200Y908450D1*
X882950D1*
Y700450D1*
X880462Y702938D1*
Y656741D1*
X874951Y1087449D2*
X911959Y1050441D1*
Y987449D1*
X802705Y1156200D2*
D13*
Y1122195D1*
X837451Y1087449D1*
X856201D1*
X874951D1*
X568700Y424949D2*
D14*
X499951Y424951D1*
X882950Y908450D2*
X866700D1*
X848966Y926184D1*
Y987449D1*
X817470D2*
Y1044930D1*
X768700Y1093700D1*
X699949D1*
X605659Y1187990D1*
X500001D1*
X949951Y506200D2*
X899951D1*
Y543700D1*
X843700D1*
X785974Y601426D1*
Y656741D1*
Y698474D1*
X840700Y753200D1*
Y882798D1*
X817470Y906028D1*
Y987449D1*
X1156200Y506200D2*
Y456200D1*
X949951D1*
Y506200D1*
X817470Y1044930D2*
X867470D1*
X880462Y1031938D1*
Y987449D1*
X778951Y788200D2*
D13*
X760804Y806347D1*
X699360D1*
X651838Y1024397D2*
X656684Y1019550D1*
Y949465D1*
X673818Y932331D1*
X699360D1*
X704200Y586700D2*
X736700D1*
X754478Y604478D1*
Y656741D1*
X699360Y711859D2*
X657109D1*
X626200Y680950D1*
Y547700D1*
X612451Y533951D1*
X499951D1*
X774951Y737449D2*
X769045Y743355D1*
X699360D1*
X499951Y751951D2*
X620701D1*
X643602Y774851D1*
X699360D1*
Y837843D2*
X637057D1*
X613949Y860951D1*
X499951D1*
Y969951D2*
X604949D1*
X635692Y939208D1*
Y914208D1*
X649065Y900835D1*
X699360D1*
X781200Y837449D2*
X749310Y869339D1*
X699360D1*
X499951Y1078951D2*
X651838D1*
Y1078952D1*
X957700Y918200D2*
X943455Y932445D1*
Y987449D1*
X1064950Y1038450D2*
X1080527Y1022873D1*
Y911777D1*
X1069585Y900835D1*
X1030069D1*
X1089271Y506200D2*
D14*
X1016880D1*
X1018700D1*
X1156200Y568700D2*
D13*
X972336D1*
X943455Y597582D1*
Y656741D1*
X1054456Y622645D2*
X1029393Y597582D1*
X983569D1*
X974951Y606200D1*
Y656741D1*
X1030069Y711859D2*
X1075541D1*
X1131200Y656200D1*
X1143700D1*
X1030069Y743355D2*
X1068355D1*
X1106200Y781200D1*
Y862449D1*
X1118700Y874949D1*
X1143700D1*
X956200Y737449D2*
X993602Y774851D1*
X1030069D1*
X1149951Y1041256D2*
Y1006200D1*
X1100700Y956949D1*
Y900700D1*
X1087451Y887451D1*
Y812451D1*
X1081347Y806347D1*
X1030069D1*
X1143700Y723129D2*
Y724949D1*
Y806200D2*
Y808020D1*
X1025950Y970200D2*
X992200D1*
X974951Y987449D1*
X1012950Y1028700D2*
X1022700D1*
X1061700Y989700D1*
Y932331D1*
X1030069D1*
X577450Y641950D2*
X500951D1*
X499951Y642951D1*
X956200Y793700D2*
Y806200D1*
X987843Y837843D1*
X1030069D1*
X850450Y485950D2*
Y456700D1*
D27*
X1143700Y806200D3*
Y724949D3*
X743700Y1049949D3*
X874951Y1087449D3*
X718700Y1143700D3*
X956200Y793700D3*
X568700Y424949D3*
X850450Y485950D3*
X1025950Y970200D3*
X1012950Y1028700D3*
X577450Y641950D3*
X765818Y911960D3*
X949951Y1062449D3*
X862451Y593700D3*
X778951Y788200D3*
X651838Y1024397D3*
X704200Y586700D3*
X774951Y737449D3*
X781200Y837449D3*
X957700Y918200D3*
X651838Y1078952D3*
X1064950Y1038450D3*
X1018700Y506200D3*
X1156200Y568700D3*
X1054456Y622645D3*
X956200Y737449D3*
X1149951Y1041256D3*
X633718Y1162581D2*
D15*
X677018D1*
X894452D2*
X1197446D1*
X633718Y1137712D2*
X673107D1*
X919320D2*
X1197446D1*
X944188Y1112843D2*
X1197446D1*
X696874Y1087974D2*
X720079D1*
X767315D2*
X795544D1*
X987680D2*
X1197446D1*
X787661Y1063106D2*
X822170D1*
X696408Y1013368D2*
X717675D1*
X1185832D2*
X1197471D1*
X686683Y988499D2*
X718644D1*
X1173488D2*
X1197446D1*
X1148764Y963630D2*
X1197446D1*
X1130714Y938762D2*
X1197446D1*
X1189385Y913893D2*
X1197468D1*
X805280Y889024D2*
X838353D1*
X1189385D2*
X1197468D1*
X818055Y864155D2*
X848437D1*
X917454D2*
X970587D1*
X1189385D2*
X1197468D1*
X827170Y839287D2*
X848437D1*
X917454D2*
X947908D1*
X1189385D2*
X1197468D1*
X820603Y814418D2*
X848437D1*
X1189385D2*
X1197468D1*
X824945Y789549D2*
X848437D1*
X1189385D2*
X1197468D1*
X818055Y764680D2*
X848437D1*
X1189385D2*
X1197468D1*
X820890Y739812D2*
X848437D1*
X1189385D2*
X1197468D1*
X814682Y714943D2*
X848293D1*
X1189385D2*
X1197468D1*
X1189385Y690074D2*
X1197468D1*
X656217Y665205D2*
X718644D1*
X1010789D2*
X1042965D1*
X1065943D2*
X1080787D1*
X1189385D2*
X1197468D1*
X656217Y640336D2*
X718644D1*
X1189385D2*
X1197468D1*
X656217Y615468D2*
X669088D1*
X1189385D2*
X1197468D1*
X780735Y590599D2*
X816572D1*
X756980Y565730D2*
X826619D1*
X898256D2*
X933913D1*
X655320Y540861D2*
X902299D1*
X635871Y515993D2*
X794933D1*
X633718Y491124D2*
X794933D1*
X633718Y466255D2*
X794933D1*
X633718Y441386D2*
X794933D1*
X905971D2*
X1197446D1*
X848957Y1044414D2*
X868146Y1044485D1*
X861508Y1046078D1*
X855202Y1048691D1*
X849382Y1052257D1*
X844192Y1056690D1*
X841287Y1059942D1*
X833149Y1060288D1*
X828953Y1061295D1*
X824966Y1062947D1*
X821286Y1065201D1*
X817999Y1068010D1*
X790728Y1095281D1*
X724087Y1095298D1*
Y1100501D1*
X718700Y1100200D1*
X711895Y1100736D1*
X705258Y1102329D1*
X698951Y1104941D1*
X693131Y1108508D1*
X687941Y1112941D1*
X683508Y1118131D1*
X679941Y1123951D1*
X677329Y1130258D1*
X675736Y1136895D1*
X675200Y1143700D1*
X675736Y1150505D1*
X677329Y1157142D1*
X679941Y1163449D1*
X683508Y1169269D1*
X687941Y1174459D1*
X693131Y1178892D1*
X698951Y1182459D1*
X705258Y1185071D1*
X711895Y1186664D1*
X718700Y1187200D1*
X724087Y1186832D1*
Y1187485D1*
X631234Y1187449D1*
X631200Y1117236D1*
X638396Y1120323D1*
X645033Y1121916D1*
X651838Y1122452D1*
X658643Y1121916D1*
X665280Y1120323D1*
X671586Y1117711D1*
X677406Y1114144D1*
X682597Y1109711D1*
X687030Y1104521D1*
X690597Y1098701D1*
X693209Y1092394D1*
X694802Y1085757D1*
X695338Y1078952D1*
X694802Y1072147D1*
X693209Y1065510D1*
X690597Y1059203D1*
X687030Y1053383D1*
X685700Y1051696D1*
X688928Y1047126D1*
X692027Y1041044D1*
X694136Y1034552D1*
X695204Y1027810D1*
Y1020984D1*
X694136Y1014242D1*
X692027Y1007750D1*
X688928Y1001668D1*
X684915Y996146D1*
X684182Y995352D1*
X684184Y965688D1*
X721161Y965674D1*
X720971Y1012859D1*
X715449Y1016872D1*
X710622Y1021698D1*
X706610Y1027221D1*
X703511Y1033303D1*
X701402Y1039794D1*
X700334Y1046536D1*
Y1053362D1*
X701402Y1060104D1*
X703511Y1066596D1*
X706610Y1072678D1*
X710622Y1078200D1*
X715449Y1083027D1*
X720971Y1087039D1*
X727053Y1090138D1*
X733545Y1092247D1*
X740287Y1093315D1*
X747113D1*
X753855Y1092247D1*
X760347Y1090138D1*
X766429Y1087039D1*
X771951Y1083027D1*
X776778Y1078200D1*
X780790Y1072678D1*
X783889Y1066596D1*
X785998Y1060104D1*
X787066Y1053362D1*
Y1046536D1*
X786813Y1044403D1*
X848957Y1044414D1*
X721123Y678516D2*
X662631D1*
X653692Y669551D1*
X653615Y545542D1*
X652940Y541280D1*
X651607Y537176D1*
X649648Y533331D1*
X647111Y529840D1*
X631890Y514499D1*
X631200Y510973D1*
Y431202D1*
X797439Y431200D1*
X797423Y539255D1*
X903478D1*
Y431208D1*
X1199916Y431200D1*
X1199951Y463017D1*
X1022113Y462834D1*
X1015287D1*
X1006915Y463015D1*
X904797D1*
Y549385D1*
X952760D1*
X922543Y579722D1*
X920007Y583213D1*
X918048Y587058D1*
X916714Y591162D1*
X916039Y595424D1*
X915954Y599771D1*
X910159Y599776D1*
X907747Y594992D1*
X906345Y592895D1*
X904749Y583545D1*
X902639Y577053D1*
X899541Y570971D1*
X895528Y565449D1*
X890702Y560622D1*
X885179Y556610D1*
X879097Y553511D1*
X872606Y551402D1*
X865864Y550334D1*
X859038D1*
X852296Y551402D1*
X845804Y553511D1*
X839722Y556610D1*
X834200Y560622D1*
X829373Y565449D1*
X825361Y570971D1*
X822262Y577053D1*
X820153Y583545D1*
X819085Y590287D1*
Y597113D1*
X819400Y599776D1*
X781574D1*
X779885Y593954D1*
X777926Y590109D1*
X775389Y586618D1*
X754560Y565789D1*
X751069Y563252D1*
X747224Y561293D1*
X743120Y559960D1*
X738849Y559284D1*
X737278Y558449D1*
X732451Y553622D1*
X726929Y549610D1*
X720847Y546511D1*
X714355Y544402D1*
X707613Y543334D1*
X700787D1*
X694045Y544402D1*
X687553Y546511D1*
X681471Y549610D1*
X675949Y553622D1*
X671122Y558449D1*
X667110Y563971D1*
X664011Y570053D1*
X661902Y576545D1*
X660834Y583287D1*
Y590113D1*
X661902Y596855D1*
X664011Y603347D1*
X667110Y609429D1*
X671122Y614951D1*
X675949Y619778D1*
X681471Y623790D1*
X687553Y626889D1*
X694045Y628998D1*
X700787Y630066D1*
X707613D1*
X714355Y628998D1*
X721125Y626760D1*
X721136Y678542D1*
X811403Y713705D2*
X850314D1*
X850902Y715192D1*
X850950Y880624D1*
X845918Y884117D1*
X826339Y903556D1*
X823078Y907374D1*
X820454Y911656D1*
X818532Y916295D1*
X817360Y921178D1*
X816966Y926184D1*
Y930454D1*
X813390Y929958D1*
X812715Y925696D1*
X811381Y921592D1*
X809417Y917740D1*
X809318Y911960D1*
X808783Y905155D1*
X807189Y898518D1*
X804577Y892211D1*
X801010Y886391D1*
X796577Y881201D1*
X794157Y878964D1*
X800949Y876208D1*
X806769Y872642D1*
X811959Y868208D1*
X816392Y863018D1*
X819959Y857198D1*
X822571Y850892D1*
X824164Y844254D1*
X824700Y837449D1*
X824164Y830644D1*
X822571Y824007D1*
X819959Y817701D1*
X815872Y811221D1*
X819139Y804847D1*
X821249Y798355D1*
X822317Y791613D1*
Y784787D1*
X821249Y778045D1*
X819139Y771553D1*
X816041Y765471D1*
X812119Y760064D1*
X815139Y754096D1*
X817249Y747604D1*
X818317Y740862D1*
Y734036D1*
X817249Y727294D1*
X815139Y720803D1*
X812041Y714721D1*
X811366Y713711D1*
X1008293Y678503D2*
Y625107D1*
X1011090Y626058D1*
X1012158Y632800D1*
X1014267Y639292D1*
X1017366Y645374D1*
X1021378Y650896D1*
X1026205Y655723D1*
X1031727Y659735D1*
X1037809Y662834D1*
X1044301Y664943D1*
X1051043Y666011D1*
X1057869D1*
X1064611Y664943D1*
X1071103Y662834D1*
X1077185Y659735D1*
X1082707Y655723D1*
X1087534Y650896D1*
X1091546Y645374D1*
X1094645Y639292D1*
X1096754Y632800D1*
X1097822Y626058D1*
Y619232D1*
X1096754Y612490D1*
X1094645Y605998D1*
X1091546Y599916D1*
X1088963Y596207D1*
X1122512Y596200D1*
X1127949Y601778D1*
X1133471Y605790D1*
X1139553Y608889D1*
X1146294Y611048D1*
X1100515Y611046D1*
Y647971D1*
X1070014Y678495D1*
X1008268Y678516D1*
X973104Y861090D2*
Y877514D1*
X967855Y875902D1*
X961113Y874834D1*
X954287D1*
X947545Y875902D1*
X941053Y878011D1*
X934971Y881110D1*
X929449Y885122D1*
X925265Y889253D1*
X919982Y884117D1*
X915911Y881161D1*
X914950Y871705D1*
Y807508D1*
X917441Y813449D1*
X921008Y819269D1*
X925441Y824459D1*
X930631Y828892D1*
X936451Y832459D1*
X942758Y835071D1*
X947367Y836261D1*
X969983Y858754D1*
X971686Y860096D1*
X1195181Y549385D2*
X1199946D1*
X1199951Y1187447D1*
X881347Y1187449D1*
X881323Y1173072D1*
X921870Y1132671D1*
X948589Y1105952D1*
X956756Y1105414D1*
X963393Y1103820D1*
X969699Y1101208D1*
X975519Y1097642D1*
X980710Y1093208D1*
X985143Y1088018D1*
X988709Y1082198D1*
X991322Y1075892D1*
X992915Y1069254D1*
X993201Y1067459D1*
X999508Y1070071D1*
X1006145Y1071664D1*
X1012950Y1072200D1*
X1019755Y1071664D1*
X1026392Y1070071D1*
X1032590Y1067509D1*
X1036699Y1071528D1*
X1042221Y1075540D1*
X1048303Y1078639D1*
X1054795Y1080748D1*
X1061537Y1081816D1*
X1068363D1*
X1075105Y1080748D1*
X1081597Y1078639D1*
X1087679Y1075540D1*
X1093201Y1071528D1*
X1098028Y1066701D1*
X1102040Y1061179D1*
X1105139Y1055097D1*
X1107143Y1048977D1*
X1108580Y1054699D1*
X1111192Y1061005D1*
X1114758Y1066825D1*
X1119192Y1072016D1*
X1124382Y1076449D1*
X1130202Y1080015D1*
X1136508Y1082627D1*
X1143146Y1084221D1*
X1149951Y1084756D1*
X1156756Y1084221D1*
X1163393Y1082627D1*
X1169699Y1080015D1*
X1175519Y1076449D1*
X1180710Y1072016D1*
X1185143Y1066825D1*
X1188709Y1061005D1*
X1191322Y1054699D1*
X1192915Y1048061D1*
X1193451Y1041256D1*
X1192915Y1034452D1*
X1191322Y1027814D1*
X1188709Y1021508D1*
X1185143Y1015688D1*
X1180710Y1010497D1*
X1177458Y1007592D1*
X1177112Y1001898D1*
X1176105Y997702D1*
X1174453Y993715D1*
X1172199Y990036D1*
X1169396Y986754D1*
X1128214Y945573D1*
X1128200Y920096D1*
X1186885Y920103D1*
X1187066Y809613D1*
Y802787D1*
X1186885Y798056D1*
Y730209D1*
X1187200Y724949D1*
X1186886Y720013D1*
X1186885Y611046D1*
X1166355Y610998D1*
X1172847Y608889D1*
X1178929Y605790D1*
X1184451Y601778D1*
X1189278Y596951D1*
X1193290Y591429D1*
X1196389Y585347D1*
X1198498Y578855D1*
X1199566Y572113D1*
Y565287D1*
X1198498Y558545D1*
X1196389Y552053D1*
X1195154Y549375D1*
X1117353Y1012486D2*
X1112861Y1018528D1*
X1109762Y1024610D1*
X1107758Y1030729D1*
X1108027Y1022873D1*
Y1003173D1*
X1117311Y1012451D1*
X817470Y1044378D2*
D16*
Y987449D1*
X785974Y656741D2*
Y599812D1*
X1156200Y506200D2*
Y463051D1*
X949951Y549349D2*
Y463051D1*
X904833Y506200D2*
X949951D1*
D18*
X499951Y424951D3*
Y533951D3*
Y642951D3*
Y751951D3*
Y860951D3*
Y969951D3*
Y1078951D3*
X500001Y1187990D3*
D19*
X850450Y456700D3*
D20*
X1156200Y506200D3*
X1089271D3*
X949951D3*
X1016880D3*
D21*
X1143700Y656200D3*
Y723129D3*
Y874949D3*
Y808020D3*
D23*
X974951Y987449D3*
X943455D3*
X911959D3*
X880462D3*
X848966D3*
X817470D3*
X785974D3*
X754478D3*
D24*
X699360Y932331D3*
Y900835D3*
Y869339D3*
Y837843D3*
Y806347D3*
Y774851D3*
Y743355D3*
Y711859D3*
D23*
X754478Y656741D3*
X785974D3*
X817470D3*
X848966D3*
X880462D3*
X911959D3*
X943455D3*
X974951D3*
D24*
X1030069Y711859D3*
Y743355D3*
Y774851D3*
Y806347D3*
Y837843D3*
Y869339D3*
Y900835D3*
Y932331D3*
D26*
X849949Y1156200D3*
X802705D3*
X755461D3*
M02*
