M48
INCH
T01C0.0191
%
T01
X+011250Y+008062
X+011812Y+007374
X+011500Y+005766
X+011500Y+004991
X+010545Y+006226
X+008965Y+005536
X+007203Y+004737
X+006893Y+005340
X+006518Y+005869
X+006893Y+006244
X+007625Y+007437
X+007658Y+008005
X+008033Y+008380
X+007658Y+009120
X+007437Y+009937
X+006518Y+010244
X+006518Y+010790
X+007187Y+011624
X+008000Y+010999
X+009118Y+011187
X+009564Y+010588
X+010178Y+010218
X+011500Y+010413
X+009535Y+008750
X+009535Y+007760
T00
M30
