G04 DipTrace 3.3.1.1*
G04 Top.gbr*
%MOIN*%
G04 #@! TF.FileFunction,Copper,L1,Top*
G04 #@! TF.Part,Single*
G04 #@! TA.AperFunction,Conductor*
%ADD13C,0.008*%
%ADD14C,0.017*%
G04 #@! TA.AperFunction,CopperBalancing*
%ADD15C,0.025*%
%ADD16C,0.013*%
%ADD17R,0.2X0.0545*%
%ADD18R,0.043307X0.03937*%
%ADD19R,0.03937X0.043307*%
%ADD21R,0.019685X0.066929*%
%ADD22R,0.066929X0.019685*%
%ADD24R,0.015748X0.074803*%
G04 #@! TA.AperFunction,ViaPad*
%ADD25C,0.04*%
%FSLAX26Y26*%
G04*
G70*
G90*
G75*
G01*
G04 Top*
%LPD*%
X765818Y911960D2*
D13*
X785974Y932116D1*
Y987449D1*
X956448Y1058791D2*
Y1134700D1*
X934948Y1156200D1*
X849949D1*
X718700Y1162449D2*
X749212D1*
X755461Y1156200D1*
X743700Y993700D2*
X748228D1*
X754478Y987449D1*
X848966D2*
D14*
Y1058791D1*
X903456D1*
X720302Y473696D2*
Y468700D1*
X880462Y656741D2*
Y569693D1*
X896527Y553629D1*
X911959Y987449D2*
Y799735D1*
X880462Y768239D1*
Y656741D1*
X911810Y1118700D2*
X911959Y987449D1*
X802705Y1156200D2*
D13*
X799951D1*
Y1099949D1*
X499951Y424951D2*
D14*
X671557D1*
X720302Y473696D1*
X880462Y987449D2*
Y874535D1*
X848964D1*
X817470Y906028D1*
Y987449D1*
X1006200Y456200D2*
Y512449D1*
X817470Y987449D2*
Y1042409D1*
X776241D1*
X630659Y1187990D1*
X500001D1*
X1006200Y512449D2*
X785974D1*
Y656741D1*
Y698474D1*
X848964Y761464D1*
Y874535D1*
X765818Y800503D2*
D13*
X759974Y806347D1*
X699360D1*
X651838Y1024397D2*
X656684Y1019550D1*
Y932331D1*
X699360D1*
X651838Y586944D2*
X754478D1*
Y656741D1*
X499951Y533949D2*
X689310D1*
Y533952D1*
Y624417D2*
X635692D1*
Y711859D1*
X699360D1*
X762451Y743700D2*
X762106Y743355D1*
X699360D1*
X499951Y751951D2*
X635692D1*
Y774851D1*
X699360D1*
Y837843D2*
X635692D1*
Y860951D1*
X499951D1*
Y969951D2*
X635692D1*
Y900835D1*
X699360D1*
X803291Y837976D2*
X771927Y869339D1*
X699360D1*
X499951Y1078951D2*
X651838D1*
Y1078952D1*
X953452Y874968D2*
X943455Y884965D1*
Y987449D1*
X1017787Y1021798D2*
X1080527Y959058D1*
Y900835D1*
X1030069D1*
X1073129Y456200D2*
D14*
Y512449D1*
X1136645D1*
X1149951Y499144D1*
Y576588D2*
D13*
X964448D1*
X943455Y597582D1*
Y656741D1*
X1054456Y622645D2*
X1029393Y597582D1*
X974951D1*
Y656741D1*
X1030069Y711859D2*
X1080527D1*
X1123686Y668700D1*
X1181200D1*
X1030069Y743355D2*
X1080527D1*
X1086432Y737449D1*
X1124951D1*
X953452Y775972D2*
X954573Y774851D1*
X1030069D1*
X1149951Y1041256D2*
Y912616D1*
X1080527Y843192D1*
Y806347D1*
X1030069D1*
X1181200Y735629D2*
Y737449D1*
X1124951Y806200D2*
Y804378D1*
D25*
Y806200D3*
X1181200Y737449D3*
X743700Y993700D3*
X718700Y1162449D3*
X765818Y911960D3*
X956448Y1058791D3*
X799951Y1099949D3*
X720302Y473696D3*
X896527Y553629D3*
X911810Y1118700D3*
X765818Y800503D3*
X651838Y1024397D3*
Y586944D3*
X689310Y533952D3*
Y624417D3*
X762451Y743700D3*
X803291Y837976D3*
X953452Y874968D3*
X651838Y1078952D3*
X1017787Y1021798D3*
X1149951Y499144D3*
Y576588D3*
X1054456Y622645D3*
X953452Y775972D3*
X1149951Y1041256D3*
X628999Y1175081D2*
D15*
X671438D1*
X961717D2*
X1209952D1*
X628999Y1150212D2*
X671330D1*
X985221D2*
X1209952D1*
X628962Y1125343D2*
X646175D1*
X657527D2*
X688159D1*
X989456D2*
X1209952D1*
X695564Y1100476D2*
X718590D1*
X989456D2*
X1209952D1*
X700731Y1075607D2*
X757847D1*
X1002302D2*
X1116115D1*
X1183804D2*
X1209952D1*
X692657Y1050738D2*
X811457D1*
X1056666D2*
X1101940D1*
X1197978D2*
X1209952D1*
X1066607Y1025869D2*
X1103554D1*
X1196327D2*
X1209952D1*
X1084225Y1001001D2*
X1116940D1*
X1182943D2*
X1209952D1*
X689679Y976132D2*
X698166D1*
X1108304D2*
X1116940D1*
X1182943D2*
X1209952D1*
X1182943Y951263D2*
X1209952D1*
X818431Y926394D2*
X874470D1*
X1182943D2*
X1209952D1*
X813623Y901525D2*
X874470D1*
X1180861D2*
X1209952D1*
X831600Y876657D2*
X874470D1*
X1159619D2*
X1209952D1*
X850188Y851788D2*
X874470D1*
X1173649D2*
X1209952D1*
X850943Y826919D2*
X874470D1*
X1173649D2*
X1209952D1*
X835297Y802050D2*
X862270D1*
X1173756D2*
X1209952D1*
X808564Y777182D2*
X844112D1*
X810645Y752313D2*
X842964D1*
X808527Y727444D2*
X842964D1*
X917974D2*
X967590D1*
X1103137Y627969D2*
X1132514D1*
X1190658Y603100D2*
X1209952D1*
X786208Y578231D2*
X842964D1*
X1198911D2*
X1209952D1*
X734067Y553363D2*
X847019D1*
X1192739D2*
X1209952D1*
X737980Y528494D2*
X854914D1*
X938141D2*
X955532D1*
X1188504D2*
X1209952D1*
X758397Y503625D2*
X955532D1*
X1198731D2*
X1209952D1*
X614968Y478756D2*
X671581D1*
X769019D2*
X955532D1*
X1194246D2*
X1209952D1*
X764856Y453888D2*
X955532D1*
X1123770D2*
X1136784D1*
X1163134D2*
X1209952D1*
X735683Y429019D2*
X955532D1*
X1123770D2*
X1209952D1*
X612474Y478700D2*
X626451D1*
Y459932D1*
X657087Y459951D1*
X673881Y476772D1*
X675087Y484552D1*
X676518Y489256D1*
X671515Y490991D1*
X665014Y494304D1*
X659111Y498594D1*
X654231Y503449D1*
X626477D1*
X626451Y480200D1*
X612419D1*
X612451Y478716D1*
X612474Y1132700D2*
X626451D1*
Y1117880D1*
X630728Y1120384D1*
X637469Y1123176D1*
X644564Y1124880D1*
X651838Y1125452D1*
X659112Y1124880D1*
X666207Y1123176D1*
X672948Y1120384D1*
X679170Y1116571D1*
X684718Y1111833D1*
X689457Y1106284D1*
X693270Y1100062D1*
X696062Y1093321D1*
X697766Y1086226D1*
X698338Y1078952D1*
X697766Y1071678D1*
X696062Y1064583D1*
X693270Y1057842D1*
X689497Y1051679D1*
X693270Y1045507D1*
X696062Y1038766D1*
X697766Y1031671D1*
X698338Y1024397D1*
X697766Y1017123D1*
X696062Y1010028D1*
X693270Y1003287D1*
X689457Y997065D1*
X687187Y994187D1*
X687184Y968703D1*
X704525Y968674D1*
X700739Y975905D1*
X698485Y982844D1*
X697343Y990052D1*
Y997348D1*
X698485Y1004556D1*
X700739Y1011495D1*
X704052Y1017997D1*
X708342Y1023899D1*
X713501Y1029058D1*
X718134Y1032501D1*
X718136Y1047414D1*
X813952D1*
X813966Y1055629D1*
X807225Y1054022D1*
X799951Y1053449D1*
X792676Y1054022D1*
X785582Y1055725D1*
X778840Y1058518D1*
X772619Y1062330D1*
X767070Y1067069D1*
X762331Y1072617D1*
X758519Y1078839D1*
X755726Y1085581D1*
X754098Y1092297D1*
X721087Y1092298D1*
Y1116018D1*
X715052Y1116092D1*
X707844Y1117234D1*
X700905Y1119489D1*
X694403Y1122801D1*
X688501Y1127091D1*
X683342Y1132250D1*
X679052Y1138153D1*
X675739Y1144654D1*
X673485Y1151594D1*
X672343Y1158801D1*
Y1166098D1*
X673485Y1173305D1*
X675739Y1180245D1*
X679052Y1186746D1*
X683342Y1192649D1*
X688501Y1197808D1*
X691222Y1199953D1*
X626510Y1199949D1*
X626501Y1134239D1*
X612469D1*
X958046Y412448D2*
Y546767D1*
X952776Y548410D1*
X948512Y550583D1*
X944633Y553402D1*
X943027Y553629D1*
X942455Y546355D1*
X940751Y539260D1*
X937959Y532519D1*
X934146Y526297D1*
X929407Y520749D1*
X923859Y516010D1*
X917637Y512197D1*
X910896Y509405D1*
X903801Y507701D1*
X896527Y507129D1*
X889252Y507701D1*
X882158Y509405D1*
X875417Y512197D1*
X869195Y516010D1*
X863646Y520749D1*
X858907Y526297D1*
X855095Y532519D1*
X852302Y539260D1*
X850599Y546355D1*
X850078Y552333D1*
X848127Y556300D1*
X846430Y561523D1*
X845570Y566947D1*
X845462Y596787D1*
X784959Y596776D1*
X784884Y584552D1*
X784136Y579823D1*
X782657Y575272D1*
X780483Y571008D1*
X777671Y567136D1*
X774287Y563751D1*
X770414Y560939D1*
X766150Y558766D1*
X761599Y557287D1*
X756871Y556539D1*
X730041Y556444D1*
X732271Y551747D1*
X734525Y544808D1*
X735667Y537600D1*
Y530304D1*
X734525Y523096D1*
X733095Y518392D1*
X738098Y516657D1*
X744599Y513344D1*
X750502Y509054D1*
X755661Y503896D1*
X759951Y497993D1*
X763263Y491491D1*
X765518Y484552D1*
X766659Y477344D1*
Y470048D1*
X765518Y462840D1*
X763263Y455901D1*
X759951Y449399D1*
X755661Y443497D1*
X750502Y438338D1*
X744599Y434048D1*
X738098Y430735D1*
X731158Y428481D1*
X723423Y427318D1*
X708539Y412434D1*
X958039Y412451D1*
X1121283Y462518D2*
Y412423D1*
X1212457Y412451D1*
X1212449Y620531D1*
X1165127Y620546D1*
X1171061Y618020D1*
X1177283Y614208D1*
X1182831Y609469D1*
X1187570Y603920D1*
X1191382Y597699D1*
X1194175Y590957D1*
X1195878Y583863D1*
X1196451Y576588D1*
X1195878Y569314D1*
X1194175Y562220D1*
X1191382Y555478D1*
X1187570Y549256D1*
X1182831Y543708D1*
X1177283Y538969D1*
X1175658Y537884D1*
X1180150Y534502D1*
X1185309Y529343D1*
X1189599Y523440D1*
X1192911Y516939D1*
X1195166Y509999D1*
X1196308Y502792D1*
Y495495D1*
X1195166Y488288D1*
X1192911Y481348D1*
X1189599Y474847D1*
X1185309Y468944D1*
X1180150Y463785D1*
X1174247Y459495D1*
X1167746Y456183D1*
X1160806Y453928D1*
X1153599Y452787D1*
X1146302D1*
X1139095Y453928D1*
X1132155Y456183D1*
X1125654Y459495D1*
X1121285Y462575D1*
X1135015Y620654D2*
Y638166D1*
X1121293Y638294D1*
X1116565Y639043D1*
X1112014Y640522D1*
X1107750Y642695D1*
X1103877Y645507D1*
X1073725Y675527D1*
X1011268Y675516D1*
X1011293Y639948D1*
X1014808Y646941D1*
X1019098Y652844D1*
X1024256Y658003D1*
X1030159Y662293D1*
X1036661Y665606D1*
X1043600Y667860D1*
X1050808Y669002D1*
X1058104D1*
X1065312Y667860D1*
X1072251Y665606D1*
X1078752Y662293D1*
X1084655Y658003D1*
X1089814Y652844D1*
X1094104Y646941D1*
X1097417Y640440D1*
X1099671Y633501D1*
X1100813Y626293D1*
Y618997D1*
X1099671Y611789D1*
X1098241Y607085D1*
X1114839Y607088D1*
X1119751Y611947D1*
X1125654Y616237D1*
X1132155Y619549D1*
X1135006Y620600D1*
X1171150Y783783D2*
X1181200Y783949D1*
X1199319Y783783D1*
X1212418D1*
X1212449Y1199917D1*
X884301Y1199949D1*
X884323Y1186693D1*
X937340Y1186606D1*
X942069Y1185857D1*
X946620Y1184378D1*
X950884Y1182205D1*
X954756Y1179393D1*
X978015Y1156267D1*
X981123Y1152628D1*
X983624Y1148546D1*
X985456Y1144125D1*
X986573Y1139472D1*
X986948Y1134691D1*
Y1093899D1*
X991806Y1088990D1*
X996096Y1083087D1*
X999409Y1076586D1*
X1001663Y1069646D1*
X1002420Y1065683D1*
X1006931Y1067014D1*
X1014138Y1068155D1*
X1021435D1*
X1028642Y1067014D1*
X1035582Y1064759D1*
X1042083Y1061447D1*
X1047986Y1057157D1*
X1053145Y1051998D1*
X1057435Y1046095D1*
X1060747Y1039594D1*
X1063002Y1032654D1*
X1064144Y1025447D1*
X1064159Y1018564D1*
X1103720Y978867D1*
X1106532Y974994D1*
X1108705Y970730D1*
X1110184Y966179D1*
X1110932Y961451D1*
X1111027Y916822D1*
X1119426Y925225D1*
X1119451Y1006166D1*
X1114592Y1011057D1*
X1110302Y1016960D1*
X1106990Y1023461D1*
X1104735Y1030401D1*
X1103594Y1037608D1*
Y1044905D1*
X1104735Y1052112D1*
X1106990Y1059052D1*
X1110302Y1065553D1*
X1114592Y1071456D1*
X1119751Y1076615D1*
X1125654Y1080905D1*
X1132155Y1084217D1*
X1139095Y1086472D1*
X1146302Y1087613D1*
X1153599D1*
X1160806Y1086472D1*
X1167746Y1084217D1*
X1174247Y1080905D1*
X1180150Y1076615D1*
X1185309Y1071456D1*
X1189599Y1065553D1*
X1192911Y1059052D1*
X1195166Y1052112D1*
X1196308Y1044905D1*
Y1037608D1*
X1195166Y1030401D1*
X1192911Y1023461D1*
X1189599Y1016960D1*
X1185309Y1011057D1*
X1180453Y1006178D1*
X1180356Y910224D1*
X1179608Y905495D1*
X1178129Y900944D1*
X1175956Y896680D1*
X1173144Y892808D1*
X1133025Y852557D1*
X1171136Y852532D1*
X1171308Y809848D1*
Y802552D1*
X1171136Y797414D1*
Y783814D1*
X876952Y927485D2*
X816099Y927344D1*
X814982Y922691D1*
X812175Y915608D1*
Y908312D1*
X811033Y901104D1*
X808779Y894165D1*
X805466Y887663D1*
X803322Y884482D1*
X810565Y883903D1*
X817659Y882200D1*
X824401Y879407D1*
X830623Y875595D1*
X836171Y870856D1*
X840910Y865308D1*
X844722Y859086D1*
X847515Y852344D1*
X849218Y845250D1*
X849791Y837976D1*
X849218Y830701D1*
X847515Y823607D1*
X844722Y816865D1*
X840910Y810644D1*
X836171Y805095D1*
X830623Y800356D1*
X824401Y796544D1*
X817659Y793751D1*
X811586Y792251D1*
X810043Y786134D1*
X807250Y779393D1*
X803438Y773171D1*
X800838Y769938D1*
X803882Y764810D1*
X806675Y758069D1*
X808378Y750974D1*
X808951Y743700D1*
X808378Y736426D1*
X806675Y729331D1*
X803882Y722590D1*
X800300Y716712D1*
X845465Y716705D1*
X845570Y770986D1*
X846430Y776410D1*
X848127Y781633D1*
X850620Y786527D1*
X853848Y790970D1*
X876952Y814226D1*
X876959Y927519D1*
X718166Y675516D2*
X666205D1*
X666192Y664743D1*
X671515Y667377D1*
X678455Y669632D1*
X685662Y670773D1*
X692959D1*
X700166Y669632D1*
X707106Y667377D1*
X713607Y664065D1*
X718132Y660861D1*
X718136Y675541D1*
X915462Y716705D2*
X970088D1*
X970104Y732525D1*
X964308Y730756D1*
X957100Y729615D1*
X949804D1*
X942596Y730756D1*
X935657Y733011D1*
X929155Y736323D1*
X923252Y740613D1*
X918094Y745772D1*
X915460Y749197D1*
X915462Y716674D1*
X958082Y456200D2*
D16*
X1006200D1*
X958082Y512449D2*
X1006200D1*
X880462Y987449D2*
Y927520D1*
X817470Y1047378D2*
Y927520D1*
D17*
X499951Y424951D3*
Y533951D3*
Y642951D3*
Y751951D3*
Y860951D3*
Y969951D3*
Y1078951D3*
X500001Y1187990D3*
D18*
X1006200Y456200D3*
X1073129D3*
X1006200Y512449D3*
X1073129D3*
D19*
X1181200Y668700D3*
Y735629D3*
X1124951Y737449D3*
Y804378D3*
D21*
X974951Y987449D3*
X943455D3*
X911959D3*
X880462D3*
X848966D3*
X817470D3*
X785974D3*
X754478D3*
D22*
X699360Y932331D3*
Y900835D3*
Y869339D3*
Y837843D3*
Y806347D3*
Y774851D3*
Y743355D3*
Y711859D3*
D21*
X754478Y656741D3*
X785974D3*
X817470D3*
X848966D3*
X880462D3*
X911959D3*
X943455D3*
X974951D3*
D22*
X1030069Y711859D3*
Y743355D3*
Y774851D3*
Y806347D3*
Y837843D3*
Y869339D3*
Y900835D3*
Y932331D3*
D24*
X849949Y1156200D3*
X802705D3*
X755461D3*
M02*
