G04 DipTrace 3.3.1.1*
G04 TopMask.gbr*
%MOIN*%
G04 #@! TF.FileFunction,Soldermask,Top*
G04 #@! TF.Part,Single*
%ADD30R,0.023628X0.082683*%
%ADD34R,0.074809X0.027565*%
%ADD36R,0.027565X0.074809*%
%ADD38R,0.04725X0.051187*%
%ADD40R,0.051187X0.04725*%
%ADD42R,0.20788X0.06238*%
%FSLAX26Y26*%
G04*
G70*
G90*
G75*
G01*
G04 TopMask*
%LPD*%
D42*
X499951Y424951D3*
Y533951D3*
Y642951D3*
Y751951D3*
Y860951D3*
Y969951D3*
Y1078951D3*
X500001Y1187990D3*
D40*
X1006200Y456200D3*
X1073129D3*
X1006200Y512449D3*
X1073129D3*
D38*
X1181200Y668700D3*
Y735629D3*
X1124951Y737449D3*
Y804378D3*
D36*
X974951Y987449D3*
X943455D3*
X911959D3*
X880462D3*
X848966D3*
X817470D3*
X785974D3*
X754478D3*
D34*
X699360Y932331D3*
Y900835D3*
Y869339D3*
Y837843D3*
Y806347D3*
Y774851D3*
Y743355D3*
Y711859D3*
D36*
X754478Y656741D3*
X785974D3*
X817470D3*
X848966D3*
X880462D3*
X911959D3*
X943455D3*
X974951D3*
D34*
X1030069Y711859D3*
Y743355D3*
Y774851D3*
Y806347D3*
Y837843D3*
Y869339D3*
Y900835D3*
Y932331D3*
D30*
X849949Y1156200D3*
X802705D3*
X755461D3*
M02*
